<?xml version="1.0" encoding="UTF-8"?>
<svg xmlns="http://www.w3.org/2000/svg" xmlns:xlink="http://www.w3.org/1999/xlink" viewBox="0 0 32 32" width="32px" height="32px">
<g id="surface61507818">
<path style=" stroke:none;fill-rule:nonzero;fill:rgb(9.803922%,41.176471%,23.529412%);fill-opacity:1;" d="M 24 1.332031 C 19.566406 1.332031 16 4.902344 16 9.332031 L 16 10.667969 L 3.90625 10.667969 C 2.445312 10.667969 1.332031 11.925781 1.332031 13.332031 L 1.332031 26.667969 C 1.332031 28.074219 2.445312 29.332031 3.90625 29.332031 L 18.761719 29.332031 C 20.21875 29.332031 21.332031 28.074219 21.332031 26.667969 L 21.332031 13.332031 C 21.332031 11.925781 20.222656 10.667969 18.761719 10.667969 L 18.667969 10.667969 L 18.667969 9.332031 C 18.667969 6.296875 20.964844 4 24 4 C 27.035156 4 29.332031 6.296875 29.332031 9.332031 L 29.332031 12 L 32 12 L 32 9.332031 C 32 4.902344 28.433594 1.332031 24 1.332031 Z M 4 13.332031 L 18.667969 13.332031 L 18.667969 26.667969 L 4 26.667969 Z M 11.34375 17.332031 C 9.878906 17.332031 8.675781 18.535156 8.675781 20 C 8.675781 21.464844 9.878906 22.667969 11.34375 22.667969 C 12.808594 22.667969 14.011719 21.464844 14.011719 20 C 14.011719 18.535156 12.808594 17.332031 11.34375 17.332031 Z M 11.34375 17.332031 "/>
</g>
</svg>
