<?xml version="1.0" encoding="UTF-8"?>
<svg xmlns="http://www.w3.org/2000/svg" xmlns:xlink="http://www.w3.org/1999/xlink" viewBox="0 0 32 32" width="32px" height="32px">
<g id="surface63386850">
<path style=" stroke:none;fill-rule:nonzero;fill:rgb(18.431373%,41.176471%,23.529412%);fill-opacity:1;" d="M 16 1.332031 C 11.566406 1.332031 8 4.902344 8 9.332031 L 8 10.667969 C 6.542969 10.667969 5.332031 11.875 5.332031 13.332031 L 5.332031 26.667969 C 5.332031 28.125 6.542969 29.332031 8 29.332031 L 24 29.332031 C 25.457031 29.332031 26.667969 28.125 26.667969 26.667969 L 26.667969 13.332031 C 26.667969 11.875 25.457031 10.667969 24 10.667969 L 24 9.332031 C 24 4.902344 20.433594 1.332031 16 1.332031 Z M 16 4 C 19.035156 4 21.332031 6.296875 21.332031 9.332031 L 21.332031 10.667969 L 10.667969 10.667969 L 10.667969 9.332031 C 10.667969 6.296875 12.964844 4 16 4 Z M 8 13.332031 L 24 13.332031 L 24 26.667969 L 8 26.667969 Z M 16 17.332031 C 14.535156 17.332031 13.332031 18.535156 13.332031 20 C 13.332031 21.464844 14.535156 22.667969 16 22.667969 C 17.464844 22.667969 18.667969 21.464844 18.667969 20 C 18.667969 18.535156 17.464844 17.332031 16 17.332031 Z M 16 17.332031 "/>
</g>
</svg>
