<?xml version="1.0" encoding="utf-8"?>
<!-- Generator: Adobe Illustrator 24.2.0, SVG Export Plug-In . SVG Version: 6.00 Build 0)  -->
<svg version="1.1" id="Calque_1" xmlns="http://www.w3.org/2000/svg" xmlns:xlink="http://www.w3.org/1999/xlink" x="0px" y="0px"
	 viewBox="0 0 101.16 40.28" style="enable-background:new 0 0 101.16 40.28;" xml:space="preserve">
<style type="text/css">
	.st0{fill:#FFD767;}
	.st1{fill:#FFFFFF;}
	.st2{fill:#F08000;}
	.st3{fill:#383938;}
	.st4{fill:#009A87;}
</style>
<g>
	<g>
		<path class="st0" d="M20.34,21.77c-0.54-0.22-0.6-0.16-0.91,0.31c-0.18,0.27-0.48,0.47-0.72,0.69c-0.26-0.45-0.47-0.9-0.76-1.29
			c-0.37-0.5-0.91-0.09-1.4-0.19c0.03-0.24,0.05-0.49,0.08-0.75c0.04-0.42,0.02-0.78-0.46-0.99c-0.28-0.13-0.5-0.39-0.82-0.65
			c0.29-0.25,0.53-0.48,0.81-0.68c0.24-0.18,0.32-0.44,0.17-0.79c-0.14-0.33-0.29-0.66-0.45-1.05c0.33-0.02,0.6-0.04,0.87-0.04
			c0.53,0,0.79-0.2,0.89-0.71c0.05-0.24,0.09-0.48,0.15-0.77c0.27,0.14,0.51,0.27,0.75,0.39c0.27,0.14,0.51,0.13,0.76-0.06
			c0.36-0.28,0.74-0.54,1.14-0.83c0.13,0.26,0.24,0.53,0.37,0.78c0.17,0.31,0.38,0.5,0.79,0.44c0.43-0.06,0.87-0.04,1.36-0.05
			c-0.05,0.32-0.1,0.62-0.14,0.91c-0.14,0.89-0.12,0.93,0.65,1.4c0.12,0.07,0.24,0.14,0.4,0.22c-0.24,0.25-0.46,0.48-0.69,0.71
			c-0.28,0.29-0.44,0.6-0.24,1.01c0.12,0.24,0.17,0.51,0.26,0.78c-0.42,0.07-0.83,0.13-1.23,0.22c-0.24,0.05-0.43,0.11-0.38,0.49
			c0.04,0.28-0.18,0.59-0.3,0.91C20.95,22.05,20.65,21.89,20.34,21.77z"/>
		<path class="st0" d="M14.94,17.09c0.02,0.04,0.03,0.09,0.05,0.13c0.22,0.53,0.19,0.66-0.27,1.02c-0.05,0.04-0.16,0.07-0.21,0.05
			c-0.8-0.43-1.6-0.86-2.4-1.3c0.01-0.04,0.02-0.08,0.03-0.12c0.67-0.08,1.34-0.17,2.01-0.25C14.71,16.55,14.71,16.56,14.94,17.09z"
			/>
		<path class="st0" d="M14.27,13.02c0.03-0.02,0.06-0.04,0.09-0.06c0.27,0.16,0.55,0.32,0.82,0.48c0.46,0.27,0.91,0.55,1.38,0.8
			c0.18,0.09,0.23,0.19,0.2,0.39c-0.1,0.73-0.09,0.71-0.82,0.85c-0.36,0.07-0.52-0.03-0.66-0.36
			C14.96,14.39,14.61,13.71,14.27,13.02z"/>
		<path class="st0" d="M10.81,16.02c-0.09,0.01-0.19-0.02-0.27-0.07c-0.98-0.5-1.95-1-2.93-1.5c-0.03-0.02-0.05-0.05-0.06-0.05
			c0.15-0.85,0.3-1.69,0.45-2.52c0.02-0.11,0.09-0.22,0.16-0.31c0.44-0.51,0.88-1.01,1.34-1.53c0.93,0.61,1.85,1.21,2.77,1.81
			c0.08,0.05,0.15,0.13,0.19,0.21c0.27,0.51,0.53,1.03,0.79,1.54c0.29,0.6,0.58,1.21,0.86,1.82c0.03,0.07,0.06,0.15,0.08,0.18
			C13.05,15.74,11.93,15.89,10.81,16.02z"/>
		<path class="st0" d="M10.52,17.16c1.03,0.66,2.05,1.33,3.09,2.01c-0.36,0.36-0.75,0.74-1.13,1.11c-0.53,0.51-1.05,1.02-1.59,1.5
			c-0.16,0.14-0.37,0.25-0.57,0.29c-0.87,0.15-1.75,0.27-2.62,0.4c-0.08,0.01-0.16,0.02-0.25,0.03c-0.3-0.96-0.61-1.88-1.19-2.69
			c-0.05-0.07-0.06-0.18-0.04-0.27c0.09-0.65,0.19-1.3,0.29-1.98c0.35-0.04,0.71-0.09,1.06-0.13c0.85-0.11,1.71-0.23,2.56-0.33
			C10.25,17.09,10.42,17.09,10.52,17.16z"/>
		<path class="st0" d="M14.54,19.8c0.06-0.05,0.21-0.06,0.3-0.02c0.26,0.11,0.5,0.25,0.79,0.4c-0.08,0.37-0.17,0.76-0.27,1.14
			c-0.02,0.06-0.11,0.13-0.17,0.14c-0.86,0.12-1.73,0.22-2.59,0.33c-0.01-0.02-0.02-0.05-0.03-0.07
			C13.23,21.07,13.88,20.43,14.54,19.8z"/>
		<path class="st0" d="M16.34,22.5c0.02-0.07,0.13-0.17,0.21-0.18c0.3-0.06,0.61-0.08,0.93-0.12c0.11,0.4,0.22,0.78,0.31,1.17
			c0.02,0.08-0.05,0.2-0.11,0.26c-0.62,0.6-1.25,1.18-1.88,1.77l-0.09-0.04C15.92,24.4,16.12,23.45,16.34,22.5z"/>
		<path class="st0" d="M18,13.61c0.16-1,0.34-2,0.53-3.1c0.3,0.59,0.55,1.09,0.8,1.59c0.11,0.22,0.2,0.45,0.31,0.68
			c0.24,0.48,0.24,0.48-0.17,0.86c-0.21,0.19-0.41,0.39-0.64,0.6c-0.24-0.13-0.49-0.26-0.72-0.41C18.05,13.79,17.99,13.67,18,13.61z
			"/>
		<path class="st0" d="M25.19,4.83c0.3-0.01,0.47-0.12,0.56-0.38c0.18-0.52,0.34-1.05,0.52-1.62c0.24,0.44,0.52,0.85,0.67,1.3
			c0.12,0.35,0.31,0.47,0.61,0.46c0.39-0.01,0.77-0.06,1.16-0.11c0.24-0.03,0.49-0.08,0.77-0.07c-0.14,0.16-0.29,0.32-0.43,0.47
			C28.74,5.2,28.4,5.5,28.11,5.84c-0.28,0.32-0.18,0.44,0.06,0.77c0.29,0.39,0.45,0.86,0.67,1.3c-0.04,0.04-0.09,0.08-0.13,0.12
			C28.36,7.75,28,7.5,27.68,7.2c-0.26-0.23-0.52-0.23-0.78-0.06c-0.35,0.23-0.68,0.5-1.01,0.77c-0.26,0.22-0.51,0.45-0.76,0.68
			c-0.05-0.02-0.09-0.04-0.14-0.05c0.16-0.63,0.31-1.26,0.48-1.88c0.09-0.34-0.03-0.59-0.28-0.77c-0.28-0.2-0.59-0.35-0.88-0.52
			c-0.13-0.08-0.26-0.16-0.4-0.32C24.33,4.97,24.76,4.85,25.19,4.83z"/>
		<path class="st0" d="M22.55,5.4c0.7,0.37,1.39,0.74,2,1.07c-0.16,0.87-0.32,1.7-0.46,2.53c-0.05,0.32-0.17,0.56-0.42,0.78
			c-0.94,0.83-1.85,1.68-2.78,2.52c-0.1,0.09-0.22,0.18-0.34,0.28c-0.04-0.05-0.08-0.07-0.09-0.11c-0.5-1.07-1.02-2.13-1.5-3.2
			c-0.09-0.21-0.1-0.48-0.07-0.71c0.15-0.98,0.34-1.95,0.5-2.86c0.96-0.12,1.91-0.24,2.85-0.35C22.34,5.35,22.46,5.36,22.55,5.4z"/>
		<path class="st0" d="M15.41,5.02c0.73-0.72,1.46-1.44,2.2-2.15c0.05-0.05,0.18-0.09,0.24-0.06c0.96,0.52,1.91,1.05,2.86,1.58
			c0,0.03-0.01,0.07-0.01,0.1c-0.49,0.06-0.97,0.12-1.46,0.18c-0.6,0.07-0.55,0.1-0.64,0.7c-0.09,0.66-0.32,1.29-0.52,2.04
			c-0.18-0.35-0.32-0.62-0.44-0.89c-0.17-0.38-0.32-0.76-0.47-1.14c-0.1-0.27-0.31-0.35-0.56-0.32c-0.41,0.04-0.82,0.1-1.29,0.16
			C15.37,5.1,15.38,5.05,15.41,5.02z"/>
		<path class="st0" d="M13.21,7.01c0.46-0.62,1.09-0.83,1.84-0.83c0.38,0,0.77-0.1,1.15-0.17c0.22-0.04,0.34,0,0.44,0.23
			c0.33,0.77,0.7,1.52,1.04,2.28c0.05,0.11,0.08,0.25,0.06,0.37c-0.25,1.37-0.51,2.74-0.77,4.11c-0.01,0.04-0.03,0.08-0.06,0.16
			c-0.22-0.13-0.42-0.25-0.62-0.37c-0.84-0.47-1.68-0.95-2.54-1.4c-0.27-0.14-0.46-0.32-0.6-0.6c-0.41-0.78-0.86-1.55-1.29-2.32
			c-0.04-0.07-0.07-0.15-0.12-0.24c0.4-0.32,0.79-0.64,1.18-0.96C13.02,7.19,13.14,7.12,13.21,7.01z"/>
		<path class="st0" d="M8.04,6.95c0.39-0.09,0.63-0.32,0.74-0.72c0.11-0.43,0.26-0.85,0.41-1.36C9.4,5.39,9.57,5.82,9.75,6.24
			c0.23,0.53,0.45,0.59,1,0.41c0.3-0.1,0.64-0.09,1.03-0.14c-0.35,0.42-0.65,0.79-0.95,1.16c-0.3,0.37-0.26,0.43-0.03,0.86
			c0.27,0.49,0.46,1.02,0.69,1.56c-0.41-0.19-0.82-0.33-1.19-0.55C9.7,9.17,9.19,9.25,8.69,9.69C8.6,9.76,8.5,9.83,8.34,9.94
			C8.36,9.66,8.4,9.44,8.38,9.22c-0.03-0.4,0.1-0.82-0.54-1c-0.49-0.13-0.9-0.57-1.39-0.9C7.01,7.19,7.53,7.07,8.04,6.95z"/>
		<path class="st0" d="M8.42,24.18c-0.25,0.24-0.52,0.44-0.75,0.7c-0.31,0.34-0.19,0.65,0.12,0.96c0.32,0.33,0.53,0.78,0.78,1.18
			c-0.03,0.03-0.06,0.06-0.09,0.09c-0.32-0.16-0.63-0.34-0.95-0.49c-1.43-0.69-1.06-0.75-2.29,0.23c-0.15,0.12-0.31,0.25-0.49,0.4
			c0.11-0.62,0.22-1.17,0.31-1.73c0.05-0.32-0.12-0.55-0.38-0.7c-0.37-0.21-0.75-0.39-1.13-0.59c-0.14-0.07-0.28-0.15-0.44-0.24
			c0.48-0.06,0.92-0.11,1.36-0.17c0.22-0.03,0.47-0.04,0.65-0.15c0.17-0.1,0.33-0.31,0.37-0.49c0.11-0.59,0.16-1.2,0.24-1.79
			c0.05-0.01,0.1-0.01,0.16-0.02C6,21.69,6.12,22,6.24,22.32c0.05,0.13,0.07,0.27,0.11,0.41c0.16,0.55,0.32,0.65,0.9,0.61
			c0.68-0.05,1.36-0.09,2.09-0.06C9.04,23.59,8.73,23.89,8.42,24.18z"/>
		<path class="st0" d="M14.27,31.89c-0.24,0.05-0.5,0.07-0.71,0.18c-0.16,0.08-0.3,0.27-0.35,0.44c-0.14,0.42-0.22,0.86-0.33,1.34
			c-0.28-0.34-0.54-0.63-0.77-0.93c-0.24-0.32-0.56-0.46-0.95-0.43c-0.42,0.03-0.84,0.04-1.07,0.06c0.16-0.27,0.35-0.62,0.56-0.97
			c0.04-0.06,0.12-0.11,0.19-0.13c0.42-0.16,0.52-0.35,0.37-0.79c-0.15-0.43-0.34-0.85-0.51-1.27c0.03-0.03,0.06-0.07,0.09-0.1
			c0.31,0.23,0.64,0.43,0.93,0.69c0.22,0.2,0.46,0.24,0.76,0.02c0.42-0.32,0.84-0.65,1.34-1.03c-0.08,0.44-0.15,0.79-0.19,1.14
			c-0.03,0.28-0.07,0.57-0.03,0.84c0,0,0.27,0.6,0.72,0.29c0.19,0.15,0.39,0.32,0.65,0.53C14.69,31.81,14.48,31.84,14.27,31.89z"/>
		<path class="st0" d="M16.82,31.57c-0.14,0.01-0.3-0.05-0.43-0.13c-0.59-0.33-1.16-0.67-1.79-1.04c0.22-0.91,0.43-1.83,0.67-2.76
			c0.03-0.13,0.15-0.24,0.24-0.34c0.73-0.72,1.47-1.43,2.21-2.15c0.2-0.2,0.39-0.41,0.62-0.65c0.09,0.19,0.16,0.33,0.23,0.48
			c0.4,0.93,0.82,1.86,1.2,2.8c0.1,0.26,0.14,0.57,0.11,0.85c-0.09,0.8-0.22,1.59-0.34,2.38c-0.02,0.14-0.06,0.27-0.09,0.42
			C18.56,31.49,17.69,31.54,16.82,31.57z"/>
		<path class="st0" d="M5.04,14.3c0.52-0.38,1-0.83,1.49-1.25c0.05-0.04,0.1-0.09,0.23-0.11c-0.1,0.44-0.21,0.88-0.31,1.32
			c-0.05,0.23-0.24,0.49-0.13,0.69c0.13,0.25,0.43,0.23,0.65,0.48c0.06,0.06,0.18-0.02,0.27-0.03c0.03,0,0.06,0.03,0.09,0.05
			c0.49,0.25,0.99,0.5,1.48,0.75c0,0.03,0,0.06-0.01,0.09c-0.82,0.15-1.64,0.31-2.46,0.44c-0.32,0.05-0.54,0.13-0.6,0.51
			c-0.05,0.37-0.2,0.72-0.31,1.1c-0.19-0.24-0.38-0.46-0.54-0.69c-0.04-0.06-0.05-0.17-0.04-0.26c0.07-0.49-0.2-0.78-0.7-0.7
			c-0.65,0.11-1.3,0.26-1.94,0.39C2.15,17.11,2.1,17.11,2,17.13c0.33-0.39,0.64-0.75,0.96-1.1c0.03-0.04,0.11-0.04,0.16-0.06
			c0.54-0.14,0.7-0.49,0.47-1.02c-0.22-0.52-0.44-1.05-0.65-1.57c-0.02-0.05-0.03-0.11-0.07-0.22c0.4,0.18,0.77,0.32,1.12,0.49"/>
	</g>
</g>
<path class="st0" d="M8.73,24.8c0.01-0.02,0.01-0.05,0.02-0.06c0.91-0.69,1.82-1.38,2.74-2.06c0.1-0.07,0.23-0.15,0.35-0.15
	c1.2-0.01,2.4-0.01,3.63-0.01c-0.47,1.44-0.91,2.81-1.35,4.17c-0.02,0.08-0.07,0.16-0.13,0.21c-0.72,0.56-1.45,1.12-2.15,1.66
	c-0.66-0.41-1.24-0.78-1.84-1.13c-0.24-0.14-0.37-0.33-0.46-0.59C9.31,26.14,9.05,25.46,8.73,24.8z"/>
<circle class="st0" cx="26.56" cy="20.04" r="8.51"/>
<path class="st1" d="M34.93,12.09l-0.3,1.64c-0.04,0.1-0.01,0.22-0.01,0.34c0.03-0.07,0.06-0.13,0.08-0.19
	c0.27-0.73,0.46-1.49,0.66-2.24c0.01-0.04,0.01-0.07-0.01-0.11c-0.1-0.18-0.25-0.32-0.37-0.48c-0.13-0.17-0.29-0.33-0.42-0.49
	c-0.27-0.34-0.58-0.64-0.87-0.95c0.02,0.1,0.07,0.18,0.12,0.26l1.13,1.65c0.03,0.04,0.14,0.09,0.1,0.18
	C34.97,11.82,34.96,11.96,34.93,12.09z"/>
<g>
	<path class="st1" d="M44.44,23.59l-0.11-0.29c0-0.01-0.01-0.01-0.02-0.01h-0.45c-0.01,0-0.01,0-0.02,0.01l-2.37,6.42
		c0,0.01,0,0.01,0,0.02c0,0,0.01,0.01,0.01,0.01h1.1c0.01,0,0.01,0,0.02-0.01l0.47-1.28h2.01l0.47,1.28c0,0.01,0.01,0.01,0.02,0.01
		h1.1c0.01,0,0.01,0,0.01-0.01c0,0,0-0.01,0-0.02l-2.04-5.53L44.44,23.59z M43.49,27.39l0.61-1.66l0.61,1.66H43.49z"/>
	<path class="st1" d="M52.79,23.29c-0.01,0-0.01,0-0.02,0.01l-2.33,4.57l-2.18-4.28l-0.15-0.29c0-0.01-0.01-0.01-0.01-0.01h-0.47
		c-0.01,0-0.02,0.01-0.02,0.02v6.42c0,0.01,0.01,0.02,0.02,0.02h1.03c0.01,0,0.02-0.01,0.02-0.02v-2.96l1.17,2.29l0.35,0.68
		c0,0.01,0.01,0.01,0.01,0.01h0.47c0.01,0,0.01,0,0.02-0.01l0.34-0.68l1.17-2.3v2.97c0,0.01,0.01,0.02,0.02,0.02h1.03
		c0.01,0,0.02-0.01,0.02-0.02v-6.42c0-0.01-0.01-0.02-0.02-0.02H52.79z"/>
	<path class="st1" d="M57.15,23.59l-0.11-0.29c0-0.01-0.01-0.01-0.02-0.01h-0.45c-0.01,0-0.01,0-0.02,0.01l-2.37,6.42
		c0,0.01,0,0.01,0,0.02c0,0,0.01,0.01,0.01,0.01h1.1c0.01,0,0.01,0,0.02-0.01l0.47-1.28h2.01l0.47,1.28c0,0.01,0.01,0.01,0.02,0.01
		h1.1c0.01,0,0.01,0,0.01-0.01c0,0,0-0.01,0-0.02l-2.04-5.53L57.15,23.59z M56.2,27.39l0.61-1.66l0.61,1.66H56.2z"/>
	<path class="st1" d="M61.4,28.68v-5.37c0-0.01-0.01-0.02-0.02-0.02h-1.03c-0.01,0-0.02,0.01-0.02,0.02v6.42
		c0,0.01,0.01,0.02,0.02,0.02h4.57c0.01,0,0.02-0.01,0.02-0.02v-1.03c0-0.01-0.01-0.02-0.02-0.02H61.4z"/>
	<path class="st1" d="M74.1,24.34v-1.03c0-0.01-0.01-0.02-0.02-0.02H68.9c-0.01,0-0.02,0.01-0.02,0.02v1.03
		c0,0.01,0.01,0.02,0.02,0.02h2.06v5.37c0,0.01,0.01,0.02,0.02,0.02h1.03c0.01,0,0.02-0.01,0.02-0.02v-5.37h2.06
		C74.09,24.36,74.1,24.35,74.1,24.34z"/>
	<path class="st1" d="M76.04,23.59l-0.11-0.29c0-0.01-0.01-0.01-0.02-0.01h-0.45c-0.01,0-0.01,0-0.02,0.01l-2.37,6.42
		c0,0.01,0,0.01,0,0.02c0,0,0.01,0.01,0.01,0.01h1.1c0.01,0,0.01,0,0.02-0.01l0.47-1.28h2.01l0.47,1.28c0,0.01,0.01,0.01,0.02,0.01
		h1.1c0.01,0,0.01,0,0.01-0.01c0,0,0-0.01,0-0.02l-2.04-5.53L76.04,23.59z M75.08,27.39l0.61-1.66l0.61,1.66H75.08z"/>
	<path class="st1" d="M81.55,23.29h-2.3c-0.01,0-0.02,0.01-0.02,0.02v6.42c0,0.01,0.01,0.02,0.02,0.02h2.3
		c1.78,0,3.23-1.45,3.23-3.23C84.77,24.74,83.32,23.29,81.55,23.29z M81.55,28.68h-1.26v-4.32h1.26c1.19,0,2.16,0.97,2.16,2.16
		C83.7,27.71,82.74,28.68,81.55,28.68z"/>
	<path class="st1" d="M90.82,25.61c0-1.28-1.04-2.32-2.32-2.32h-2.88c-0.01,0-0.02,0.01-0.02,0.02v6.42c0,0.01,0.01,0.02,0.02,0.02
		h1.03v0c0.01,0,0.02-0.01,0.02-0.02v-1.79h1.6c0.09,0,0.19,0.04,0.26,0.1l1.28,1.28c0,0,0,0.01,0,0.01
		c0.27,0.27,0.63,0.42,1.01,0.42c0.01,0,0.02-0.01,0.02-0.02v-1.03c0-0.01-0.01-0.02-0.02-0.02c-0.09,0-0.19-0.04-0.26-0.1
		l-0.92-0.93C90.36,27.23,90.82,26.46,90.82,25.61z M88.49,26.87h-1.83v-2.52h1.83c0.69,0,1.26,0.56,1.26,1.26
		C89.75,26.31,89.18,26.87,88.49,26.87z"/>
	<path class="st1" d="M91.66,23.29c-0.01,0-0.02,0.01-0.02,0.02v6.42c0,0.01,0.01,0.02,0.02,0.02h1.03c0.01,0,0.02-0.01,0.02-0.02
		v-6.42c0-0.01-0.01-0.02-0.02-0.02H91.66z"/>
	<path class="st1" d="M96.97,23.29h-3.32c-0.01,0-0.02,0.01-0.02,0.02v6.42c0,0.01,0.01,0.02,0.02,0.02h3.32
		c1.04,0,1.88-0.84,1.88-1.88c0-0.51-0.2-0.99-0.57-1.35c0.37-0.35,0.57-0.83,0.57-1.35C98.85,24.13,98,23.29,96.97,23.29z
		 M96.97,28.68h-2.27v-1.63h2.27c0.45,0,0.81,0.37,0.81,0.81C97.78,28.31,97.41,28.68,96.97,28.68z M96.97,25.98h-2.27v-1.63h2.27
		c0.45,0,0.81,0.37,0.81,0.81C97.78,25.62,97.41,25.98,96.97,25.98z"/>
	<path class="st1" d="M46.67,21.93c-0.06-0.06-0.14-0.11-0.22-0.15c-0.09-0.04-0.18-0.05-0.28-0.05s-0.19,0.02-0.28,0.05
		c-0.09,0.04-0.16,0.09-0.23,0.15c-0.06,0.06-0.11,0.14-0.15,0.22c-0.04,0.09-0.06,0.18-0.06,0.27c0,0.1,0.02,0.19,0.06,0.28
		c0.04,0.09,0.09,0.16,0.15,0.22c0.06,0.06,0.14,0.11,0.23,0.15c0.09,0.04,0.18,0.05,0.28,0.05c0.2,0,0.36-0.07,0.5-0.21
		c0.14-0.14,0.21-0.3,0.21-0.5c0-0.1-0.02-0.19-0.06-0.27C46.78,22.07,46.73,22,46.67,21.93z"/>
	<path class="st1" d="M45.71,20.57c2.37,0,3.83-0.36,4.39-1.09c0.22,0.45,0.64,0.68,1.23,0.73v0.02h0.19h0.25h0.31
		c0.69,0,1.24-0.2,1.63-0.59c0.39-0.4,0.59-0.93,0.59-1.62c0-1.01-0.27-1.52-0.8-1.52c-0.17,0-0.32,0.06-0.42,0.18
		c-0.11,0.12-0.16,0.26-0.16,0.43c0,0.06,0.01,0.14,0.02,0.23c0.01,0.09,0.04,0.19,0.07,0.31c0.06,0.23,0.09,0.41,0.09,0.53
		c0,0.42-0.31,0.64-0.93,0.64h-0.39h-0.02c-0.56,0-0.88-0.22-0.97-0.67c-0.06-0.3-0.09-0.45-0.09-0.46
		c-0.07-0.18-0.22-0.27-0.43-0.27c-0.19,0-0.34,0.12-0.45,0.36c-0.17,0.39-0.29,0.62-0.34,0.68c-0.37,0.46-1.34,0.68-2.93,0.68
		h-0.77c-1.07,0-1.81-0.12-2.21-0.37c-0.27-0.17-0.41-0.42-0.41-0.76c0-0.11,0.02-0.26,0.06-0.45c0.02-0.1,0.04-0.19,0.05-0.26
		c0.01-0.07,0.02-0.14,0.02-0.19c0-0.3-0.15-0.45-0.46-0.45c-0.28,0-0.5,0.24-0.66,0.73c-0.11,0.35-0.16,0.7-0.16,1.06
		C42.01,19.86,43.25,20.57,45.71,20.57z"/>
	<path class="st1" d="M52.62,21.45c-0.1,0-0.19,0.02-0.28,0.05c-0.09,0.04-0.16,0.09-0.23,0.15c-0.07,0.06-0.12,0.13-0.15,0.22
		c-0.04,0.09-0.06,0.18-0.06,0.28c0,0.1,0.02,0.19,0.06,0.27c0.04,0.09,0.09,0.16,0.15,0.23c0.06,0.07,0.14,0.12,0.23,0.15
		c0.09,0.04,0.18,0.06,0.28,0.06s0.19-0.02,0.28-0.06c0.09-0.04,0.16-0.09,0.22-0.15c0.06-0.07,0.11-0.14,0.15-0.23
		c0.04-0.09,0.06-0.18,0.06-0.27c0-0.19-0.07-0.36-0.21-0.5C52.98,21.52,52.81,21.45,52.62,21.45z"/>
	<path class="st1" d="M54.63,22.8c0.09-0.04,0.16-0.09,0.23-0.15c0.07-0.07,0.12-0.14,0.15-0.23c0.04-0.09,0.06-0.18,0.06-0.27
		c0-0.1-0.02-0.19-0.06-0.28c-0.04-0.09-0.09-0.16-0.15-0.22c-0.06-0.06-0.14-0.11-0.23-0.15c-0.09-0.04-0.18-0.05-0.28-0.05
		c-0.2,0-0.36,0.07-0.51,0.2c-0.14,0.14-0.21,0.31-0.21,0.5c0,0.1,0.02,0.19,0.06,0.27c0.04,0.09,0.09,0.16,0.15,0.23
		c0.06,0.07,0.14,0.12,0.22,0.15c0.09,0.04,0.18,0.06,0.28,0.06C54.45,22.85,54.55,22.84,54.63,22.8z"/>
	<path class="st1" d="M59.46,16.55c-0.41,0-0.62,0.33-0.62,1c0,0.08,0.01,0.2,0.02,0.37c0.01,0.17,0.02,0.29,0.02,0.37
		c0,0.73-0.21,1.3-0.62,1.74c-0.35,0.37-1.01,0.77-1.98,1.2c-0.38,0.16-0.57,0.4-0.57,0.71c0,0.37,0.21,0.55,0.62,0.55
		c0.1,0,0.2-0.01,0.29-0.04c1.11-0.31,1.98-0.83,2.62-1.58c0.66-0.77,0.99-1.71,0.99-2.82c0-0.15-0.01-0.3-0.02-0.46
		C60.15,16.9,59.9,16.55,59.46,16.55z"/>
	<path class="st1" d="M67.23,15.52c0.06,0.07,0.14,0.12,0.22,0.15c0.09,0.04,0.18,0.05,0.28,0.05c0.1,0,0.19-0.02,0.28-0.05
		c0.09-0.04,0.16-0.09,0.22-0.15c0.06-0.07,0.11-0.14,0.15-0.23c0.04-0.09,0.06-0.18,0.06-0.28s-0.02-0.19-0.06-0.28
		s-0.09-0.16-0.15-0.22c-0.06-0.06-0.14-0.11-0.22-0.15c-0.09-0.04-0.18-0.05-0.28-0.05c-0.1,0-0.19,0.02-0.28,0.05
		c-0.09,0.04-0.16,0.09-0.22,0.15c-0.06,0.06-0.11,0.13-0.15,0.22c-0.04,0.09-0.06,0.18-0.06,0.28s0.02,0.19,0.06,0.28
		C67.12,15.38,67.17,15.45,67.23,15.52z"/>
	<path class="st1" d="M68.97,15.52c0.06,0.07,0.14,0.12,0.23,0.15c0.09,0.04,0.18,0.05,0.28,0.05s0.19-0.02,0.28-0.05
		s0.16-0.09,0.22-0.15c0.06-0.07,0.11-0.14,0.15-0.23c0.04-0.09,0.06-0.18,0.06-0.28c0-0.19-0.07-0.35-0.21-0.49
		c-0.14-0.14-0.3-0.21-0.5-0.21c-0.1,0-0.19,0.02-0.28,0.05c-0.09,0.04-0.16,0.09-0.23,0.15c-0.07,0.06-0.12,0.13-0.15,0.22
		c-0.04,0.09-0.06,0.18-0.06,0.28s0.02,0.19,0.06,0.28C68.86,15.38,68.91,15.45,68.97,15.52z"/>
	<path class="st1" d="M69.48,18.02c0-1.01-0.27-1.52-0.8-1.52c-0.17,0-0.32,0.06-0.42,0.18c-0.11,0.12-0.16,0.26-0.16,0.43
		c0,0.06,0.01,0.14,0.02,0.23c0.01,0.09,0.04,0.19,0.07,0.31c0.06,0.23,0.09,0.41,0.09,0.53c0,0.42-0.31,0.64-0.93,0.64h-0.39h-0.1
		c-0.35,0-0.63-0.1-0.84-0.3c-0.13-0.13-0.3-0.38-0.5-0.76c-0.76-1.45-1.28-2.22-1.57-2.3c-0.05-0.02-0.11-0.02-0.19-0.02
		c-0.41,0-0.61,0.2-0.61,0.59c0,0.23,0.11,0.52,0.32,0.85c0.14,0.22,0.26,0.4,0.36,0.55c0.1,0.15,0.17,0.26,0.23,0.34
		c0.22,0.35,0.35,0.62,0.39,0.82c0,0.01,0,0.02,0,0.03c0,0.01,0,0.02,0,0.03c0,0.4-0.77,0.64-2.31,0.74
		c-0.56,0.04-0.84,0.23-0.84,0.57c0,0.01,0,0.02,0,0.03c0,0.01,0,0.02,0,0.03c0.04,0.47,0.43,0.7,1.16,0.7
		c0.31,0,0.69-0.05,1.16-0.14c0.88-0.18,1.45-0.48,1.7-0.88c0.21,0.32,0.62,0.49,1.2,0.52v0.01h0.21h0.23h0.31
		c0.69,0,1.24-0.2,1.63-0.59C69.28,19.24,69.48,18.7,69.48,18.02z"/>
	<path class="st1" d="M95.33,19.87c0.25-0.31,0.37-0.7,0.37-1.15c0-0.49-0.11-0.9-0.33-1.24c-0.26-0.4-0.63-0.59-1.1-0.59
		c-0.4,0-0.79,0.21-1.18,0.62c-0.04,0.04-0.11,0.13-0.21,0.26c-0.1,0.13-0.23,0.31-0.38,0.53c-0.15,0.2-0.28,0.34-0.4,0.4
		c-0.13,0.07-0.32,0.1-0.56,0.1h-0.05h-0.44h-2.98h-0.44h-2.98H84.2h-2.98h-0.03c-0.7,0-1.05-0.52-1.05-1.56v-3.79
		c0-0.47-0.2-0.71-0.59-0.71c-0.21,0-0.37,0.07-0.49,0.21c-0.12,0.14-0.18,0.32-0.17,0.53l0.17,6.03c0.02,0.62-0.12,1.1-0.43,1.45
		c-0.32,0.37-0.79,0.56-1.42,0.56c-0.47,0-0.86-0.12-1.15-0.35c-0.33-0.25-0.49-0.6-0.49-1.05c0-0.14,0.02-0.34,0.07-0.61
		c0.05-0.27,0.08-0.47,0.08-0.61c0-0.31-0.16-0.46-0.49-0.46c-0.29,0-0.51,0.22-0.65,0.67c-0.12,0.37-0.18,0.77-0.18,1.21
		c0,0.78,0.24,1.41,0.72,1.89c0.48,0.48,1.12,0.73,1.92,0.73c0.99,0,1.76-0.3,2.29-0.89c0.49-0.55,0.74-1.33,0.77-2.33
		c0.14,0.27,0.37,0.43,0.68,0.48v0.03h0.24h0.19h2.98h0.44h2.98h0.44h2.98h0.44h0.21c0.46,0,0.85-0.15,1.17-0.46
		c0.35,0.42,0.82,0.63,1.4,0.63C94.7,20.39,95.05,20.22,95.33,19.87z M93.77,19.09c-0.19-0.1-0.29-0.21-0.29-0.32
		c0-0.16,0.08-0.3,0.24-0.45c0.16-0.15,0.33-0.22,0.49-0.22c0.16,0,0.29,0.07,0.39,0.22c0.08,0.13,0.13,0.28,0.13,0.45
		c0,0.3-0.17,0.45-0.5,0.45C94.08,19.21,93.93,19.17,93.77,19.09z"/>
	<path class="st1" d="M98.28,20.44c0.36,0,0.54-0.22,0.54-0.67v-6.12c0-0.62-0.21-0.93-0.63-0.93c-0.24,0-0.42,0.12-0.54,0.35
		c-0.1,0.19-0.15,0.41-0.14,0.67l0.24,6.07C97.76,20.23,97.94,20.44,98.28,20.44z"/>
	<path class="st1" d="M99.19,11.17c-0.08,0-0.14,0.01-0.19,0.02c-0.47,0.13-0.72,0.2-0.74,0.2c-0.48,0-0.72-0.15-0.72-0.45
		c0-0.26,0.16-0.4,0.47-0.4c0.07,0,0.17,0.01,0.3,0.04c0.14,0.02,0.24,0.04,0.31,0.04c0.15,0,0.22-0.08,0.22-0.23
		c0-0.15-0.1-0.27-0.29-0.35c-0.16-0.07-0.33-0.1-0.49-0.1c-0.32,0-0.6,0.1-0.83,0.31c-0.22,0.2-0.34,0.46-0.34,0.78
		c0,0.28,0.11,0.52,0.34,0.71l-0.36,0.14c-0.2,0.08-0.3,0.2-0.3,0.35c0,0.15,0.09,0.23,0.28,0.23c0.04,0,0.1-0.01,0.17-0.03
		l2.11-0.66c0.26-0.08,0.39-0.2,0.39-0.36C99.52,11.25,99.41,11.17,99.19,11.17z"/>
</g>
<path class="st1" d="M35.06,38.46c0.03,0,0.06-0.01,0.09-0.02c0.08-0.03,0.15-0.1,0.17-0.18l1.63-5.65c0.02-0.05,0.01-0.11,0-0.17
	l-0.78-2.22c-0.05-0.14-0.19-0.22-0.33-0.19c-0.16,0.04-0.25,0.21-0.19,0.36l0.75,2.15l-0.66,2.3c-0.41,1.42-2.09,2.01-3.29,1.15
	l-1.95-1.38l-2.04-5.82c-0.43-1.24-1.43-2.22-2.65-2.61c-2.48-0.79-4.39-2.65-5.25-5.11c-1.48-4.23,0.75-8.91,4.96-10.42
	c4.25-1.53,8.96,0.68,10.49,4.93c0.89,2.46,0.57,5.12-0.87,7.31c-0.73,1.1-0.9,2.5-0.47,3.73l0.31,0.87
	c0.06,0.16,0.06,0.33-0.01,0.49c-0.07,0.17-0.21,0.29-0.38,0.35l-2.09,0.73c-0.09,0.03-0.18-0.02-0.21-0.1l-2.34-6.69
	c-0.05-0.14-0.19-0.22-0.33-0.2c-0.14,0.02-0.25,0.15-0.25,0.29c-0.01,0.41-0.16,0.81-0.42,1.12c-0.32,0.38-0.77,0.6-1.27,0.62
	c-0.49,0.02-0.96-0.15-1.32-0.5c-0.63-0.61-0.71-1.64-0.18-2.35c0.47-0.62,1.29-0.86,2.02-0.6c0.58,0.21,1.4,0.46,1.49,0.49
	c0.9,0.32,1.93,0.05,2.55-0.68c0.42-0.49,0.61-1.13,0.54-1.77c-0.07-0.64-0.4-1.22-0.92-1.61c-0.94-0.71-2.3-0.58-3.1,0.28
	c-0.43,0.47-0.65,1.07-0.62,1.71c0.01,0.15,0.12,0.27,0.27,0.27c0.16,0,0.29-0.13,0.28-0.29c-0.03-0.49,0.14-0.96,0.47-1.32
	c0.61-0.66,1.65-0.75,2.36-0.21c0.4,0.3,0.65,0.73,0.7,1.23c0.05,0.49-0.09,0.97-0.41,1.35c-0.48,0.56-1.26,0.77-1.95,0.52
	c0,0-0.01,0-0.01,0c-0.01,0-0.88-0.27-1.47-0.48c-0.96-0.35-2.02-0.03-2.65,0.78c-0.71,0.94-0.61,2.26,0.23,3.08
	c0.47,0.45,1.08,0.68,1.73,0.65c0.64-0.03,1.24-0.33,1.66-0.81c0.15-0.17,0.27-0.36,0.36-0.57l2.05,5.87
	c0.13,0.37,0.54,0.57,0.91,0.44l2.06-0.72c0.28-0.1,0.53-0.29,0.67-0.55c0.17-0.3,0.2-0.65,0.09-0.98l-0.31-0.89
	c-0.38-1.07-0.22-2.29,0.41-3.25c1.54-2.33,1.88-5.17,0.93-7.8c-1.64-4.53-6.66-6.89-11.2-5.26c-2.3,0.83-4.12,2.54-5.08,4.8
	c-0.88,2.04-0.93,4.33-0.17,6.42c0.93,2.57,2.95,4.51,5.56,5.35c1.06,0.34,1.92,1.19,2.3,2.27l2.06,5.9c0.02,0.05,0.05,0.1,0.1,0.13
	l4.8,3.4C34.95,38.45,35,38.46,35.06,38.46z"/>
<g>
	<path class="st2" d="M-163.3-263.79c-0.51-0.21-0.58-0.15-0.88,0.3c-0.18,0.26-0.46,0.45-0.69,0.66c-0.25-0.44-0.45-0.87-0.73-1.24
		c-0.35-0.48-0.87-0.08-1.35-0.18c0.03-0.23,0.05-0.48,0.08-0.72c0.04-0.4,0.02-0.75-0.44-0.95c-0.27-0.12-0.48-0.37-0.78-0.63
		c0.28-0.24,0.51-0.46,0.77-0.65c0.23-0.17,0.3-0.43,0.16-0.76c-0.13-0.32-0.28-0.64-0.44-1.01c0.32-0.02,0.57-0.04,0.83-0.04
		c0.51,0,0.75-0.19,0.86-0.69c0.05-0.23,0.09-0.46,0.14-0.74c0.26,0.14,0.49,0.25,0.72,0.38c0.26,0.14,0.49,0.12,0.73-0.06
		c0.35-0.27,0.71-0.52,1.09-0.8c0.12,0.25,0.23,0.51,0.36,0.75c0.16,0.3,0.37,0.48,0.76,0.43c0.41-0.06,0.83-0.04,1.3-0.05
		c-0.05,0.31-0.09,0.59-0.14,0.88c-0.13,0.85-0.11,0.9,0.62,1.34c0.12,0.07,0.24,0.13,0.38,0.21c-0.23,0.24-0.45,0.46-0.66,0.69
		c-0.27,0.28-0.42,0.57-0.23,0.97c0.11,0.23,0.16,0.49,0.25,0.75c-0.4,0.07-0.8,0.13-1.18,0.21c-0.23,0.05-0.42,0.11-0.37,0.47
		c0.04,0.27-0.18,0.57-0.29,0.88C-162.71-263.52-163-263.67-163.3-263.79z"/>
	<path class="st2" d="M-168.49-268.28c0.02,0.04,0.03,0.08,0.05,0.13c0.21,0.5,0.18,0.64-0.26,0.98c-0.05,0.04-0.15,0.07-0.2,0.04
		c-0.77-0.41-1.54-0.83-2.31-1.25c0.01-0.04,0.02-0.08,0.03-0.12c0.64-0.08,1.29-0.17,1.93-0.24
		C-168.71-268.8-168.71-268.79-168.49-268.28z"/>
	<path class="st2" d="M-169.13-272.2c0.03-0.02,0.06-0.04,0.09-0.06c0.26,0.15,0.53,0.3,0.79,0.46c0.44,0.26,0.87,0.52,1.32,0.77
		c0.17,0.09,0.22,0.18,0.19,0.37c-0.09,0.7-0.09,0.68-0.79,0.81c-0.34,0.06-0.5-0.03-0.64-0.34
		C-168.47-270.87-168.81-271.53-169.13-272.2z"/>
	<path class="st2" d="M-172.46-269.31c-0.08,0.01-0.18-0.02-0.26-0.06c-0.94-0.48-1.88-0.96-2.81-1.44
		c-0.03-0.01-0.05-0.04-0.06-0.05c0.15-0.82,0.28-1.62,0.43-2.42c0.02-0.1,0.08-0.21,0.15-0.29c0.42-0.49,0.85-0.97,1.29-1.47
		c0.9,0.58,1.78,1.16,2.66,1.74c0.07,0.05,0.14,0.12,0.18,0.2c0.26,0.49,0.51,0.98,0.76,1.48c0.28,0.58,0.55,1.16,0.83,1.75
		c0.03,0.07,0.06,0.14,0.07,0.18C-170.3-269.58-171.38-269.44-172.46-269.31z"/>
	<path class="st2" d="M-172.73-268.22c0.99,0.63,1.97,1.28,2.96,1.93c-0.35,0.34-0.72,0.71-1.09,1.07
		c-0.51,0.49-1.01,0.98-1.53,1.44c-0.15,0.13-0.36,0.24-0.55,0.28c-0.84,0.15-1.68,0.26-2.52,0.39c-0.08,0.01-0.15,0.02-0.24,0.03
		c-0.29-0.92-0.59-1.81-1.14-2.58c-0.05-0.06-0.05-0.17-0.04-0.26c0.09-0.63,0.18-1.25,0.28-1.91c0.33-0.04,0.68-0.08,1.02-0.13
		c0.82-0.11,1.64-0.22,2.46-0.32C-172.99-268.29-172.83-268.28-172.73-268.22z"/>
	<path class="st2" d="M-168.87-265.68c0.06-0.05,0.21-0.06,0.29-0.02c0.25,0.11,0.48,0.24,0.76,0.38c-0.08,0.35-0.16,0.73-0.26,1.09
		c-0.01,0.06-0.1,0.13-0.16,0.13c-0.83,0.11-1.66,0.21-2.49,0.31c-0.01-0.02-0.02-0.05-0.02-0.07
		C-170.13-264.46-169.51-265.08-168.87-265.68z"/>
	<path class="st2" d="M-167.14-263.09c0.02-0.07,0.12-0.16,0.2-0.17c0.29-0.05,0.58-0.08,0.89-0.12c0.11,0.39,0.22,0.75,0.3,1.12
		c0.02,0.07-0.05,0.19-0.11,0.25c-0.6,0.57-1.2,1.14-1.8,1.7l-0.09-0.04C-167.55-261.26-167.35-262.18-167.14-263.09z"/>
	<path class="st2" d="M-165.55-271.63c0.16-0.96,0.33-1.92,0.51-2.98c0.29,0.57,0.53,1.05,0.77,1.53c0.11,0.21,0.19,0.44,0.3,0.65
		c0.23,0.47,0.23,0.46-0.16,0.83c-0.2,0.19-0.4,0.37-0.62,0.58c-0.23-0.13-0.47-0.25-0.69-0.4
		C-165.5-271.46-165.56-271.57-165.55-271.63z"/>
	<path class="st2" d="M-158.64-280.06c0.29-0.01,0.46-0.11,0.54-0.36c0.17-0.5,0.32-1.01,0.5-1.56c0.23,0.42,0.5,0.82,0.65,1.25
		c0.11,0.33,0.3,0.45,0.59,0.44c0.37-0.01,0.74-0.06,1.11-0.11c0.23-0.03,0.47-0.08,0.74-0.07c-0.14,0.15-0.27,0.31-0.42,0.45
		c-0.3,0.31-0.62,0.6-0.9,0.92c-0.27,0.31-0.18,0.42,0.06,0.74c0.27,0.37,0.44,0.83,0.65,1.25c-0.04,0.04-0.09,0.08-0.13,0.11
		c-0.33-0.26-0.68-0.51-0.99-0.79c-0.25-0.23-0.5-0.22-0.74-0.06c-0.34,0.22-0.65,0.48-0.97,0.74c-0.25,0.21-0.49,0.43-0.73,0.65
		c-0.04-0.02-0.09-0.04-0.13-0.05c0.15-0.6,0.29-1.21,0.46-1.81c0.09-0.33-0.03-0.57-0.27-0.74c-0.27-0.19-0.57-0.33-0.85-0.5
		c-0.13-0.07-0.25-0.15-0.38-0.31C-159.47-279.93-159.06-280.04-158.64-280.06z"/>
	<path class="st2" d="M-161.18-279.51c0.67,0.35,1.33,0.71,1.92,1.03c-0.15,0.84-0.31,1.63-0.44,2.43c-0.05,0.31-0.16,0.54-0.4,0.75
		c-0.9,0.8-1.78,1.61-2.67,2.42c-0.1,0.09-0.21,0.17-0.33,0.27c-0.04-0.04-0.07-0.07-0.09-0.11c-0.48-1.02-0.98-2.04-1.44-3.08
		c-0.09-0.2-0.1-0.46-0.06-0.68c0.15-0.94,0.32-1.87,0.48-2.74c0.92-0.11,1.83-0.23,2.74-0.34
		C-161.38-279.56-161.27-279.55-161.18-279.51z"/>
	<path class="st2" d="M-168.04-279.88c0.7-0.69,1.4-1.38,2.11-2.07c0.05-0.05,0.18-0.09,0.23-0.06c0.92,0.5,1.83,1.01,2.75,1.52
		c0,0.03-0.01,0.07-0.01,0.1c-0.47,0.06-0.93,0.12-1.4,0.17c-0.57,0.07-0.53,0.1-0.61,0.68c-0.09,0.63-0.31,1.24-0.5,1.96
		c-0.17-0.34-0.31-0.59-0.42-0.85c-0.16-0.36-0.31-0.73-0.45-1.1c-0.1-0.26-0.29-0.33-0.54-0.31c-0.39,0.04-0.79,0.09-1.24,0.15
		C-168.07-279.8-168.07-279.85-168.04-279.88z"/>
	<path class="st2" d="M-170.15-277.96c0.45-0.59,1.04-0.8,1.77-0.8c0.37,0,0.74-0.1,1.11-0.17c0.21-0.04,0.33,0,0.42,0.22
		c0.32,0.74,0.67,1.46,1,2.19c0.05,0.11,0.08,0.24,0.06,0.35c-0.24,1.32-0.49,2.63-0.74,3.94c-0.01,0.04-0.03,0.08-0.06,0.15
		c-0.21-0.12-0.4-0.24-0.59-0.35c-0.81-0.45-1.62-0.91-2.44-1.34c-0.26-0.14-0.44-0.31-0.58-0.58c-0.39-0.75-0.83-1.48-1.24-2.23
		c-0.04-0.07-0.07-0.14-0.12-0.23c0.38-0.31,0.76-0.62,1.13-0.92C-170.33-277.79-170.22-277.86-170.15-277.96z"/>
	<path class="st2" d="M-175.11-278.02c0.37-0.09,0.61-0.3,0.71-0.69c0.1-0.41,0.25-0.81,0.4-1.3c0.2,0.49,0.36,0.9,0.53,1.3
		c0.22,0.51,0.43,0.57,0.96,0.39c0.29-0.1,0.62-0.09,0.99-0.13c-0.33,0.41-0.62,0.76-0.91,1.11c-0.29,0.36-0.25,0.41-0.03,0.82
		c0.26,0.47,0.44,0.98,0.66,1.5c-0.39-0.18-0.79-0.32-1.14-0.53c-0.57-0.34-1.07-0.26-1.55,0.16c-0.08,0.07-0.18,0.14-0.33,0.25
		c0.02-0.27,0.05-0.49,0.03-0.7c-0.03-0.38,0.09-0.79-0.52-0.96c-0.47-0.13-0.87-0.55-1.33-0.87
		C-176.1-277.79-175.61-277.91-175.11-278.02z"/>
	<path class="st2" d="M-174.75-261.47c-0.24,0.23-0.5,0.43-0.72,0.67c-0.3,0.33-0.19,0.62,0.11,0.93c0.31,0.32,0.51,0.75,0.75,1.13
		c-0.03,0.03-0.06,0.06-0.09,0.09c-0.3-0.16-0.6-0.32-0.91-0.47c-1.37-0.66-1.01-0.72-2.2,0.22c-0.15,0.12-0.29,0.24-0.47,0.38
		c0.11-0.6,0.21-1.13,0.3-1.66c0.05-0.31-0.11-0.53-0.37-0.67c-0.35-0.2-0.72-0.38-1.08-0.57c-0.14-0.07-0.27-0.15-0.42-0.23
		c0.46-0.06,0.88-0.1,1.3-0.16c0.21-0.03,0.45-0.04,0.62-0.14c0.16-0.1,0.32-0.29,0.35-0.47c0.11-0.57,0.16-1.15,0.23-1.72
		c0.05-0.01,0.1-0.01,0.15-0.02c0.12,0.3,0.24,0.61,0.35,0.91c0.05,0.13,0.07,0.26,0.11,0.39c0.15,0.52,0.31,0.62,0.86,0.59
		c0.65-0.05,1.31-0.09,2.01-0.05C-174.16-262.05-174.45-261.75-174.75-261.47z"/>
	<path class="st2" d="M-169.13-254.07c-0.23,0.05-0.48,0.07-0.69,0.17c-0.15,0.08-0.29,0.26-0.34,0.43
		c-0.13,0.41-0.21,0.83-0.32,1.29c-0.27-0.33-0.52-0.6-0.74-0.9c-0.23-0.31-0.53-0.44-0.91-0.41c-0.4,0.03-0.81,0.04-1.02,0.05
		c0.15-0.26,0.34-0.6,0.54-0.93c0.04-0.06,0.12-0.1,0.19-0.13c0.4-0.15,0.5-0.34,0.35-0.76c-0.15-0.41-0.32-0.82-0.49-1.22
		c0.03-0.03,0.06-0.06,0.09-0.09c0.3,0.22,0.62,0.42,0.89,0.66c0.22,0.19,0.44,0.23,0.73,0.02c0.41-0.3,0.81-0.62,1.28-0.99
		c-0.07,0.42-0.14,0.75-0.19,1.1c-0.03,0.27-0.06,0.54-0.03,0.81c0,0,0.25,0.58,0.69,0.28c0.18,0.15,0.37,0.3,0.63,0.51
		C-168.73-254.15-168.93-254.12-169.13-254.07z"/>
	<path class="st2" d="M-166.69-254.38c-0.14,0-0.29-0.05-0.41-0.12c-0.56-0.31-1.12-0.64-1.72-1c0.21-0.87,0.41-1.76,0.64-2.65
		c0.03-0.12,0.14-0.23,0.23-0.32c0.7-0.69,1.42-1.37,2.12-2.06c0.19-0.19,0.38-0.39,0.6-0.63c0.09,0.18,0.16,0.32,0.22,0.46
		c0.39,0.89,0.79,1.78,1.15,2.69c0.1,0.25,0.14,0.55,0.11,0.82c-0.08,0.77-0.22,1.53-0.33,2.29c-0.02,0.13-0.05,0.26-0.08,0.4
		C-165.01-254.46-165.85-254.41-166.69-254.38z"/>
	<path class="st2" d="M-178-270.96c0.5-0.36,0.96-0.79,1.43-1.2c0.05-0.04,0.1-0.09,0.22-0.11c-0.1,0.42-0.2,0.85-0.3,1.27
		c-0.05,0.22-0.23,0.47-0.12,0.66c0.13,0.24,0.41,0.22,0.63,0.46c0.06,0.06,0.17-0.02,0.26-0.03c0.03,0,0.06,0.03,0.09,0.04
		c0.47,0.24,0.95,0.48,1.42,0.72c0,0.03,0,0.06-0.01,0.09c-0.79,0.14-1.58,0.3-2.37,0.42c-0.31,0.05-0.52,0.12-0.57,0.49
		c-0.05,0.35-0.19,0.69-0.3,1.06c-0.19-0.23-0.36-0.44-0.52-0.66c-0.04-0.06-0.05-0.17-0.04-0.25c0.07-0.47-0.19-0.75-0.67-0.67
		c-0.63,0.11-1.24,0.25-1.87,0.38c-0.05,0.01-0.11,0.01-0.2,0.03c0.32-0.37,0.62-0.72,0.92-1.06c0.03-0.04,0.1-0.04,0.16-0.05
		c0.52-0.13,0.67-0.47,0.45-0.98c-0.21-0.5-0.42-1-0.63-1.51c-0.02-0.05-0.03-0.11-0.06-0.21c0.39,0.17,0.74,0.31,1.08,0.48"/>
</g>
<path class="st2" d="M-174.45-260.88c0.01-0.02,0.01-0.05,0.02-0.06c0.88-0.66,1.75-1.32,2.63-1.98c0.1-0.07,0.22-0.15,0.33-0.15
	c1.15-0.01,2.31-0.01,3.49-0.01c-0.45,1.38-0.87,2.7-1.3,4.01c-0.02,0.07-0.06,0.15-0.12,0.2c-0.69,0.54-1.39,1.08-2.07,1.59
	c-0.63-0.39-1.19-0.75-1.77-1.09c-0.23-0.14-0.36-0.32-0.44-0.57C-173.9-259.59-174.15-260.25-174.45-260.88z"/>
<circle class="st2" cx="-157.33" cy="-265.45" r="8.18"/>
<path class="st1" d="M-149.29-273.08l-0.29,1.57c-0.03,0.09-0.01,0.21-0.01,0.33c0.03-0.07,0.05-0.13,0.08-0.18
	c0.26-0.7,0.44-1.43,0.63-2.15c0.01-0.03,0.01-0.07-0.01-0.1c-0.1-0.17-0.24-0.31-0.35-0.46c-0.12-0.16-0.28-0.31-0.4-0.47
	c-0.26-0.33-0.56-0.61-0.84-0.91c0.02,0.09,0.07,0.17,0.11,0.25l1.09,1.58c0.03,0.04,0.13,0.09,0.09,0.18
	C-149.25-273.34-149.26-273.21-149.29-273.08z"/>
<text transform="matrix(1 0 0 1 -142.4346 -262.1331)" style="fill:#262626; font-family:'BronxRegular'; font-size:8.8445px;">Amal Tadrib</text>
<text transform="matrix(1 0 0 1 -145.0665 -251.827)" style="fill:#262626; font-family:'GESSUniqueLight-Light'; font-size:10.7603px;">بيردت لـــــمأ</text>
<path class="st3" d="M-149.16-247.76c0.03,0,0.06,0,0.09-0.01c0.08-0.03,0.14-0.09,0.17-0.18l1.56-5.43c0.02-0.05,0.01-0.11,0-0.16
	l-0.75-2.13c-0.05-0.13-0.18-0.21-0.32-0.18c-0.15,0.04-0.24,0.2-0.19,0.34l0.72,2.06l-0.64,2.21c-0.39,1.36-2.01,1.93-3.16,1.11
	l-1.87-1.33l-1.95-5.59c-0.42-1.19-1.37-2.13-2.55-2.51c-2.38-0.76-4.22-2.55-5.04-4.9c-1.42-4.06,0.72-8.55,4.76-10.01
	c4.08-1.47,8.61,0.65,10.08,4.73c0.85,2.36,0.55,4.92-0.83,7.02c-0.7,1.06-0.87,2.4-0.45,3.58l0.29,0.84
	c0.05,0.15,0.05,0.32-0.01,0.47c-0.07,0.16-0.2,0.28-0.36,0.34l-2,0.7c-0.08,0.03-0.17-0.01-0.2-0.1l-2.25-6.43
	c-0.05-0.13-0.18-0.21-0.32-0.19c-0.14,0.02-0.24,0.14-0.24,0.28c-0.01,0.39-0.15,0.77-0.41,1.07c-0.31,0.36-0.74,0.57-1.22,0.6
	c-0.47,0.02-0.93-0.15-1.27-0.48c-0.61-0.59-0.68-1.58-0.17-2.25c0.46-0.6,1.23-0.83,1.94-0.57c0.56,0.21,1.34,0.45,1.43,0.47
	c0.87,0.31,1.85,0.05,2.45-0.65c0.4-0.47,0.59-1.09,0.52-1.7c-0.07-0.62-0.38-1.17-0.88-1.54c-0.9-0.68-2.21-0.56-2.98,0.27
	c-0.42,0.45-0.63,1.03-0.59,1.64c0.01,0.14,0.12,0.26,0.26,0.26c0.16,0,0.28-0.13,0.27-0.28c-0.03-0.47,0.13-0.92,0.45-1.26
	c0.59-0.63,1.58-0.72,2.27-0.21c0.38,0.29,0.62,0.71,0.67,1.18c0.05,0.47-0.09,0.93-0.4,1.29c-0.46,0.54-1.21,0.74-1.88,0.5
	c0,0-0.01,0-0.01,0c-0.01,0-0.84-0.26-1.41-0.47c-0.92-0.33-1.94-0.03-2.54,0.75c-0.68,0.9-0.59,2.17,0.22,2.95
	c0.45,0.43,1.04,0.66,1.66,0.63c0.61-0.03,1.19-0.31,1.59-0.78c0.14-0.17,0.26-0.35,0.34-0.55l1.97,5.64
	c0.12,0.36,0.52,0.55,0.87,0.42l1.98-0.69c0.27-0.09,0.51-0.28,0.65-0.53c0.16-0.29,0.19-0.63,0.08-0.94l-0.3-0.86
	c-0.36-1.03-0.21-2.2,0.4-3.12c1.48-2.24,1.8-4.97,0.89-7.49c-1.57-4.35-6.4-6.62-10.76-5.05c-2.21,0.79-3.95,2.44-4.88,4.61
	c-0.84,1.96-0.9,4.16-0.17,6.17c0.89,2.46,2.84,4.33,5.34,5.14c1.02,0.33,1.85,1.14,2.21,2.18l1.98,5.67
	c0.02,0.05,0.05,0.1,0.1,0.13l4.61,3.27C-149.27-247.77-149.22-247.76-149.16-247.76z"/>
<g>
	<path class="st4" d="M-163.3-227.72c-0.51-0.21-0.58-0.15-0.88,0.3c-0.18,0.26-0.46,0.45-0.69,0.66c-0.25-0.44-0.45-0.87-0.73-1.24
		c-0.35-0.48-0.87-0.08-1.35-0.18c0.03-0.23,0.05-0.48,0.08-0.72c0.04-0.4,0.02-0.75-0.44-0.95c-0.27-0.12-0.48-0.37-0.78-0.63
		c0.28-0.24,0.51-0.46,0.77-0.65c0.23-0.17,0.3-0.43,0.16-0.76c-0.13-0.32-0.28-0.64-0.44-1.01c0.32-0.02,0.57-0.04,0.83-0.04
		c0.51,0,0.75-0.19,0.86-0.69c0.05-0.23,0.09-0.46,0.14-0.74c0.26,0.14,0.49,0.25,0.72,0.38c0.26,0.14,0.49,0.12,0.73-0.06
		c0.35-0.27,0.71-0.52,1.09-0.8c0.12,0.25,0.23,0.51,0.36,0.75c0.16,0.3,0.37,0.48,0.76,0.43c0.41-0.06,0.83-0.04,1.3-0.05
		c-0.05,0.31-0.09,0.59-0.14,0.88c-0.13,0.85-0.11,0.9,0.62,1.34c0.12,0.07,0.24,0.13,0.38,0.21c-0.23,0.24-0.45,0.46-0.66,0.69
		c-0.27,0.28-0.42,0.57-0.23,0.97c0.11,0.23,0.16,0.49,0.25,0.75c-0.4,0.07-0.8,0.13-1.18,0.21c-0.23,0.05-0.42,0.11-0.37,0.47
		c0.04,0.27-0.18,0.57-0.29,0.88C-162.71-227.45-163-227.6-163.3-227.72z"/>
	<path class="st4" d="M-168.49-232.21c0.02,0.04,0.03,0.08,0.05,0.13c0.21,0.5,0.18,0.64-0.26,0.98c-0.05,0.04-0.15,0.07-0.2,0.04
		c-0.77-0.41-1.54-0.83-2.31-1.25c0.01-0.04,0.02-0.08,0.03-0.12c0.64-0.08,1.29-0.17,1.93-0.24
		C-168.71-232.73-168.71-232.72-168.49-232.21z"/>
	<path class="st4" d="M-169.13-236.12c0.03-0.02,0.06-0.04,0.09-0.06c0.26,0.15,0.53,0.3,0.79,0.46c0.44,0.26,0.87,0.52,1.32,0.77
		c0.17,0.09,0.22,0.18,0.19,0.37c-0.09,0.7-0.09,0.68-0.79,0.81c-0.34,0.06-0.5-0.03-0.64-0.34
		C-168.47-234.8-168.81-235.46-169.13-236.12z"/>
	<path class="st4" d="M-172.46-233.24c-0.08,0.01-0.18-0.02-0.26-0.06c-0.94-0.48-1.88-0.96-2.81-1.44
		c-0.03-0.01-0.05-0.04-0.06-0.05c0.15-0.82,0.28-1.62,0.43-2.42c0.02-0.1,0.08-0.21,0.15-0.29c0.42-0.49,0.85-0.97,1.29-1.47
		c0.9,0.58,1.78,1.16,2.66,1.74c0.07,0.05,0.14,0.12,0.18,0.2c0.26,0.49,0.51,0.98,0.76,1.48c0.28,0.58,0.55,1.16,0.83,1.75
		c0.03,0.07,0.06,0.14,0.07,0.18C-170.3-233.5-171.38-233.37-172.46-233.24z"/>
	<path class="st4" d="M-172.73-232.14c0.99,0.63,1.97,1.28,2.96,1.93c-0.35,0.34-0.72,0.71-1.09,1.07
		c-0.51,0.49-1.01,0.98-1.53,1.44c-0.15,0.13-0.36,0.24-0.55,0.28c-0.84,0.15-1.68,0.26-2.52,0.39c-0.08,0.01-0.15,0.02-0.24,0.03
		c-0.29-0.92-0.59-1.81-1.14-2.58c-0.05-0.06-0.05-0.17-0.04-0.26c0.09-0.63,0.18-1.25,0.28-1.91c0.33-0.04,0.68-0.08,1.02-0.13
		c0.82-0.11,1.64-0.22,2.46-0.32C-172.99-232.21-172.83-232.21-172.73-232.14z"/>
	<path class="st4" d="M-168.87-229.61c0.06-0.05,0.21-0.06,0.29-0.02c0.25,0.11,0.48,0.24,0.76,0.38c-0.08,0.35-0.16,0.73-0.26,1.09
		c-0.01,0.06-0.1,0.13-0.16,0.13c-0.83,0.11-1.66,0.21-2.49,0.31c-0.01-0.02-0.02-0.05-0.02-0.07
		C-170.13-228.39-169.51-229.01-168.87-229.61z"/>
	<path class="st4" d="M-167.14-227.02c0.02-0.07,0.12-0.16,0.2-0.17c0.29-0.05,0.58-0.08,0.89-0.12c0.11,0.39,0.22,0.75,0.3,1.12
		c0.02,0.07-0.05,0.19-0.11,0.25c-0.6,0.57-1.2,1.14-1.8,1.7l-0.09-0.04C-167.55-225.19-167.35-226.1-167.14-227.02z"/>
	<path class="st4" d="M-165.55-235.56c0.16-0.96,0.33-1.92,0.51-2.98c0.29,0.57,0.53,1.05,0.77,1.53c0.11,0.21,0.19,0.44,0.3,0.65
		c0.23,0.47,0.23,0.46-0.16,0.83c-0.2,0.19-0.4,0.37-0.62,0.58c-0.23-0.13-0.47-0.25-0.69-0.4
		C-165.5-235.38-165.56-235.49-165.55-235.56z"/>
	<path class="st4" d="M-158.64-243.99c0.29-0.01,0.46-0.11,0.54-0.36c0.17-0.5,0.32-1.01,0.5-1.56c0.23,0.42,0.5,0.82,0.65,1.25
		c0.11,0.33,0.3,0.45,0.59,0.44c0.37-0.01,0.74-0.06,1.11-0.11c0.23-0.03,0.47-0.08,0.74-0.07c-0.14,0.15-0.27,0.31-0.42,0.45
		c-0.3,0.31-0.62,0.6-0.9,0.92c-0.27,0.31-0.18,0.42,0.06,0.74c0.27,0.37,0.44,0.83,0.65,1.25c-0.04,0.04-0.09,0.08-0.13,0.11
		c-0.33-0.26-0.68-0.51-0.99-0.79c-0.25-0.23-0.5-0.22-0.74-0.06c-0.34,0.22-0.65,0.48-0.97,0.74c-0.25,0.21-0.49,0.43-0.73,0.65
		c-0.04-0.02-0.09-0.04-0.13-0.05c0.15-0.6,0.29-1.21,0.46-1.81c0.09-0.33-0.03-0.57-0.27-0.74c-0.27-0.19-0.57-0.33-0.85-0.5
		c-0.13-0.07-0.25-0.15-0.38-0.31C-159.47-243.85-159.06-243.97-158.64-243.99z"/>
	<path class="st4" d="M-161.18-243.43c0.67,0.35,1.33,0.71,1.92,1.03c-0.15,0.84-0.31,1.63-0.44,2.43c-0.05,0.31-0.16,0.54-0.4,0.75
		c-0.9,0.8-1.78,1.61-2.67,2.42c-0.1,0.09-0.21,0.17-0.33,0.27c-0.04-0.04-0.07-0.07-0.09-0.11c-0.48-1.02-0.98-2.04-1.44-3.08
		c-0.09-0.2-0.1-0.46-0.06-0.68c0.15-0.94,0.32-1.87,0.48-2.74c0.92-0.11,1.83-0.23,2.74-0.34
		C-161.38-243.49-161.27-243.48-161.18-243.43z"/>
	<path class="st4" d="M-168.04-243.81c0.7-0.69,1.4-1.38,2.11-2.07c0.05-0.05,0.18-0.09,0.23-0.06c0.92,0.5,1.83,1.01,2.75,1.52
		c0,0.03-0.01,0.07-0.01,0.1c-0.47,0.06-0.93,0.12-1.4,0.17c-0.57,0.07-0.53,0.1-0.61,0.68c-0.09,0.63-0.31,1.24-0.5,1.96
		c-0.17-0.34-0.31-0.59-0.42-0.85c-0.16-0.36-0.31-0.73-0.45-1.1c-0.1-0.26-0.29-0.33-0.54-0.31c-0.39,0.04-0.79,0.09-1.24,0.15
		C-168.07-243.73-168.07-243.78-168.04-243.81z"/>
	<path class="st4" d="M-170.15-241.89c0.45-0.59,1.04-0.8,1.77-0.8c0.37,0,0.74-0.1,1.11-0.17c0.21-0.04,0.33,0,0.42,0.22
		c0.32,0.74,0.67,1.46,1,2.19c0.05,0.11,0.08,0.24,0.06,0.35c-0.24,1.32-0.49,2.63-0.74,3.94c-0.01,0.04-0.03,0.08-0.06,0.15
		c-0.21-0.12-0.4-0.24-0.59-0.35c-0.81-0.45-1.62-0.91-2.44-1.34c-0.26-0.14-0.44-0.31-0.58-0.58c-0.39-0.75-0.83-1.48-1.24-2.23
		c-0.04-0.07-0.07-0.14-0.12-0.23c0.38-0.31,0.76-0.62,1.13-0.92C-170.33-241.72-170.22-241.79-170.15-241.89z"/>
	<path class="st4" d="M-175.11-241.95c0.37-0.09,0.61-0.3,0.71-0.69c0.1-0.41,0.25-0.81,0.4-1.3c0.2,0.49,0.36,0.9,0.53,1.3
		c0.22,0.51,0.43,0.57,0.96,0.39c0.29-0.1,0.62-0.09,0.99-0.13c-0.33,0.41-0.62,0.76-0.91,1.11c-0.29,0.36-0.25,0.41-0.03,0.82
		c0.26,0.47,0.44,0.98,0.66,1.5c-0.39-0.18-0.79-0.32-1.14-0.53c-0.57-0.34-1.07-0.26-1.55,0.16c-0.08,0.07-0.18,0.14-0.33,0.25
		c0.02-0.27,0.05-0.49,0.03-0.7c-0.03-0.38,0.09-0.79-0.52-0.96c-0.47-0.13-0.87-0.55-1.33-0.87
		C-176.1-241.72-175.61-241.83-175.11-241.95z"/>
	<path class="st4" d="M-174.75-225.4c-0.24,0.23-0.5,0.43-0.72,0.67c-0.3,0.33-0.19,0.62,0.11,0.93c0.31,0.32,0.51,0.75,0.75,1.13
		c-0.03,0.03-0.06,0.06-0.09,0.09c-0.3-0.16-0.6-0.32-0.91-0.47c-1.37-0.66-1.01-0.72-2.2,0.22c-0.15,0.12-0.29,0.24-0.47,0.38
		c0.11-0.6,0.21-1.13,0.3-1.66c0.05-0.31-0.11-0.53-0.37-0.67c-0.35-0.2-0.72-0.38-1.08-0.57c-0.14-0.07-0.27-0.15-0.42-0.23
		c0.46-0.06,0.88-0.1,1.3-0.16c0.21-0.03,0.45-0.04,0.62-0.14c0.16-0.1,0.32-0.29,0.35-0.47c0.11-0.57,0.16-1.15,0.23-1.72
		c0.05-0.01,0.1-0.01,0.15-0.02c0.12,0.3,0.24,0.61,0.35,0.91c0.05,0.13,0.07,0.26,0.11,0.39c0.15,0.52,0.31,0.62,0.86,0.59
		c0.65-0.05,1.31-0.09,2.01-0.05C-174.16-225.97-174.45-225.68-174.75-225.4z"/>
	<path class="st4" d="M-169.13-218c-0.23,0.05-0.48,0.07-0.69,0.17c-0.15,0.08-0.29,0.26-0.34,0.43c-0.13,0.41-0.21,0.83-0.32,1.29
		c-0.27-0.33-0.52-0.6-0.74-0.9c-0.23-0.31-0.53-0.44-0.91-0.41c-0.4,0.03-0.81,0.04-1.02,0.05c0.15-0.26,0.34-0.6,0.54-0.93
		c0.04-0.06,0.12-0.1,0.19-0.13c0.4-0.15,0.5-0.34,0.35-0.76c-0.15-0.41-0.32-0.82-0.49-1.22c0.03-0.03,0.06-0.06,0.09-0.09
		c0.3,0.22,0.62,0.42,0.89,0.66c0.22,0.19,0.44,0.23,0.73,0.02c0.41-0.3,0.81-0.62,1.28-0.99c-0.07,0.42-0.14,0.75-0.19,1.1
		c-0.03,0.27-0.06,0.54-0.03,0.81c0,0,0.25,0.58,0.69,0.28c0.18,0.15,0.37,0.3,0.63,0.51C-168.73-218.07-168.93-218.04-169.13-218z"
		/>
	<path class="st4" d="M-166.69-218.3c-0.14,0-0.29-0.05-0.41-0.12c-0.56-0.31-1.12-0.64-1.72-1c0.21-0.87,0.41-1.76,0.64-2.65
		c0.03-0.12,0.14-0.23,0.23-0.32c0.7-0.69,1.42-1.37,2.12-2.06c0.19-0.19,0.38-0.39,0.6-0.63c0.09,0.18,0.16,0.32,0.22,0.46
		c0.39,0.89,0.79,1.78,1.15,2.69c0.1,0.25,0.14,0.55,0.11,0.82c-0.08,0.77-0.22,1.53-0.33,2.29c-0.02,0.13-0.05,0.26-0.08,0.4
		C-165.01-218.38-165.85-218.33-166.69-218.3z"/>
	<path class="st4" d="M-178-234.89c0.5-0.36,0.96-0.79,1.43-1.2c0.05-0.04,0.1-0.09,0.22-0.11c-0.1,0.42-0.2,0.85-0.3,1.27
		c-0.05,0.22-0.23,0.47-0.12,0.66c0.13,0.24,0.41,0.22,0.63,0.46c0.06,0.06,0.17-0.02,0.26-0.03c0.03,0,0.06,0.03,0.09,0.04
		c0.47,0.24,0.95,0.48,1.42,0.72c0,0.03,0,0.06-0.01,0.09c-0.79,0.14-1.58,0.3-2.37,0.42c-0.31,0.05-0.52,0.12-0.57,0.49
		c-0.05,0.35-0.19,0.69-0.3,1.06c-0.19-0.23-0.36-0.44-0.52-0.66c-0.04-0.06-0.05-0.17-0.04-0.25c0.07-0.47-0.19-0.75-0.67-0.67
		c-0.63,0.11-1.24,0.25-1.87,0.38c-0.05,0.01-0.11,0.01-0.2,0.03c0.32-0.37,0.62-0.72,0.92-1.06c0.03-0.04,0.1-0.04,0.16-0.05
		c0.52-0.13,0.67-0.47,0.45-0.98c-0.21-0.5-0.42-1-0.63-1.51c-0.02-0.05-0.03-0.11-0.06-0.21c0.39,0.17,0.74,0.31,1.08,0.48"/>
</g>
<path class="st4" d="M-174.45-224.81c0.01-0.02,0.01-0.05,0.02-0.06c0.88-0.66,1.75-1.32,2.63-1.98c0.1-0.07,0.22-0.15,0.33-0.15
	c1.15-0.01,2.31-0.01,3.49-0.01c-0.45,1.38-0.87,2.7-1.3,4.01c-0.02,0.07-0.06,0.15-0.12,0.2c-0.69,0.54-1.39,1.08-2.07,1.59
	c-0.63-0.39-1.19-0.75-1.77-1.09c-0.23-0.14-0.36-0.32-0.44-0.57C-173.9-223.52-174.15-224.17-174.45-224.81z"/>
<circle class="st4" cx="-157.33" cy="-229.38" r="8.18"/>
<path class="st1" d="M-149.29-237.01l-0.29,1.57c-0.03,0.09-0.01,0.21-0.01,0.33c0.03-0.07,0.05-0.13,0.08-0.18
	c0.26-0.7,0.44-1.43,0.63-2.15c0.01-0.03,0.01-0.07-0.01-0.1c-0.1-0.17-0.24-0.31-0.35-0.46c-0.12-0.16-0.28-0.31-0.4-0.47
	c-0.26-0.33-0.56-0.61-0.84-0.91c0.02,0.09,0.07,0.17,0.11,0.25l1.09,1.58c0.03,0.04,0.13,0.09,0.09,0.18
	C-149.25-237.27-149.26-237.14-149.29-237.01z"/>
<text transform="matrix(1 0 0 1 -142.4346 -226.0604)" style="fill:#262626; font-family:'BronxRegular'; font-size:8.8445px;">Amal Tadrib</text>
<text transform="matrix(1 0 0 1 -145.0665 -215.7542)" style="fill:#262626; font-family:'GESSUniqueLight-Light'; font-size:10.7603px;">بيردت لـــــمأ</text>
<path class="st3" d="M-149.16-211.68c0.03,0,0.06,0,0.09-0.01c0.08-0.03,0.14-0.09,0.17-0.18l1.56-5.43c0.02-0.05,0.01-0.11,0-0.16
	l-0.75-2.13c-0.05-0.13-0.18-0.21-0.32-0.18c-0.15,0.04-0.24,0.2-0.19,0.34l0.72,2.06l-0.64,2.21c-0.39,1.36-2.01,1.93-3.16,1.11
	l-1.87-1.33l-1.95-5.59c-0.42-1.19-1.37-2.13-2.55-2.51c-2.38-0.76-4.22-2.55-5.04-4.9c-1.42-4.06,0.72-8.55,4.76-10.01
	c4.08-1.47,8.61,0.65,10.08,4.73c0.85,2.36,0.55,4.92-0.83,7.02c-0.7,1.06-0.87,2.4-0.45,3.58l0.29,0.84
	c0.05,0.15,0.05,0.32-0.01,0.47c-0.07,0.16-0.2,0.28-0.36,0.34l-2,0.7c-0.08,0.03-0.17-0.01-0.2-0.1l-2.25-6.43
	c-0.05-0.13-0.18-0.21-0.32-0.19c-0.14,0.02-0.24,0.14-0.24,0.28c-0.01,0.39-0.15,0.77-0.41,1.07c-0.31,0.36-0.74,0.57-1.22,0.6
	c-0.47,0.02-0.93-0.15-1.27-0.48c-0.61-0.59-0.68-1.58-0.17-2.25c0.46-0.6,1.23-0.83,1.94-0.57c0.56,0.21,1.34,0.45,1.43,0.47
	c0.87,0.31,1.85,0.05,2.45-0.65c0.4-0.47,0.59-1.09,0.52-1.7c-0.07-0.62-0.38-1.17-0.88-1.54c-0.9-0.68-2.21-0.56-2.98,0.27
	c-0.42,0.45-0.63,1.03-0.59,1.64c0.01,0.14,0.12,0.26,0.26,0.26c0.16,0,0.28-0.13,0.27-0.28c-0.03-0.47,0.13-0.92,0.45-1.26
	c0.59-0.63,1.58-0.72,2.27-0.21c0.38,0.29,0.62,0.71,0.67,1.18c0.05,0.47-0.09,0.93-0.4,1.29c-0.46,0.54-1.21,0.74-1.88,0.5
	c0,0-0.01,0-0.01,0c-0.01,0-0.84-0.26-1.41-0.47c-0.92-0.33-1.94-0.03-2.54,0.75c-0.68,0.9-0.59,2.17,0.22,2.95
	c0.45,0.43,1.04,0.66,1.66,0.63c0.61-0.03,1.19-0.31,1.59-0.78c0.14-0.17,0.26-0.35,0.34-0.55l1.97,5.64
	c0.12,0.36,0.52,0.55,0.87,0.42l1.98-0.69c0.27-0.09,0.51-0.28,0.65-0.53c0.16-0.29,0.19-0.63,0.08-0.94l-0.3-0.86
	c-0.36-1.03-0.21-2.2,0.4-3.12c1.48-2.24,1.8-4.97,0.89-7.49c-1.57-4.35-6.4-6.62-10.76-5.05c-2.21,0.79-3.95,2.44-4.88,4.61
	c-0.84,1.96-0.9,4.16-0.17,6.17c0.89,2.46,2.84,4.33,5.34,5.14c1.02,0.33,1.85,1.14,2.21,2.18l1.98,5.67
	c0.02,0.05,0.05,0.1,0.1,0.13l4.61,3.27C-149.27-211.7-149.22-211.68-149.16-211.68z"/>
</svg>
