<?xml version="1.0" encoding="utf-8"?>
<!-- Generator: Adobe Illustrator 24.2.0, SVG Export Plug-In . SVG Version: 6.00 Build 0)  -->
<svg version="1.1" id="Calque_1" xmlns="http://www.w3.org/2000/svg" xmlns:xlink="http://www.w3.org/1999/xlink" x="0px" y="0px"
	 viewBox="0 0 101.2 40.3" style="enable-background:new 0 0 101.2 40.3;" xml:space="preserve">
<style type="text/css">
	.st0{fill:#262626;}
	.st1{fill:#FFD767;}
	.st2{fill:#FFFFFF;}
	.st3{fill:#383938;}
	.st4{fill:#F08000;}
	.st5{fill:#009A87;}
</style>
<g>
	<path class="st0" d="M4.9,23.9l-0.1-0.3c0,0,0,0,0,0H4.3c0,0,0,0,0,0L1.9,30c0,0,0,0,0,0l0,0H3c0,0,0,0,0,0l0.5-1.3h2L6,30
		c0,0,0,0,0,0h1.1c0,0,0,0,0,0c0,0,0,0,0,0l-2-5.5L4.9,23.9z M3.9,27.7L4.5,26l0.6,1.7H3.9z"/>
	<path class="st0" d="M13.2,23.6C13.2,23.6,13.2,23.6,13.2,23.6l-2.3,4.6l-2.2-4.3l-0.2-0.3c0,0,0,0,0,0H8c0,0,0,0,0,0V30
		c0,0,0,0,0,0h1c0,0,0,0,0,0v-3l1.2,2.3l0.3,0.7c0,0,0,0,0,0h0.5c0,0,0,0,0,0l0.3-0.7l1.2-2.3v3c0,0,0,0,0,0h1c0,0,0,0,0,0v-6.4
		c0,0,0,0,0,0H13.2z"/>
	<path class="st0" d="M17.6,23.9l-0.1-0.3c0,0,0,0,0,0H17c0,0,0,0,0,0L14.6,30c0,0,0,0,0,0l0,0h1.1c0,0,0,0,0,0l0.5-1.3h2l0.5,1.3
		c0,0,0,0,0,0h1.1c0,0,0,0,0,0c0,0,0,0,0,0l-2-5.5L17.6,23.9z M16.6,27.7l0.6-1.7l0.6,1.7H16.6z"/>
	<path class="st0" d="M21.8,29v-5.4c0,0,0,0,0,0h-1c0,0,0,0,0,0V30c0,0,0,0,0,0h4.6c0,0,0,0,0,0v-1c0,0,0,0,0,0H21.8z"/>
	<path class="st0" d="M34.5,24.6v-1c0,0,0,0,0,0h-5.2c0,0,0,0,0,0v1c0,0,0,0,0,0h2.1V30c0,0,0,0,0,0h1c0,0,0,0,0,0v-5.4L34.5,24.6
		C34.5,24.7,34.5,24.6,34.5,24.6z"/>
	<path class="st0" d="M36.5,23.9l-0.1-0.3c0,0,0,0,0,0h-0.4c0,0,0,0,0,0L33.5,30c0,0,0,0,0,0l0,0h1.1c0,0,0,0,0,0l0.5-1.3h2l0.5,1.3
		c0,0,0,0,0,0h1.1c0,0,0,0,0,0c0,0,0,0,0,0l-2-5.5L36.5,23.9z M35.5,27.7l0.6-1.7l0.6,1.7H35.5z"/>
	<path class="st0" d="M42,23.6h-2.3c0,0,0,0,0,0V30c0,0,0,0,0,0H42c1.8,0,3.2-1.5,3.2-3.2C45.2,25,43.7,23.6,42,23.6z M42,29h-1.3
		v-4.3H42c1.2,0,2.2,1,2.2,2.2C44.1,28,43.2,29,42,29z"/>
	<path class="st0" d="M51.2,25.9c0-1.3-1-2.3-2.3-2.3H46c0,0,0,0,0,0V30c0,0,0,0,0,0h1l0,0c0,0,0,0,0,0v-1.8h1.6
		c0.1,0,0.2,0,0.3,0.1l1.3,1.3v0c0.3,0.3,0.6,0.4,1,0.4c0,0,0,0,0,0v-1c0,0,0,0,0,0c-0.1,0-0.2,0-0.3-0.1l-0.9-0.9
		C50.8,27.5,51.2,26.8,51.2,25.9z M48.9,27.2h-1.8v-2.5h1.8c0.7,0,1.3,0.6,1.3,1.3C50.2,26.6,49.6,27.2,48.9,27.2z"/>
	<path class="st0" d="M52.1,23.6C52.1,23.6,52.1,23.6,52.1,23.6l0,6.4c0,0,0,0,0,0h1c0,0,0,0,0,0v-6.4c0,0,0,0,0,0H52.1z"/>
	<path class="st0" d="M57.4,23.6h-3.3c0,0,0,0,0,0V30c0,0,0,0,0,0h3.3c1,0,1.9-0.8,1.9-1.9c0-0.5-0.2-1-0.6-1.4
		c0.4-0.3,0.6-0.8,0.6-1.3C59.3,24.4,58.4,23.6,57.4,23.6z M57.4,29h-2.3v-1.6h2.3c0.4,0,0.8,0.4,0.8,0.8C58.2,28.6,57.8,29,57.4,29
		z M57.4,26.3h-2.3v-1.6h2.3c0.4,0,0.8,0.4,0.8,0.8C58.2,25.9,57.8,26.3,57.4,26.3z"/>
	<path class="st0" d="M7.1,22.2c-0.1-0.1-0.1-0.1-0.2-0.2c-0.1,0-0.2,0-0.3,0s-0.2,0-0.3,0c-0.1,0-0.2,0.1-0.2,0.2
		C6,22.3,6,22.4,5.9,22.4c0,0.1-0.1,0.2-0.1,0.3c0,0.1,0,0.2,0.1,0.3s0.1,0.2,0.2,0.2c0.1,0.1,0.1,0.1,0.2,0.2s0.2,0,0.3,0
		c0.2,0,0.4-0.1,0.5-0.2s0.2-0.3,0.2-0.5c0-0.1,0-0.2-0.1-0.3C7.2,22.4,7.1,22.3,7.1,22.2z"/>
	<path class="st0" d="M6.1,20.9c2.4,0,3.8-0.4,4.4-1.1c0.2,0.5,0.6,0.7,1.2,0.7v0h0.2h0.2h0.3c0.7,0,1.2-0.2,1.6-0.6
		c0.4-0.4,0.6-0.9,0.6-1.6c0-1-0.3-1.5-0.8-1.5c-0.2,0-0.3,0.1-0.4,0.2c-0.1,0.1-0.2,0.3-0.2,0.4c0,0.1,0,0.1,0,0.2
		c0,0.1,0,0.2,0.1,0.3c0.1,0.2,0.1,0.4,0.1,0.5c0,0.4-0.3,0.6-0.9,0.6h-0.4h0c-0.6,0-0.9-0.2-1-0.7c-0.1-0.3-0.1-0.5-0.1-0.5
		c-0.1-0.2-0.2-0.3-0.4-0.3c-0.2,0-0.3,0.1-0.5,0.4c-0.2,0.4-0.3,0.6-0.3,0.7c-0.4,0.5-1.3,0.7-2.9,0.7H6.2c-1.1,0-1.8-0.1-2.2-0.4
		c-0.3-0.2-0.4-0.4-0.4-0.8c0-0.1,0-0.3,0.1-0.5c0-0.1,0-0.2,0-0.3s0-0.1,0-0.2c0-0.3-0.2-0.5-0.5-0.5c-0.3,0-0.5,0.2-0.7,0.7
		c-0.1,0.3-0.2,0.7-0.2,1.1C2.4,20.2,3.7,20.9,6.1,20.9z"/>
	<path class="st0" d="M13,21.7c-0.1,0-0.2,0-0.3,0c-0.1,0-0.2,0.1-0.2,0.1c-0.1,0.1-0.1,0.1-0.2,0.2c0,0.1-0.1,0.2-0.1,0.3
		c0,0.1,0,0.2,0.1,0.3c0,0.1,0.1,0.2,0.2,0.2s0.1,0.1,0.2,0.2c0.1,0,0.2,0.1,0.3,0.1s0.2,0,0.3-0.1c0.1,0,0.2-0.1,0.2-0.2
		c0.1-0.1,0.1-0.1,0.2-0.2s0.1-0.2,0.1-0.3c0-0.2-0.1-0.4-0.2-0.5C13.4,21.8,13.2,21.7,13,21.7z"/>
	<path class="st0" d="M15,23.1c0.1,0,0.2-0.1,0.2-0.2c0.1-0.1,0.1-0.1,0.2-0.2c0-0.1,0.1-0.2,0.1-0.3c0-0.1,0-0.2-0.1-0.3
		s-0.1-0.2-0.2-0.2c-0.1-0.1-0.1-0.1-0.2-0.1c-0.1,0-0.2,0-0.3,0c-0.2,0-0.4,0.1-0.5,0.2c-0.1,0.1-0.2,0.3-0.2,0.5
		c0,0.1,0,0.2,0.1,0.3c0,0.1,0.1,0.2,0.2,0.2s0.1,0.1,0.2,0.1c0.1,0,0.2,0.1,0.3,0.1C14.9,23.1,15,23.1,15,23.1z"/>
	<path class="st0" d="M19.9,16.8c-0.4,0-0.6,0.3-0.6,1c0,0.1,0,0.2,0,0.4c0,0.2,0,0.3,0,0.4c0,0.7-0.2,1.3-0.6,1.7
		c-0.3,0.4-1,0.8-2,1.2c-0.4,0.2-0.6,0.4-0.6,0.7c0,0.4,0.2,0.5,0.6,0.5c0.1,0,0.2,0,0.3,0c1.1-0.3,2-0.8,2.6-1.6
		c0.7-0.8,1-1.7,1-2.8c0-0.2,0-0.3,0-0.5C20.6,17.2,20.3,16.8,19.9,16.8z"/>
	<path class="st0" d="M27.6,15.8c0.1,0.1,0.1,0.1,0.2,0.1C28,16,28,16,28.1,16s0.2,0,0.3-0.1c0.1,0,0.2-0.1,0.2-0.1
		c0.1-0.1,0.1-0.1,0.2-0.2c0-0.1,0.1-0.2,0.1-0.3s0-0.2-0.1-0.3s-0.1-0.2-0.2-0.2c-0.1-0.1-0.1-0.1-0.2-0.1c-0.1,0-0.2-0.1-0.3-0.1
		s-0.2,0-0.3,0.1c-0.1,0-0.2,0.1-0.2,0.1c-0.1,0.1-0.1,0.1-0.2,0.2s-0.1,0.2-0.1,0.3s0,0.2,0.1,0.3C27.5,15.7,27.6,15.7,27.6,15.8z"
		/>
	<path class="st0" d="M29.4,15.8c0.1,0.1,0.1,0.1,0.2,0.1c0.1,0,0.2,0.1,0.3,0.1s0.2,0,0.3-0.1s0.2-0.1,0.2-0.1
		c0.1-0.1,0.1-0.1,0.2-0.2c0-0.1,0.1-0.2,0.1-0.3c0-0.2-0.1-0.4-0.2-0.5c-0.1-0.1-0.3-0.2-0.5-0.2c-0.1,0-0.2,0-0.3,0.1
		c-0.1,0-0.2,0.1-0.2,0.1c-0.1,0.1-0.1,0.1-0.2,0.2c0,0.1-0.1,0.2-0.1,0.3s0,0.2,0.1,0.3C29.3,15.7,29.3,15.7,29.4,15.8z"/>
	<path class="st0" d="M29.9,18.3c0-1-0.3-1.5-0.8-1.5c-0.2,0-0.3,0.1-0.4,0.2c-0.1,0.1-0.2,0.3-0.2,0.4c0,0.1,0,0.1,0,0.2
		c0,0.1,0,0.2,0.1,0.3c0.1,0.2,0.1,0.4,0.1,0.5c0,0.4-0.3,0.6-0.9,0.6h-0.4h-0.1c-0.3,0-0.6-0.1-0.8-0.3c-0.1-0.1-0.3-0.4-0.5-0.8
		c-0.8-1.5-1.3-2.2-1.6-2.3c0,0-0.1,0-0.2,0c-0.4,0-0.6,0.2-0.6,0.6c0,0.2,0.1,0.5,0.3,0.8c0.1,0.2,0.3,0.4,0.4,0.5
		c0.1,0.2,0.2,0.3,0.2,0.3c0.2,0.4,0.3,0.6,0.4,0.8c0,0,0,0,0,0c0,0,0,0,0,0c0,0.4-0.8,0.6-2.3,0.7c-0.6,0-0.8,0.2-0.8,0.6
		c0,0,0,0,0,0c0,0,0,0,0,0c0,0.5,0.4,0.7,1.2,0.7c0.3,0,0.7,0,1.2-0.1c0.9-0.2,1.4-0.5,1.7-0.9c0.2,0.3,0.6,0.5,1.2,0.5v0h0.2h0.2
		h0.3c0.7,0,1.2-0.2,1.6-0.6C29.7,19.5,29.9,19,29.9,18.3z"/>
	<path class="st0" d="M55.7,20.2c0.2-0.3,0.4-0.7,0.4-1.1c0-0.5-0.1-0.9-0.3-1.2c-0.3-0.4-0.6-0.6-1.1-0.6c-0.4,0-0.8,0.2-1.2,0.6
		c0,0-0.1,0.1-0.2,0.3s-0.2,0.3-0.4,0.5c-0.2,0.2-0.3,0.3-0.4,0.4c-0.1,0.1-0.3,0.1-0.6,0.1h-0.1h-0.4h-3H48h-3h-0.4h-3h0
		c-0.7,0-1.1-0.5-1.1-1.6v-3.8c0-0.5-0.2-0.7-0.6-0.7c-0.2,0-0.4,0.1-0.5,0.2c-0.1,0.1-0.2,0.3-0.2,0.5l0.2,6c0,0.6-0.1,1.1-0.4,1.5
		c-0.3,0.4-0.8,0.6-1.4,0.6c-0.5,0-0.9-0.1-1.2-0.4c-0.3-0.2-0.5-0.6-0.5-1c0-0.1,0-0.3,0.1-0.6s0.1-0.5,0.1-0.6
		c0-0.3-0.2-0.5-0.5-0.5c-0.3,0-0.5,0.2-0.7,0.7c-0.1,0.4-0.2,0.8-0.2,1.2c0,0.8,0.2,1.4,0.7,1.9s1.1,0.7,1.9,0.7
		c1,0,1.8-0.3,2.3-0.9c0.5-0.5,0.7-1.3,0.8-2.3c0.1,0.3,0.4,0.4,0.7,0.5v0h0.2h0.2h3H45h3h0.4h3h0.4h0.2c0.5,0,0.8-0.2,1.2-0.5
		c0.3,0.4,0.8,0.6,1.4,0.6C55.1,20.7,55.5,20.5,55.7,20.2z M54.2,19.4c-0.2-0.1-0.3-0.2-0.3-0.3c0-0.2,0.1-0.3,0.2-0.5
		c0.2-0.2,0.3-0.2,0.5-0.2c0.2,0,0.3,0.1,0.4,0.2c0.1,0.1,0.1,0.3,0.1,0.5c0,0.3-0.2,0.5-0.5,0.5C54.5,19.5,54.3,19.5,54.2,19.4z"/>
	<path class="st0" d="M58.7,20.7c0.4,0,0.5-0.2,0.5-0.7v-6.1c0-0.6-0.2-0.9-0.6-0.9c-0.2,0-0.4,0.1-0.5,0.4
		c-0.1,0.2-0.2,0.4-0.1,0.7l0.2,6.1C58.2,20.5,58.4,20.7,58.7,20.7z"/>
	<path class="st0" d="M59.6,11.5c-0.1,0-0.1,0-0.2,0c-0.5,0.1-0.7,0.2-0.7,0.2c-0.5,0-0.7-0.1-0.7-0.4c0-0.3,0.2-0.4,0.5-0.4
		c0.1,0,0.2,0,0.3,0c0.1,0,0.2,0,0.3,0c0.2,0,0.2-0.1,0.2-0.2s-0.1-0.3-0.3-0.4c-0.2-0.1-0.3-0.1-0.5-0.1c-0.3,0-0.6,0.1-0.8,0.3
		c-0.2,0.2-0.3,0.5-0.3,0.8c0,0.3,0.1,0.5,0.3,0.7l-0.4,0.1c-0.2,0.1-0.3,0.2-0.3,0.4c0,0.1,0.1,0.2,0.3,0.2c0,0,0.1,0,0.2,0
		l2.1-0.7c0.3-0.1,0.4-0.2,0.4-0.4C59.9,11.5,59.8,11.5,59.6,11.5z"/>
</g>
<g>
	<g>
		<g>
			<path class="st1" d="M78.9,21.7c-0.1-0.3-0.3-0.6-0.3-0.9c0.1-0.4-0.1-0.4-0.4-0.5c-0.4-0.1-0.8-0.1-1.2-0.2
				c0.1-0.3,0.1-0.5,0.3-0.8c0.2-0.4,0-0.7-0.2-1c-0.2-0.2-0.5-0.5-0.7-0.7c0.2-0.1,0.3-0.1,0.4-0.2c0.8-0.5,0.8-0.5,0.6-1.4
				c0-0.3-0.1-0.6-0.1-0.9c0.5,0,0.9,0,1.4,0.1c0.4,0.1,0.6-0.1,0.8-0.4c0.1-0.2,0.2-0.5,0.4-0.8c0.4,0.3,0.8,0.6,1.1,0.8
				c0.2,0.2,0.5,0.2,0.8,0.1c0.2-0.1,0.5-0.2,0.8-0.4c0.1,0.3,0.1,0.5,0.2,0.8c0.1,0.5,0.4,0.7,0.9,0.7c0.3,0,0.5,0,0.9,0
				c-0.2,0.4-0.3,0.7-0.4,1c-0.2,0.4-0.1,0.6,0.2,0.8c0.3,0.2,0.5,0.4,0.8,0.7c-0.3,0.3-0.5,0.5-0.8,0.6c-0.5,0.2-0.5,0.6-0.5,1
				c0,0.3,0.1,0.5,0.1,0.8c-0.5,0.1-1-0.3-1.4,0.2c-0.3,0.4-0.5,0.8-0.8,1.3c-0.2-0.2-0.5-0.4-0.7-0.7c-0.3-0.5-0.4-0.5-0.9-0.3
				C79.6,21.4,79.3,21.6,78.9,21.7z"/>
			<path class="st1" d="M86.1,16.1c0.7,0.1,1.3,0.2,2,0.2c0,0,0,0.1,0,0.1c-0.8,0.4-1.6,0.9-2.4,1.3c0,0-0.2,0-0.2,0
				c-0.5-0.4-0.5-0.5-0.3-1c0,0,0-0.1,0-0.1C85.5,16.1,85.5,16.1,86.1,16.1z"/>
			<path class="st1" d="M84.9,14.6c-0.1,0.3-0.3,0.4-0.7,0.4c-0.7-0.1-0.7-0.1-0.8-0.9c0-0.2,0-0.3,0.2-0.4c0.5-0.2,0.9-0.5,1.4-0.8
				c0.3-0.2,0.5-0.3,0.8-0.5c0,0,0.1,0,0.1,0.1C85.6,13.2,85.3,13.9,84.9,14.6z"/>
			<path class="st1" d="M86,15.1c0,0,0.1-0.1,0.1-0.2c0.3-0.6,0.6-1.2,0.9-1.8c0.3-0.5,0.5-1,0.8-1.5c0-0.1,0.1-0.2,0.2-0.2
				c0.9-0.6,1.8-1.2,2.8-1.8c0.5,0.5,0.9,1,1.3,1.5c0.1,0.1,0.1,0.2,0.2,0.3c0.2,0.8,0.3,1.7,0.4,2.5c0,0,0,0-0.1,0.1
				c-1,0.5-1.9,1-2.9,1.5c-0.1,0-0.2,0.1-0.3,0.1C88.3,15.4,87.2,15.3,86,15.1z"/>
			<path class="st1" d="M90.1,16.6c0.9,0.1,1.7,0.2,2.6,0.3c0.3,0,0.7,0.1,1.1,0.1c0.1,0.7,0.2,1.3,0.3,2c0,0.1,0,0.2,0,0.3
				c-0.6,0.8-0.9,1.7-1.2,2.7c-0.1,0-0.2,0-0.2,0c-0.9-0.1-1.8-0.2-2.6-0.4c-0.2,0-0.4-0.2-0.6-0.3c-0.5-0.5-1.1-1-1.6-1.5
				c-0.4-0.4-0.8-0.8-1.1-1.1c1-0.7,2.1-1.4,3.1-2C89.8,16.6,90,16.6,90.1,16.6z"/>
			<path class="st1" d="M87.6,21.2C87.6,21.3,87.6,21.3,87.6,21.2c-0.9,0-1.8-0.1-2.6-0.3c-0.1,0-0.2-0.1-0.2-0.1
				c-0.1-0.4-0.2-0.8-0.3-1.1c0.3-0.1,0.5-0.3,0.8-0.4c0.1,0,0.2,0,0.3,0C86.3,19.9,87,20.6,87.6,21.2z"/>
			<path class="st1" d="M84.5,24.9L84.5,24.9c-0.7-0.5-1.3-1.1-2-1.7c-0.1-0.1-0.1-0.2-0.1-0.3c0.1-0.4,0.2-0.8,0.3-1.2
				c0.3,0,0.6,0.1,0.9,0.1c0.1,0,0.2,0.1,0.2,0.2C84.1,23,84.3,23.9,84.5,24.9z"/>
			<path class="st1" d="M82.1,13.3c-0.2,0.1-0.5,0.3-0.7,0.4c-0.2-0.2-0.4-0.4-0.6-0.6c-0.4-0.4-0.4-0.4-0.2-0.9
				c0.1-0.2,0.2-0.5,0.3-0.7c0.2-0.5,0.5-1,0.8-1.6c0.2,1.1,0.4,2.1,0.5,3.1C82.2,13.2,82.2,13.3,82.1,13.3z"/>
			<path class="st1" d="M76.3,4.6c-0.1,0.2-0.3,0.2-0.4,0.3c-0.3,0.2-0.6,0.3-0.9,0.5c-0.2,0.2-0.4,0.4-0.3,0.8
				c0.2,0.6,0.3,1.2,0.5,1.9c-0.1,0-0.1,0-0.1,0.1c-0.2-0.2-0.5-0.5-0.8-0.7c-0.3-0.3-0.7-0.5-1-0.8c-0.3-0.2-0.5-0.2-0.8,0.1
				c-0.3,0.3-0.7,0.6-1,0.8c0,0-0.1-0.1-0.1-0.1C71.6,7,71.8,6.5,72,6.1c0.2-0.3,0.3-0.4,0.1-0.8c-0.3-0.3-0.6-0.6-0.9-1
				c-0.1-0.1-0.3-0.3-0.4-0.5c0.3,0,0.5,0,0.8,0.1c0.4,0.1,0.8,0.1,1.2,0.1c0.3,0,0.5-0.1,0.6-0.5c0.2-0.5,0.4-0.9,0.7-1.3
				c0.2,0.6,0.3,1.1,0.5,1.6c0.1,0.3,0.3,0.4,0.6,0.4C75.5,4.4,75.9,4.5,76.3,4.6z"/>
			<path class="st1" d="M78,4.9c0.9,0.1,1.9,0.2,2.8,0.3c0.2,0.9,0.3,1.9,0.5,2.9c0,0.2,0,0.5-0.1,0.7c-0.5,1.1-1,2.1-1.5,3.2
				c0,0-0.1,0.1-0.1,0.1c-0.1-0.1-0.2-0.2-0.3-0.3c-0.9-0.8-1.8-1.7-2.8-2.5c-0.2-0.2-0.4-0.5-0.4-0.8C76,7.7,75.8,6.9,75.7,6
				c0.6-0.3,1.3-0.7,2-1.1C77.8,4.9,77.9,4.9,78,4.9z"/>
			<path class="st1" d="M84.9,4.7c-0.5-0.1-0.9-0.1-1.3-0.2c-0.2,0-0.5,0.1-0.6,0.3c-0.1,0.4-0.3,0.8-0.5,1.1
				c-0.1,0.3-0.3,0.5-0.4,0.9c-0.2-0.8-0.4-1.4-0.5-2c-0.1-0.6,0-0.6-0.6-0.7c-0.5-0.1-1-0.1-1.5-0.2c0,0,0-0.1,0-0.1
				c0.9-0.5,1.9-1.1,2.9-1.6c0.1,0,0.2,0,0.2,0.1c0.7,0.7,1.5,1.4,2.2,2.2C84.8,4.6,84.8,4.6,84.9,4.7z"/>
			<path class="st1" d="M87.3,6.8c0.4,0.3,0.8,0.6,1.2,1c-0.1,0.1-0.1,0.2-0.1,0.2c-0.4,0.8-0.9,1.5-1.3,2.3
				c-0.1,0.3-0.3,0.5-0.6,0.6c-0.9,0.4-1.7,0.9-2.5,1.4c-0.2,0.1-0.4,0.2-0.6,0.4c0-0.1,0-0.1-0.1-0.2c-0.3-1.4-0.5-2.7-0.8-4.1
				c0-0.1,0-0.3,0.1-0.4c0.3-0.8,0.7-1.5,1-2.3c0.1-0.2,0.2-0.3,0.4-0.2c0.4,0.1,0.8,0.2,1.2,0.2c0.8,0,1.4,0.2,1.8,0.8
				C87.1,6.6,87.2,6.7,87.3,6.8z"/>
			<path class="st1" d="M93.8,6.8c-0.5,0.3-0.9,0.8-1.4,0.9c-0.6,0.2-0.5,0.6-0.5,1c0,0.2,0,0.4,0,0.7c-0.2-0.1-0.3-0.2-0.3-0.2
				c-0.5-0.4-1-0.5-1.6-0.1c-0.4,0.2-0.8,0.4-1.2,0.6C89,9.1,89.1,8.5,89.4,8c0.2-0.4,0.3-0.5,0-0.9c-0.3-0.4-0.6-0.7-0.9-1.2
				c0.4,0,0.7,0,1,0.1c0.5,0.2,0.8,0.1,1-0.4c0.2-0.4,0.3-0.8,0.6-1.4c0.2,0.5,0.3,0.9,0.4,1.4c0.1,0.4,0.3,0.6,0.7,0.7
				C92.7,6.6,93.2,6.7,93.8,6.8z"/>
			<path class="st1" d="M90.9,22.8c0.7,0,1.4,0,2.1,0.1c0.6,0,0.7-0.1,0.9-0.6c0-0.1,0.1-0.3,0.1-0.4c0.1-0.3,0.2-0.6,0.3-1
				c0.1,0,0.1,0,0.2,0c0.1,0.6,0.1,1.2,0.2,1.8c0,0.2,0.2,0.4,0.4,0.5c0.2,0.1,0.4,0.1,0.7,0.1c0.4,0.1,0.9,0.1,1.4,0.2
				c-0.2,0.1-0.3,0.2-0.4,0.2c-0.4,0.2-0.8,0.4-1.1,0.6c-0.3,0.2-0.4,0.4-0.4,0.7c0.1,0.6,0.2,1.1,0.3,1.7c-0.2-0.1-0.3-0.3-0.5-0.4
				c-1.2-1-0.9-0.9-2.3-0.2c-0.3,0.1-0.6,0.3-1,0.5c0,0-0.1-0.1-0.1-0.1c0.2-0.4,0.5-0.9,0.8-1.2c0.3-0.3,0.4-0.6,0.1-1
				c-0.2-0.3-0.5-0.5-0.8-0.7C91.5,23.4,91.2,23.1,90.9,22.8z"/>
			<path class="st1" d="M85.2,31.3c0.3-0.2,0.5-0.4,0.6-0.5c0.5,0.3,0.7-0.3,0.7-0.3c0-0.3,0-0.6,0-0.8c0-0.3-0.1-0.7-0.2-1.1
				c0.5,0.4,0.9,0.7,1.3,1c0.3,0.2,0.5,0.2,0.8,0c0.3-0.3,0.6-0.5,0.9-0.7c0,0,0.1,0.1,0.1,0.1c-0.2,0.4-0.4,0.8-0.5,1.3
				c-0.2,0.4-0.1,0.6,0.4,0.8c0.1,0,0.2,0.1,0.2,0.1c0.2,0.3,0.4,0.7,0.6,1c-0.2,0-0.7,0-1.1-0.1c-0.4,0-0.7,0.1-0.9,0.4
				c-0.2,0.3-0.5,0.6-0.8,0.9c-0.1-0.5-0.2-0.9-0.3-1.3c-0.1-0.2-0.2-0.4-0.4-0.4c-0.2-0.1-0.5-0.1-0.7-0.2
				C85.7,31.4,85.5,31.3,85.2,31.3z"/>
			<path class="st1" d="M80.8,30.9c0-0.1-0.1-0.3-0.1-0.4c-0.1-0.8-0.2-1.6-0.3-2.4c0-0.3,0-0.6,0.1-0.9c0.4-0.9,0.8-1.9,1.2-2.8
				c0.1-0.1,0.1-0.3,0.2-0.5c0.2,0.2,0.4,0.4,0.6,0.6c0.7,0.7,1.5,1.4,2.2,2.1c0.1,0.1,0.2,0.2,0.2,0.3c0.2,0.9,0.5,1.9,0.7,2.8
				c-0.6,0.4-1.2,0.7-1.8,1c-0.1,0.1-0.3,0.1-0.4,0.1C82.5,31.1,81.7,31,80.8,30.9z"/>
			<path class="st1" d="M96.2,13.2c0.4-0.2,0.7-0.3,1.1-0.5c0,0.1,0,0.2-0.1,0.2c-0.2,0.5-0.4,1-0.7,1.6c-0.2,0.5-0.1,0.9,0.5,1
				c0.1,0,0.1,0,0.2,0.1c0.3,0.4,0.6,0.7,1,1.1c-0.1,0-0.2,0-0.2,0c-0.6-0.1-1.3-0.3-1.9-0.4c-0.5-0.1-0.8,0.2-0.7,0.7
				c0,0.1,0,0.2,0,0.3c-0.2,0.2-0.3,0.5-0.5,0.7c-0.1-0.4-0.3-0.7-0.3-1.1c-0.1-0.4-0.3-0.5-0.6-0.5c-0.8-0.1-1.6-0.3-2.5-0.4
				c0,0,0-0.1,0-0.1c0.5-0.3,1-0.5,1.5-0.8c0,0,0.1-0.1,0.1-0.1c0.1,0,0.2,0.1,0.3,0c0.2-0.2,0.5-0.2,0.7-0.5
				c0.1-0.2-0.1-0.5-0.1-0.7c-0.1-0.4-0.2-0.9-0.3-1.3c0.1,0,0.2,0.1,0.2,0.1c0.5,0.4,1,0.9,1.5,1.2"/>
		</g>
	</g>
	<path class="st1" d="M90.7,26.4c-0.1,0.3-0.2,0.5-0.5,0.6c-0.6,0.3-1.2,0.7-1.8,1.1c-0.7-0.5-1.4-1.1-2.1-1.7
		c-0.1,0-0.1-0.1-0.1-0.2c-0.4-1.4-0.9-2.7-1.3-4.2c1.2,0,2.4,0,3.6,0c0.1,0,0.2,0.1,0.4,0.1c0.9,0.7,1.8,1.4,2.7,2.1c0,0,0,0,0,0.1
		C91.2,25,90.9,25.7,90.7,26.4z"/>
	<circle class="st1" cx="73.7" cy="19.6" r="8.5"/>
	<path class="st2" d="M65.2,11.2c0-0.1,0.1-0.1,0.1-0.2l1.1-1.6c0.1-0.1,0.1-0.2,0.1-0.3c-0.3,0.3-0.6,0.6-0.9,0.9
		c-0.1,0.2-0.3,0.3-0.4,0.5c-0.1,0.2-0.3,0.3-0.4,0.5c0,0,0,0.1,0,0.1c0.2,0.8,0.4,1.5,0.7,2.2c0,0.1,0.1,0.1,0.1,0.2
		c0-0.1,0-0.2,0-0.3l-0.3-1.6C65.3,11.5,65.2,11.3,65.2,11.2z"/>
	<path class="st3" d="M65.3,37.9l4.8-3.4c0.1,0,0.1-0.1,0.1-0.1l2.1-5.9c0.4-1.1,1.2-1.9,2.3-2.3c2.6-0.8,4.6-2.8,5.6-5.4
		c0.8-2.1,0.7-4.4-0.2-6.4c-1-2.3-2.8-4-5.1-4.8c-4.5-1.6-9.6,0.7-11.2,5.3c-1,2.6-0.6,5.5,0.9,7.8c0.6,1,0.8,2.2,0.4,3.2l-0.3,0.9
		c-0.1,0.3-0.1,0.7,0.1,1c0.1,0.3,0.4,0.4,0.7,0.5l2.1,0.7c0.4,0.1,0.8-0.1,0.9-0.4l2-5.9c0.1,0.2,0.2,0.4,0.4,0.6
		c0.4,0.5,1,0.8,1.7,0.8c0.6,0,1.3-0.2,1.7-0.6c0.8-0.8,0.9-2.1,0.2-3.1c-0.6-0.8-1.7-1.1-2.7-0.8c-0.6,0.2-1.5,0.5-1.5,0.5h0
		c-0.7,0.2-1.5,0-1.9-0.5c-0.3-0.4-0.5-0.9-0.4-1.4c0.1-0.5,0.3-0.9,0.7-1.2c0.7-0.5,1.8-0.5,2.4,0.2c0.3,0.4,0.5,0.8,0.5,1.3
		c0,0.2,0.1,0.3,0.3,0.3c0.1,0,0.3-0.1,0.3-0.3c0-0.6-0.2-1.2-0.6-1.7c-0.8-0.9-2.2-1-3.1-0.3c-0.5,0.4-0.8,1-0.9,1.6
		c-0.1,0.6,0.1,1.3,0.5,1.8c0.6,0.7,1.7,1,2.6,0.7c0.1,0,0.9-0.3,1.5-0.5c0.7-0.3,1.6,0,2,0.6c0.5,0.7,0.5,1.7-0.2,2.4
		c-0.4,0.4-0.8,0.5-1.3,0.5c-0.5,0-0.9-0.2-1.3-0.6c-0.3-0.3-0.4-0.7-0.4-1.1c0-0.1-0.1-0.3-0.2-0.3c-0.1,0-0.3,0.1-0.3,0.2
		l-2.3,6.7c0,0.1-0.1,0.1-0.2,0.1l-2.1-0.7c-0.2-0.1-0.3-0.2-0.4-0.4c-0.1-0.2-0.1-0.3,0-0.5l0.3-0.9c0.4-1.2,0.3-2.6-0.5-3.7
		c-1.4-2.2-1.8-4.8-0.9-7.3c1.5-4.2,6.2-6.5,10.5-4.9c4.2,1.5,6.4,6.2,5,10.4c-0.9,2.5-2.8,4.3-5.2,5.1c-1.2,0.4-2.2,1.4-2.7,2.6
		l-2,5.8l-2,1.4c-1.2,0.9-2.9,0.3-3.3-1.2l-0.7-2.3l0.8-2.2c0.1-0.2,0-0.3-0.2-0.4c-0.1,0-0.3,0.1-0.3,0.2L63.3,32
		c0,0.1,0,0.1,0,0.2l1.6,5.7c0,0.1,0.1,0.2,0.2,0.2c0,0,0.1,0,0.1,0C65.2,38,65.3,38,65.3,37.9z"/>
</g>
<g>
	<path class="st4" d="M-163.3-263.8c-0.5-0.2-0.6-0.1-0.9,0.3c-0.2,0.3-0.5,0.5-0.7,0.7c-0.2-0.4-0.4-0.9-0.7-1.2
		c-0.4-0.5-0.9-0.1-1.4-0.2c0-0.2,0.1-0.5,0.1-0.7c0-0.4,0-0.8-0.4-1c-0.3-0.1-0.5-0.4-0.8-0.6c0.3-0.2,0.5-0.5,0.8-0.6
		c0.2-0.2,0.3-0.4,0.2-0.8c-0.1-0.3-0.3-0.6-0.4-1c0.3,0,0.6,0,0.8,0c0.5,0,0.8-0.2,0.9-0.7c0.1-0.2,0.1-0.5,0.1-0.7
		c0.3,0.1,0.5,0.2,0.7,0.4c0.3,0.1,0.5,0.1,0.7-0.1c0.4-0.3,0.7-0.5,1.1-0.8c0.1,0.2,0.2,0.5,0.4,0.8c0.2,0.3,0.4,0.5,0.8,0.4
		c0.4-0.1,0.8,0,1.3,0c-0.1,0.3-0.1,0.6-0.1,0.9c-0.1,0.9-0.1,0.9,0.6,1.3c0.1,0.1,0.2,0.1,0.4,0.2c-0.2,0.2-0.4,0.5-0.7,0.7
		c-0.3,0.3-0.4,0.6-0.2,1c0.1,0.2,0.2,0.5,0.2,0.8c-0.4,0.1-0.8,0.1-1.2,0.2c-0.2,0-0.4,0.1-0.4,0.5c0,0.3-0.2,0.6-0.3,0.9
		C-162.7-263.5-163-263.7-163.3-263.8z"/>
	<path class="st4" d="M-168.5-268.3c0,0,0,0.1,0.1,0.1c0.2,0.5,0.2,0.6-0.3,1c-0.1,0-0.1,0.1-0.2,0c-0.8-0.4-1.5-0.8-2.3-1.2
		c0,0,0-0.1,0-0.1c0.6-0.1,1.3-0.2,1.9-0.2C-168.7-268.8-168.7-268.8-168.5-268.3z"/>
	<path class="st4" d="M-169.1-272.2C-169.1-272.2-169.1-272.2-169.1-272.2c0.3,0.1,0.6,0.2,0.9,0.4c0.4,0.3,0.9,0.5,1.3,0.8
		c0.2,0.1,0.2,0.2,0.2,0.4c-0.1,0.7-0.1,0.7-0.8,0.8c-0.3,0.1-0.5,0-0.6-0.3C-168.5-270.9-168.8-271.5-169.1-272.2z"/>
	<path class="st4" d="M-172.5-269.3c-0.1,0-0.2,0-0.3-0.1c-0.9-0.5-1.9-1-2.8-1.4c0,0-0.1,0-0.1,0c0.1-0.8,0.3-1.6,0.4-2.4
		c0-0.1,0.1-0.2,0.1-0.3c0.4-0.5,0.9-1,1.3-1.5c0.9,0.6,1.8,1.2,2.7,1.7c0.1,0,0.1,0.1,0.2,0.2c0.3,0.5,0.5,1,0.8,1.5
		c0.3,0.6,0.6,1.2,0.8,1.8c0,0.1,0.1,0.1,0.1,0.2C-170.3-269.6-171.4-269.4-172.5-269.3z"/>
	<path class="st4" d="M-172.7-268.2c1,0.6,2,1.3,3,1.9c-0.4,0.3-0.7,0.7-1.1,1.1c-0.5,0.5-1,1-1.5,1.4c-0.1,0.1-0.4,0.2-0.6,0.3
		c-0.8,0.1-1.7,0.3-2.5,0.4c-0.1,0-0.1,0-0.2,0c-0.3-0.9-0.6-1.8-1.1-2.6c-0.1-0.1-0.1-0.2,0-0.3c0.1-0.6,0.2-1.2,0.3-1.9
		c0.3,0,0.7-0.1,1-0.1c0.8-0.1,1.6-0.2,2.5-0.3C-173-268.3-172.8-268.3-172.7-268.2z"/>
	<path class="st4" d="M-168.9-265.7c0.1,0,0.2-0.1,0.3,0c0.2,0.1,0.5,0.2,0.8,0.4c-0.1,0.4-0.2,0.7-0.3,1.1c0,0.1-0.1,0.1-0.2,0.1
		c-0.8,0.1-1.7,0.2-2.5,0.3c0,0,0,0,0-0.1C-170.1-264.5-169.5-265.1-168.9-265.7z"/>
	<path class="st4" d="M-167.1-263.1c0-0.1,0.1-0.2,0.2-0.2c0.3,0,0.6-0.1,0.9-0.1c0.1,0.4,0.2,0.8,0.3,1.1c0,0.1-0.1,0.2-0.1,0.2
		c-0.6,0.6-1.2,1.1-1.8,1.7l-0.1,0C-167.6-261.3-167.4-262.2-167.1-263.1z"/>
	<path class="st4" d="M-165.6-271.6c0.2-1,0.3-1.9,0.5-3c0.3,0.6,0.5,1,0.8,1.5c0.1,0.2,0.2,0.4,0.3,0.6c0.2,0.5,0.2,0.5-0.2,0.8
		c-0.2,0.2-0.4,0.4-0.6,0.6c-0.2-0.1-0.5-0.2-0.7-0.4C-165.5-271.5-165.6-271.6-165.6-271.6z"/>
	<path class="st4" d="M-158.6-280.1c0.3,0,0.5-0.1,0.5-0.4c0.2-0.5,0.3-1,0.5-1.6c0.2,0.4,0.5,0.8,0.6,1.2c0.1,0.3,0.3,0.5,0.6,0.4
		c0.4,0,0.7-0.1,1.1-0.1c0.2,0,0.5-0.1,0.7-0.1c-0.1,0.1-0.3,0.3-0.4,0.5c-0.3,0.3-0.6,0.6-0.9,0.9c-0.3,0.3-0.2,0.4,0.1,0.7
		c0.3,0.4,0.4,0.8,0.6,1.2c0,0-0.1,0.1-0.1,0.1c-0.3-0.3-0.7-0.5-1-0.8c-0.2-0.2-0.5-0.2-0.7-0.1c-0.3,0.2-0.6,0.5-1,0.7
		c-0.2,0.2-0.5,0.4-0.7,0.6c0,0-0.1,0-0.1,0c0.1-0.6,0.3-1.2,0.5-1.8c0.1-0.3,0-0.6-0.3-0.7c-0.3-0.2-0.6-0.3-0.9-0.5
		c-0.1-0.1-0.2-0.1-0.4-0.3C-159.5-279.9-159.1-280-158.6-280.1z"/>
	<path class="st4" d="M-161.2-279.5c0.7,0.4,1.3,0.7,1.9,1c-0.1,0.8-0.3,1.6-0.4,2.4c-0.1,0.3-0.2,0.5-0.4,0.8
		c-0.9,0.8-1.8,1.6-2.7,2.4c-0.1,0.1-0.2,0.2-0.3,0.3c0,0-0.1-0.1-0.1-0.1c-0.5-1-1-2-1.4-3.1c-0.1-0.2-0.1-0.5-0.1-0.7
		c0.1-0.9,0.3-1.9,0.5-2.7c0.9-0.1,1.8-0.2,2.7-0.3C-161.4-279.6-161.3-279.5-161.2-279.5z"/>
	<path class="st4" d="M-168-279.9c0.7-0.7,1.4-1.4,2.1-2.1c0.1,0,0.2-0.1,0.2-0.1c0.9,0.5,1.8,1,2.8,1.5c0,0,0,0.1,0,0.1
		c-0.5,0.1-0.9,0.1-1.4,0.2c-0.6,0.1-0.5,0.1-0.6,0.7c-0.1,0.6-0.3,1.2-0.5,2c-0.2-0.3-0.3-0.6-0.4-0.9c-0.2-0.4-0.3-0.7-0.4-1.1
		c-0.1-0.3-0.3-0.3-0.5-0.3c-0.4,0-0.8,0.1-1.2,0.1C-168.1-279.8-168.1-279.9-168-279.9z"/>
	<path class="st4" d="M-170.1-278c0.4-0.6,1-0.8,1.8-0.8c0.4,0,0.7-0.1,1.1-0.2c0.2,0,0.3,0,0.4,0.2c0.3,0.7,0.7,1.5,1,2.2
		c0.1,0.1,0.1,0.2,0.1,0.4c-0.2,1.3-0.5,2.6-0.7,3.9c0,0,0,0.1-0.1,0.1c-0.2-0.1-0.4-0.2-0.6-0.4c-0.8-0.5-1.6-0.9-2.4-1.3
		c-0.3-0.1-0.4-0.3-0.6-0.6c-0.4-0.8-0.8-1.5-1.2-2.2c0-0.1-0.1-0.1-0.1-0.2c0.4-0.3,0.8-0.6,1.1-0.9
		C-170.3-277.8-170.2-277.9-170.1-278z"/>
	<path class="st4" d="M-175.1-278c0.4-0.1,0.6-0.3,0.7-0.7c0.1-0.4,0.2-0.8,0.4-1.3c0.2,0.5,0.4,0.9,0.5,1.3c0.2,0.5,0.4,0.6,1,0.4
		c0.3-0.1,0.6-0.1,1-0.1c-0.3,0.4-0.6,0.8-0.9,1.1c-0.3,0.4-0.2,0.4,0,0.8c0.3,0.5,0.4,1,0.7,1.5c-0.4-0.2-0.8-0.3-1.1-0.5
		c-0.6-0.3-1.1-0.3-1.6,0.2c-0.1,0.1-0.2,0.1-0.3,0.2c0-0.3,0.1-0.5,0-0.7c0-0.4,0.1-0.8-0.5-1c-0.5-0.1-0.9-0.5-1.3-0.9
		C-176.1-277.8-175.6-277.9-175.1-278z"/>
	<path class="st4" d="M-174.8-261.5c-0.2,0.2-0.5,0.4-0.7,0.7c-0.3,0.3-0.2,0.6,0.1,0.9c0.3,0.3,0.5,0.8,0.8,1.1
		c0,0-0.1,0.1-0.1,0.1c-0.3-0.2-0.6-0.3-0.9-0.5c-1.4-0.7-1-0.7-2.2,0.2c-0.1,0.1-0.3,0.2-0.5,0.4c0.1-0.6,0.2-1.1,0.3-1.7
		c0.1-0.3-0.1-0.5-0.4-0.7c-0.4-0.2-0.7-0.4-1.1-0.6c-0.1-0.1-0.3-0.1-0.4-0.2c0.5-0.1,0.9-0.1,1.3-0.2c0.2,0,0.4,0,0.6-0.1
		c0.2-0.1,0.3-0.3,0.4-0.5c0.1-0.6,0.2-1.1,0.2-1.7c0.1,0,0.1,0,0.1,0c0.1,0.3,0.2,0.6,0.4,0.9c0.1,0.1,0.1,0.3,0.1,0.4
		c0.1,0.5,0.3,0.6,0.9,0.6c0.6,0,1.3-0.1,2,0C-174.2-262-174.4-261.8-174.8-261.5z"/>
	<path class="st4" d="M-169.1-254.1c-0.2,0.1-0.5,0.1-0.7,0.2c-0.1,0.1-0.3,0.3-0.3,0.4c-0.1,0.4-0.2,0.8-0.3,1.3
		c-0.3-0.3-0.5-0.6-0.7-0.9c-0.2-0.3-0.5-0.4-0.9-0.4c-0.4,0-0.8,0-1,0.1c0.1-0.3,0.3-0.6,0.5-0.9c0-0.1,0.1-0.1,0.2-0.1
		c0.4-0.1,0.5-0.3,0.4-0.8c-0.1-0.4-0.3-0.8-0.5-1.2c0,0,0.1-0.1,0.1-0.1c0.3,0.2,0.6,0.4,0.9,0.7c0.2,0.2,0.4,0.2,0.7,0
		c0.4-0.3,0.8-0.6,1.3-1c-0.1,0.4-0.1,0.8-0.2,1.1c0,0.3-0.1,0.5,0,0.8c0,0,0.2,0.6,0.7,0.3c0.2,0.1,0.4,0.3,0.6,0.5
		C-168.7-254.1-168.9-254.1-169.1-254.1z"/>
	<path class="st4" d="M-166.7-254.4c-0.1,0-0.3-0.1-0.4-0.1c-0.6-0.3-1.1-0.6-1.7-1c0.2-0.9,0.4-1.8,0.6-2.6c0-0.1,0.1-0.2,0.2-0.3
		c0.7-0.7,1.4-1.4,2.1-2.1c0.2-0.2,0.4-0.4,0.6-0.6c0.1,0.2,0.2,0.3,0.2,0.5c0.4,0.9,0.8,1.8,1.1,2.7c0.1,0.2,0.1,0.5,0.1,0.8
		c-0.1,0.8-0.2,1.5-0.3,2.3c0,0.1-0.1,0.3-0.1,0.4C-165-254.5-165.9-254.4-166.7-254.4z"/>
	<path class="st4" d="M-178-271c0.5-0.4,1-0.8,1.4-1.2c0.1,0,0.1-0.1,0.2-0.1c-0.1,0.4-0.2,0.9-0.3,1.3c-0.1,0.2-0.2,0.5-0.1,0.7
		c0.1,0.2,0.4,0.2,0.6,0.5c0.1,0.1,0.2,0,0.3,0c0,0,0.1,0,0.1,0c0.5,0.2,0.9,0.5,1.4,0.7c0,0,0,0.1,0,0.1c-0.8,0.1-1.6,0.3-2.4,0.4
		c-0.3,0-0.5,0.1-0.6,0.5c-0.1,0.4-0.2,0.7-0.3,1.1c-0.2-0.2-0.4-0.4-0.5-0.7c0-0.1-0.1-0.2,0-0.2c0.1-0.5-0.2-0.8-0.7-0.7
		c-0.6,0.1-1.2,0.2-1.9,0.4c-0.1,0-0.1,0-0.2,0c0.3-0.4,0.6-0.7,0.9-1.1c0,0,0.1,0,0.2,0c0.5-0.1,0.7-0.5,0.4-1
		c-0.2-0.5-0.4-1-0.6-1.5c0,0,0-0.1-0.1-0.2c0.4,0.2,0.7,0.3,1.1,0.5"/>
</g>
<path class="st4" d="M-174.4-260.9C-174.4-260.9-174.4-260.9-174.4-260.9c0.9-0.7,1.8-1.4,2.7-2c0.1-0.1,0.2-0.1,0.3-0.1
	c1.1,0,2.3,0,3.5,0c-0.4,1.4-0.9,2.7-1.3,4c0,0.1-0.1,0.1-0.1,0.2c-0.7,0.5-1.4,1.1-2.1,1.6c-0.6-0.4-1.2-0.8-1.8-1.1
	c-0.2-0.1-0.4-0.3-0.4-0.6C-173.9-259.6-174.1-260.2-174.4-260.9z"/>
<circle class="st4" cx="-157.3" cy="-265.5" r="8.2"/>
<path class="st2" d="M-149.3-273.1l-0.3,1.6c0,0.1,0,0.2,0,0.3c0-0.1,0.1-0.1,0.1-0.2c0.3-0.7,0.4-1.4,0.6-2.1c0,0,0-0.1,0-0.1
	c-0.1-0.2-0.2-0.3-0.4-0.5c-0.1-0.2-0.3-0.3-0.4-0.5c-0.3-0.3-0.6-0.6-0.8-0.9c0,0.1,0.1,0.2,0.1,0.2l1.1,1.6c0,0,0.1,0.1,0.1,0.2
	C-149.2-273.3-149.3-273.2-149.3-273.1z"/>
<text transform="matrix(1 0 0 1 -142.4346 -262.1331)" class="st0" style="font-family:'BronxRegular'; font-size:8.8445px;">Amal Tadrib</text>
<text transform="matrix(1 0 0 1 -145.0665 -251.827)" class="st0" style="font-family:'GESSUniqueLight-Light'; font-size:10.7603px;"> بيردت لـــــمأ</text>
<path class="st3" d="M-149.2-247.8C-149.1-247.8-149.1-247.8-149.2-247.8c0.2,0,0.2-0.1,0.3-0.2l1.6-5.4c0-0.1,0-0.1,0-0.2l-0.8-2.1
	c-0.1-0.1-0.2-0.2-0.3-0.2c-0.1,0-0.2,0.2-0.2,0.3l0.7,2.1l-0.6,2.2c-0.4,1.4-2,1.9-3.2,1.1l-1.9-1.3l-1.9-5.6
	c-0.4-1.2-1.4-2.1-2.6-2.5c-2.4-0.8-4.2-2.5-5-4.9c-1.4-4.1,0.7-8.5,4.8-10c4.1-1.5,8.6,0.6,10.1,4.7c0.9,2.4,0.6,4.9-0.8,7
	c-0.7,1.1-0.9,2.4-0.4,3.6l0.3,0.8c0.1,0.1,0.1,0.3,0,0.5c-0.1,0.2-0.2,0.3-0.4,0.3l-2,0.7c-0.1,0-0.2,0-0.2-0.1l-2.2-6.4
	c-0.1-0.1-0.2-0.2-0.3-0.2c-0.1,0-0.2,0.1-0.2,0.3c0,0.4-0.1,0.8-0.4,1.1c-0.3,0.4-0.7,0.6-1.2,0.6c-0.5,0-0.9-0.1-1.3-0.5
	c-0.6-0.6-0.7-1.6-0.2-2.2c0.5-0.6,1.2-0.8,1.9-0.6c0.6,0.2,1.3,0.5,1.4,0.5c0.9,0.3,1.9,0,2.4-0.6c0.4-0.5,0.6-1.1,0.5-1.7
	c-0.1-0.6-0.4-1.2-0.9-1.5c-0.9-0.7-2.2-0.6-3,0.3c-0.4,0.5-0.6,1-0.6,1.6c0,0.1,0.1,0.3,0.3,0.3c0.2,0,0.3-0.1,0.3-0.3
	c0-0.5,0.1-0.9,0.4-1.3c0.6-0.6,1.6-0.7,2.3-0.2c0.4,0.3,0.6,0.7,0.7,1.2s-0.1,0.9-0.4,1.3c-0.5,0.5-1.2,0.7-1.9,0.5h0
	c0,0-0.8-0.3-1.4-0.5c-0.9-0.3-1.9,0-2.5,0.8c-0.7,0.9-0.6,2.2,0.2,3c0.4,0.4,1,0.7,1.7,0.6c0.6,0,1.2-0.3,1.6-0.8
	c0.1-0.2,0.3-0.4,0.3-0.5l2,5.6c0.1,0.4,0.5,0.5,0.9,0.4l2-0.7c0.3-0.1,0.5-0.3,0.6-0.5c0.2-0.3,0.2-0.6,0.1-0.9l-0.3-0.9
	c-0.4-1-0.2-2.2,0.4-3.1c1.5-2.2,1.8-5,0.9-7.5c-1.6-4.4-6.4-6.6-10.8-5c-2.2,0.8-3.9,2.4-4.9,4.6c-0.8,2-0.9,4.2-0.2,6.2
	c0.9,2.5,2.8,4.3,5.3,5.1c1,0.3,1.9,1.1,2.2,2.2l2,5.7c0,0.1,0.1,0.1,0.1,0.1l4.6,3.3C-149.3-247.8-149.2-247.8-149.2-247.8z"/>
<g>
	<path class="st5" d="M-163.3-227.7c-0.5-0.2-0.6-0.1-0.9,0.3c-0.2,0.3-0.5,0.4-0.7,0.7c-0.2-0.4-0.4-0.9-0.7-1.2
		c-0.4-0.5-0.9-0.1-1.4-0.2c0-0.2,0.1-0.5,0.1-0.7c0-0.4,0-0.8-0.4-0.9c-0.3-0.1-0.5-0.4-0.8-0.6c0.3-0.2,0.5-0.5,0.8-0.6
		c0.2-0.2,0.3-0.4,0.2-0.8c-0.1-0.3-0.3-0.6-0.4-1c0.3,0,0.6,0,0.8,0c0.5,0,0.8-0.2,0.9-0.7c0.1-0.2,0.1-0.5,0.1-0.7
		c0.3,0.1,0.5,0.2,0.7,0.4c0.3,0.1,0.5,0.1,0.7-0.1c0.4-0.3,0.7-0.5,1.1-0.8c0.1,0.2,0.2,0.5,0.4,0.8c0.2,0.3,0.4,0.5,0.8,0.4
		c0.4-0.1,0.8,0,1.3-0.1c-0.1,0.3-0.1,0.6-0.1,0.9c-0.1,0.9-0.1,0.9,0.6,1.3c0.1,0.1,0.2,0.1,0.4,0.2c-0.2,0.2-0.4,0.5-0.7,0.7
		c-0.3,0.3-0.4,0.6-0.2,1c0.1,0.2,0.2,0.5,0.2,0.8c-0.4,0.1-0.8,0.1-1.2,0.2c-0.2,0.1-0.4,0.1-0.4,0.5c0,0.3-0.2,0.6-0.3,0.9
		C-162.7-227.4-163-227.6-163.3-227.7z"/>
	<path class="st5" d="M-168.5-232.2c0,0,0,0.1,0.1,0.1c0.2,0.5,0.2,0.6-0.3,1c-0.1,0-0.1,0.1-0.2,0c-0.8-0.4-1.5-0.8-2.3-1.2
		c0,0,0-0.1,0-0.1c0.6-0.1,1.3-0.2,1.9-0.2C-168.7-232.7-168.7-232.7-168.5-232.2z"/>
	<path class="st5" d="M-169.1-236.1C-169.1-236.1-169.1-236.2-169.1-236.1c0.3,0.1,0.6,0.2,0.9,0.4c0.4,0.3,0.9,0.5,1.3,0.8
		c0.2,0.1,0.2,0.2,0.2,0.4c-0.1,0.7-0.1,0.7-0.8,0.8c-0.3,0.1-0.5,0-0.6-0.3C-168.5-234.8-168.8-235.5-169.1-236.1z"/>
	<path class="st5" d="M-172.5-233.2c-0.1,0-0.2,0-0.3-0.1c-0.9-0.5-1.9-1-2.8-1.4c0,0-0.1,0-0.1-0.1c0.1-0.8,0.3-1.6,0.4-2.4
		c0-0.1,0.1-0.2,0.1-0.3c0.4-0.5,0.9-1,1.3-1.5c0.9,0.6,1.8,1.2,2.7,1.7c0.1,0.1,0.1,0.1,0.2,0.2c0.3,0.5,0.5,1,0.8,1.5
		c0.3,0.6,0.6,1.2,0.8,1.8c0,0.1,0.1,0.1,0.1,0.2C-170.3-233.5-171.4-233.4-172.5-233.2z"/>
	<path class="st5" d="M-172.7-232.1c1,0.6,2,1.3,3,1.9c-0.4,0.3-0.7,0.7-1.1,1.1c-0.5,0.5-1,1-1.5,1.4c-0.1,0.1-0.4,0.2-0.6,0.3
		c-0.8,0.1-1.7,0.3-2.5,0.4c-0.1,0-0.1,0-0.2,0c-0.3-0.9-0.6-1.8-1.1-2.6c-0.1-0.1-0.1-0.2,0-0.3c0.1-0.6,0.2-1.2,0.3-1.9
		c0.3,0,0.7-0.1,1-0.1c0.8-0.1,1.6-0.2,2.5-0.3C-173-232.2-172.8-232.2-172.7-232.1z"/>
	<path class="st5" d="M-168.9-229.6c0.1-0.1,0.2-0.1,0.3,0c0.2,0.1,0.5,0.2,0.8,0.4c-0.1,0.4-0.2,0.7-0.3,1.1c0,0.1-0.1,0.1-0.2,0.1
		c-0.8,0.1-1.7,0.2-2.5,0.3c0,0,0-0.1,0-0.1C-170.1-228.4-169.5-229-168.9-229.6z"/>
	<path class="st5" d="M-167.1-227c0-0.1,0.1-0.2,0.2-0.2c0.3-0.1,0.6-0.1,0.9-0.1c0.1,0.4,0.2,0.8,0.3,1.1c0,0.1-0.1,0.2-0.1,0.2
		c-0.6,0.6-1.2,1.1-1.8,1.7l-0.1,0C-167.6-225.2-167.4-226.1-167.1-227z"/>
	<path class="st5" d="M-165.6-235.6c0.2-1,0.3-1.9,0.5-3c0.3,0.6,0.5,1.1,0.8,1.5c0.1,0.2,0.2,0.4,0.3,0.6c0.2,0.5,0.2,0.5-0.2,0.8
		c-0.2,0.2-0.4,0.4-0.6,0.6c-0.2-0.1-0.5-0.2-0.7-0.4C-165.5-235.4-165.6-235.5-165.6-235.6z"/>
	<path class="st5" d="M-158.6-244c0.3,0,0.5-0.1,0.5-0.4c0.2-0.5,0.3-1,0.5-1.6c0.2,0.4,0.5,0.8,0.6,1.2c0.1,0.3,0.3,0.4,0.6,0.4
		c0.4,0,0.7-0.1,1.1-0.1c0.2,0,0.5-0.1,0.7-0.1c-0.1,0.1-0.3,0.3-0.4,0.4c-0.3,0.3-0.6,0.6-0.9,0.9c-0.3,0.3-0.2,0.4,0.1,0.7
		c0.3,0.4,0.4,0.8,0.6,1.2c0,0-0.1,0.1-0.1,0.1c-0.3-0.3-0.7-0.5-1-0.8c-0.2-0.2-0.5-0.2-0.7-0.1c-0.3,0.2-0.6,0.5-1,0.7
		c-0.2,0.2-0.5,0.4-0.7,0.6c0,0-0.1,0-0.1-0.1c0.1-0.6,0.3-1.2,0.5-1.8c0.1-0.3,0-0.6-0.3-0.7c-0.3-0.2-0.6-0.3-0.9-0.5
		c-0.1-0.1-0.2-0.1-0.4-0.3C-159.5-243.9-159.1-244-158.6-244z"/>
	<path class="st5" d="M-161.2-243.4c0.7,0.4,1.3,0.7,1.9,1c-0.1,0.8-0.3,1.6-0.4,2.4c-0.1,0.3-0.2,0.5-0.4,0.8
		c-0.9,0.8-1.8,1.6-2.7,2.4c-0.1,0.1-0.2,0.2-0.3,0.3c0,0-0.1-0.1-0.1-0.1c-0.5-1-1-2-1.4-3.1c-0.1-0.2-0.1-0.5-0.1-0.7
		c0.1-0.9,0.3-1.9,0.5-2.7c0.9-0.1,1.8-0.2,2.7-0.3C-161.4-243.5-161.3-243.5-161.2-243.4z"/>
	<path class="st5" d="M-168-243.8c0.7-0.7,1.4-1.4,2.1-2.1c0.1-0.1,0.2-0.1,0.2-0.1c0.9,0.5,1.8,1,2.8,1.5c0,0,0,0.1,0,0.1
		c-0.5,0.1-0.9,0.1-1.4,0.2c-0.6,0.1-0.5,0.1-0.6,0.7c-0.1,0.6-0.3,1.2-0.5,2c-0.2-0.3-0.3-0.6-0.4-0.9c-0.2-0.4-0.3-0.7-0.4-1.1
		c-0.1-0.3-0.3-0.3-0.5-0.3c-0.4,0-0.8,0.1-1.2,0.1C-168.1-243.7-168.1-243.8-168-243.8z"/>
	<path class="st5" d="M-170.1-241.9c0.4-0.6,1-0.8,1.8-0.8c0.4,0,0.7-0.1,1.1-0.2c0.2,0,0.3,0,0.4,0.2c0.3,0.7,0.7,1.5,1,2.2
		c0.1,0.1,0.1,0.2,0.1,0.4c-0.2,1.3-0.5,2.6-0.7,3.9c0,0,0,0.1-0.1,0.1c-0.2-0.1-0.4-0.2-0.6-0.4c-0.8-0.4-1.6-0.9-2.4-1.3
		c-0.3-0.1-0.4-0.3-0.6-0.6c-0.4-0.8-0.8-1.5-1.2-2.2c0-0.1-0.1-0.1-0.1-0.2c0.4-0.3,0.8-0.6,1.1-0.9
		C-170.3-241.7-170.2-241.8-170.1-241.9z"/>
	<path class="st5" d="M-175.1-241.9c0.4-0.1,0.6-0.3,0.7-0.7c0.1-0.4,0.2-0.8,0.4-1.3c0.2,0.5,0.4,0.9,0.5,1.3
		c0.2,0.5,0.4,0.6,1,0.4c0.3-0.1,0.6-0.1,1-0.1c-0.3,0.4-0.6,0.8-0.9,1.1c-0.3,0.4-0.2,0.4,0,0.8c0.3,0.5,0.4,1,0.7,1.5
		c-0.4-0.2-0.8-0.3-1.1-0.5c-0.6-0.3-1.1-0.3-1.6,0.2c-0.1,0.1-0.2,0.1-0.3,0.2c0-0.3,0.1-0.5,0-0.7c0-0.4,0.1-0.8-0.5-1
		c-0.5-0.1-0.9-0.6-1.3-0.9C-176.1-241.7-175.6-241.8-175.1-241.9z"/>
	<path class="st5" d="M-174.8-225.4c-0.2,0.2-0.5,0.4-0.7,0.7c-0.3,0.3-0.2,0.6,0.1,0.9c0.3,0.3,0.5,0.8,0.8,1.1
		c0,0-0.1,0.1-0.1,0.1c-0.3-0.2-0.6-0.3-0.9-0.5c-1.4-0.7-1-0.7-2.2,0.2c-0.1,0.1-0.3,0.2-0.5,0.4c0.1-0.6,0.2-1.1,0.3-1.7
		c0.1-0.3-0.1-0.5-0.4-0.7c-0.4-0.2-0.7-0.4-1.1-0.6c-0.1-0.1-0.3-0.1-0.4-0.2c0.5-0.1,0.9-0.1,1.3-0.2c0.2,0,0.4,0,0.6-0.1
		c0.2-0.1,0.3-0.3,0.4-0.5c0.1-0.6,0.2-1.1,0.2-1.7c0.1,0,0.1,0,0.1,0c0.1,0.3,0.2,0.6,0.4,0.9c0.1,0.1,0.1,0.3,0.1,0.4
		c0.1,0.5,0.3,0.6,0.9,0.6c0.6-0.1,1.3-0.1,2-0.1C-174.2-226-174.4-225.7-174.8-225.4z"/>
	<path class="st5" d="M-169.1-218c-0.2,0.1-0.5,0.1-0.7,0.2c-0.1,0.1-0.3,0.3-0.3,0.4c-0.1,0.4-0.2,0.8-0.3,1.3
		c-0.3-0.3-0.5-0.6-0.7-0.9c-0.2-0.3-0.5-0.4-0.9-0.4c-0.4,0-0.8,0-1,0.1c0.1-0.3,0.3-0.6,0.5-0.9c0-0.1,0.1-0.1,0.2-0.1
		c0.4-0.1,0.5-0.3,0.4-0.8c-0.1-0.4-0.3-0.8-0.5-1.2c0,0,0.1-0.1,0.1-0.1c0.3,0.2,0.6,0.4,0.9,0.7c0.2,0.2,0.4,0.2,0.7,0
		c0.4-0.3,0.8-0.6,1.3-1c-0.1,0.4-0.1,0.8-0.2,1.1c0,0.3-0.1,0.5,0,0.8c0,0,0.2,0.6,0.7,0.3c0.2,0.1,0.4,0.3,0.6,0.5
		C-168.7-218.1-168.9-218-169.1-218z"/>
	<path class="st5" d="M-166.7-218.3c-0.1,0-0.3-0.1-0.4-0.1c-0.6-0.3-1.1-0.6-1.7-1c0.2-0.9,0.4-1.8,0.6-2.6c0-0.1,0.1-0.2,0.2-0.3
		c0.7-0.7,1.4-1.4,2.1-2.1c0.2-0.2,0.4-0.4,0.6-0.6c0.1,0.2,0.2,0.3,0.2,0.5c0.4,0.9,0.8,1.8,1.1,2.7c0.1,0.2,0.1,0.6,0.1,0.8
		c-0.1,0.8-0.2,1.5-0.3,2.3c0,0.1-0.1,0.3-0.1,0.4C-165-218.4-165.9-218.3-166.7-218.3z"/>
	<path class="st5" d="M-178-234.9c0.5-0.4,1-0.8,1.4-1.2c0.1,0,0.1-0.1,0.2-0.1c-0.1,0.4-0.2,0.9-0.3,1.3c-0.1,0.2-0.2,0.5-0.1,0.7
		c0.1,0.2,0.4,0.2,0.6,0.5c0.1,0.1,0.2,0,0.3,0c0,0,0.1,0,0.1,0c0.5,0.2,0.9,0.5,1.4,0.7c0,0,0,0.1,0,0.1c-0.8,0.1-1.6,0.3-2.4,0.4
		c-0.3,0.1-0.5,0.1-0.6,0.5c-0.1,0.4-0.2,0.7-0.3,1.1c-0.2-0.2-0.4-0.4-0.5-0.7c0-0.1-0.1-0.2,0-0.2c0.1-0.5-0.2-0.8-0.7-0.7
		c-0.6,0.1-1.2,0.2-1.9,0.4c-0.1,0-0.1,0-0.2,0c0.3-0.4,0.6-0.7,0.9-1.1c0,0,0.1,0,0.2-0.1c0.5-0.1,0.7-0.5,0.4-1
		c-0.2-0.5-0.4-1-0.6-1.5c0-0.1,0-0.1-0.1-0.2c0.4,0.2,0.7,0.3,1.1,0.5"/>
</g>
<path class="st5" d="M-174.4-224.8C-174.4-224.8-174.4-224.9-174.4-224.8c0.9-0.7,1.8-1.4,2.7-2c0.1-0.1,0.2-0.1,0.3-0.1
	c1.1,0,2.3,0,3.5,0c-0.4,1.4-0.9,2.7-1.3,4c0,0.1-0.1,0.1-0.1,0.2c-0.7,0.5-1.4,1.1-2.1,1.6c-0.6-0.4-1.2-0.8-1.8-1.1
	c-0.2-0.1-0.4-0.3-0.4-0.6C-173.9-223.5-174.1-224.2-174.4-224.8z"/>
<circle class="st5" cx="-157.3" cy="-229.4" r="8.2"/>
<path class="st2" d="M-149.3-237l-0.3,1.6c0,0.1,0,0.2,0,0.3c0-0.1,0.1-0.1,0.1-0.2c0.3-0.7,0.4-1.4,0.6-2.1c0,0,0-0.1,0-0.1
	c-0.1-0.2-0.2-0.3-0.4-0.5c-0.1-0.2-0.3-0.3-0.4-0.5c-0.3-0.3-0.6-0.6-0.8-0.9c0,0.1,0.1,0.2,0.1,0.2l1.1,1.6c0,0,0.1,0.1,0.1,0.2
	C-149.2-237.3-149.3-237.1-149.3-237z"/>
<text transform="matrix(1 0 0 1 -142.4346 -226.0604)" class="st0" style="font-family:'BronxRegular'; font-size:8.8445px;">Amal Tadrib</text>
<text transform="matrix(1 0 0 1 -145.0665 -215.7542)" class="st0" style="font-family:'GESSUniqueLight-Light'; font-size:10.7603px;"> بيردت لـــــمأ</text>
<path class="st3" d="M-149.2-211.7C-149.1-211.7-149.1-211.7-149.2-211.7c0.2,0,0.2-0.1,0.3-0.2l1.6-5.4c0-0.1,0-0.1,0-0.2l-0.8-2.1
	c-0.1-0.1-0.2-0.2-0.3-0.2c-0.1,0-0.2,0.2-0.2,0.3l0.7,2.1l-0.6,2.2c-0.4,1.4-2,1.9-3.2,1.1l-1.9-1.3l-1.9-5.6
	c-0.4-1.2-1.4-2.1-2.6-2.5c-2.4-0.8-4.2-2.6-5-4.9c-1.4-4.1,0.7-8.6,4.8-10c4.1-1.5,8.6,0.6,10.1,4.7c0.9,2.4,0.6,4.9-0.8,7
	c-0.7,1.1-0.9,2.4-0.4,3.6l0.3,0.8c0.1,0.1,0.1,0.3,0,0.5c-0.1,0.2-0.2,0.3-0.4,0.3l-2,0.7c-0.1,0-0.2,0-0.2-0.1l-2.2-6.4
	c-0.1-0.1-0.2-0.2-0.3-0.2c-0.1,0-0.2,0.1-0.2,0.3c0,0.4-0.1,0.8-0.4,1.1c-0.3,0.4-0.7,0.6-1.2,0.6c-0.5,0-0.9-0.1-1.3-0.5
	c-0.6-0.6-0.7-1.6-0.2-2.2c0.5-0.6,1.2-0.8,1.9-0.6c0.6,0.2,1.3,0.4,1.4,0.5c0.9,0.3,1.9,0.1,2.4-0.6c0.4-0.5,0.6-1.1,0.5-1.7
	c-0.1-0.6-0.4-1.2-0.9-1.5c-0.9-0.7-2.2-0.6-3,0.3c-0.4,0.4-0.6,1-0.6,1.6c0,0.1,0.1,0.3,0.3,0.3c0.2,0,0.3-0.1,0.3-0.3
	c0-0.5,0.1-0.9,0.4-1.3c0.6-0.6,1.6-0.7,2.3-0.2c0.4,0.3,0.6,0.7,0.7,1.2c0.1,0.5-0.1,0.9-0.4,1.3c-0.5,0.5-1.2,0.7-1.9,0.5h0
	c0,0-0.8-0.3-1.4-0.5c-0.9-0.3-1.9,0-2.5,0.8c-0.7,0.9-0.6,2.2,0.2,2.9c0.4,0.4,1,0.7,1.7,0.6c0.6,0,1.2-0.3,1.6-0.8
	c0.1-0.2,0.3-0.4,0.3-0.6l2,5.6c0.1,0.4,0.5,0.6,0.9,0.4l2-0.7c0.3-0.1,0.5-0.3,0.6-0.5c0.2-0.3,0.2-0.6,0.1-0.9l-0.3-0.9
	c-0.4-1-0.2-2.2,0.4-3.1c1.5-2.2,1.8-5,0.9-7.5c-1.6-4.4-6.4-6.6-10.8-5.1c-2.2,0.8-3.9,2.4-4.9,4.6c-0.8,2-0.9,4.2-0.2,6.2
	c0.9,2.5,2.8,4.3,5.3,5.1c1,0.3,1.9,1.1,2.2,2.2l2,5.7c0,0.1,0.1,0.1,0.1,0.1l4.6,3.3C-149.3-211.7-149.2-211.7-149.2-211.7z"/>
</svg>
