<svg xmlns="http://www.w3.org/2000/svg" version="1.1" xmlns:xlink="http://www.w3.org/1999/xlink" xmlns:svgjs="http://svgjs.com/svgjs" width="1440" height="1000" preserveAspectRatio="none" viewBox="0 0 1440 1000"><g mask="url(&quot;#SvgjsMask1115&quot;)" fill="none"><rect width="1440" height="1000" x="0" y="0" fill="rgba(254, 237, 188, 1)"></rect><use xlink:href="#SvgjsG1119" transform="translate(0, 0)" fill="rgba(197, 35, 201, 1)"></use><use xlink:href="#SvgjsG1119" transform="translate(0, 480)" fill="rgba(197, 35, 201, 1)"></use><use xlink:href="#SvgjsG1119" transform="translate(0, 960)" fill="rgba(197, 35, 201, 1)"></use><use xlink:href="#SvgjsG1119" transform="translate(480, 0)" fill="rgba(197, 35, 201, 1)"></use><use xlink:href="#SvgjsG1119" transform="translate(480, 480)" fill="rgba(197, 35, 201, 1)"></use><use xlink:href="#SvgjsG1119" transform="translate(480, 960)" fill="rgba(197, 35, 201, 1)"></use><use xlink:href="#SvgjsG1119" transform="translate(960, 0)" fill="rgba(197, 35, 201, 1)"></use><use xlink:href="#SvgjsG1119" transform="translate(960, 480)" fill="rgba(197, 35, 201, 1)"></use><use xlink:href="#SvgjsG1119" transform="translate(960, 960)" fill="rgba(197, 35, 201, 1)"></use></g><defs><mask id="SvgjsMask1115"><rect width="1440" height="1000" fill="#ffffff"></rect></mask><g id="SvgjsG1116"><path d="M0.267 14.413h15.466V16H0.267z m0.632-1.535h13.998v0.872H0.899z m1.139-7.74h2.352v7.056h-2.352z m4.693 0h2.352v7.056h-2.352z m4.513 0h2.352v7.056H11.244zM0 3.595L8 0l8 3.595-0.007 0.927L0 4.535z"></path></g><g id="SvgjsG1117"><path d="M7.45 12.652S6.4 11.121 3.725 11.121C1.274 11.121 0 11.833 0 11.833V1.937s1.274-0.712 3.725-0.729C6.4 1.19 7.45 2.756 7.45 2.756V12.652z m1.087 0s1.05-1.531 3.725-1.531c2.451 0 3.725 0.712 3.725 0.713V1.937s-1.274-0.712-3.725-0.729c-2.675-0.017-3.725 1.548-3.725 1.548v9.896z"></path><path d="M8.012 15.733S6.4 13.411 3.725 13.411c-2.451 0-3.725 0.712-3.725 0.712v-1.186s1.274-0.712 3.725-0.729c2.675-0.018 4.287 2.34 4.287 2.34V15.733z m0 0s1.612-2.323 4.287-2.323c2.451 0 3.725 0.712 3.725 0.712v-1.185s-1.274-0.712-3.725-0.729c-2.675-0.019-4.287 2.339-4.287 2.339v1.185z"></path></g><g id="SvgjsG1118"><path d="M7.996 3.995c-1.111 0-2.014-0.895-2.014-1.998C5.982 0.894 6.884 0 7.996 0c1.112 0 2.013 0.894 2.013 1.997 0 1.103-0.902 1.998-2.013 1.998zM14.03 12.267l-1.585-5.521C11.811 4.539 9.964 4.607 9.964 4.607H6.027s-1.847-0.069-2.48 2.138L1.961 12.267c-0.151 0.516 0.133 0.91 0.584 1.04 0.45 0.129 0.911-0.098 1.03-0.511l1.541-5.382 0.753-0.001L3.405 16H12.586L10.122 7.413l0.752 0.001 1.542 5.382c0.118 0.413 0.579 0.64 1.03 0.511 0.451-0.129 0.736-0.523 0.584-1.04z" fill-rule="evenodd"></path></g><g id="SvgjsG1119"><use xlink:href="#SvgjsG1116" transform="translate(0, 0) scale(2)" fill="rgba(197, 35, 201, 1)"></use><use xlink:href="#SvgjsG1117" transform="translate(0, 48) scale(2)" fill="rgba(197, 35, 201, 1)"></use><use xlink:href="#SvgjsG1116" transform="translate(0, 96) scale(2)" fill="rgba(197, 35, 201, 1)"></use><use xlink:href="#SvgjsG1118" transform="translate(0, 144) scale(2)" fill="rgba(197, 35, 201, 1)"></use><use xlink:href="#SvgjsG1117" transform="translate(0, 192) scale(2)" fill="rgba(197, 35, 201, 1)"></use><use xlink:href="#SvgjsG1117" transform="translate(0, 240) scale(2)" fill="rgba(197, 35, 201, 1)"></use><use xlink:href="#SvgjsG1116" transform="translate(0, 288) scale(2)" fill="rgba(197, 35, 201, 1)"></use><use xlink:href="#SvgjsG1118" transform="translate(0, 336) scale(2)" fill="rgba(197, 35, 201, 1)"></use><use xlink:href="#SvgjsG1116" transform="translate(0, 384) scale(2)" fill="rgba(197, 35, 201, 1)"></use><use xlink:href="#SvgjsG1118" transform="translate(0, 432) scale(2)" fill="rgba(197, 35, 201, 1)"></use><use xlink:href="#SvgjsG1117" transform="translate(48, 0) scale(2)" fill="rgba(197, 35, 201, 1)"></use><use xlink:href="#SvgjsG1118" transform="translate(48, 48) scale(2)" fill="rgba(197, 35, 201, 1)"></use><use xlink:href="#SvgjsG1116" transform="translate(48, 96) scale(2)" fill="rgba(197, 35, 201, 1)"></use><use xlink:href="#SvgjsG1118" transform="translate(48, 144) scale(2)" fill="rgba(197, 35, 201, 1)"></use><use xlink:href="#SvgjsG1118" transform="translate(48, 192) scale(2)" fill="rgba(197, 35, 201, 1)"></use><use xlink:href="#SvgjsG1117" transform="translate(48, 240) scale(2)" fill="rgba(197, 35, 201, 1)"></use><use xlink:href="#SvgjsG1117" transform="translate(48, 288) scale(2)" fill="rgba(197, 35, 201, 1)"></use><use xlink:href="#SvgjsG1116" transform="translate(48, 336) scale(2)" fill="rgba(197, 35, 201, 1)"></use><use xlink:href="#SvgjsG1117" transform="translate(48, 384) scale(2)" fill="rgba(197, 35, 201, 1)"></use><use xlink:href="#SvgjsG1117" transform="translate(48, 432) scale(2)" fill="rgba(197, 35, 201, 1)"></use><use xlink:href="#SvgjsG1118" transform="translate(96, 0) scale(2)" fill="rgba(197, 35, 201, 1)"></use><use xlink:href="#SvgjsG1118" transform="translate(96, 48) scale(2)" fill="rgba(197, 35, 201, 1)"></use><use xlink:href="#SvgjsG1116" transform="translate(96, 96) scale(2)" fill="rgba(197, 35, 201, 1)"></use><use xlink:href="#SvgjsG1117" transform="translate(96, 144) scale(2)" fill="rgba(197, 35, 201, 1)"></use><use xlink:href="#SvgjsG1118" transform="translate(96, 192) scale(2)" fill="rgba(197, 35, 201, 1)"></use><use xlink:href="#SvgjsG1117" transform="translate(96, 240) scale(2)" fill="rgba(197, 35, 201, 1)"></use><use xlink:href="#SvgjsG1117" transform="translate(96, 288) scale(2)" fill="rgba(197, 35, 201, 1)"></use><use xlink:href="#SvgjsG1118" transform="translate(96, 336) scale(2)" fill="rgba(197, 35, 201, 1)"></use><use xlink:href="#SvgjsG1117" transform="translate(96, 384) scale(2)" fill="rgba(197, 35, 201, 1)"></use><use xlink:href="#SvgjsG1118" transform="translate(96, 432) scale(2)" fill="rgba(197, 35, 201, 1)"></use><use xlink:href="#SvgjsG1116" transform="translate(144, 0) scale(2)" fill="rgba(197, 35, 201, 1)"></use><use xlink:href="#SvgjsG1117" transform="translate(144, 48) scale(2)" fill="rgba(197, 35, 201, 1)"></use><use xlink:href="#SvgjsG1117" transform="translate(144, 96) scale(2)" fill="rgba(197, 35, 201, 1)"></use><use xlink:href="#SvgjsG1117" transform="translate(144, 144) scale(2)" fill="rgba(197, 35, 201, 1)"></use><use xlink:href="#SvgjsG1118" transform="translate(144, 192) scale(2)" fill="rgba(197, 35, 201, 1)"></use><use xlink:href="#SvgjsG1116" transform="translate(144, 240) scale(2)" fill="rgba(197, 35, 201, 1)"></use><use xlink:href="#SvgjsG1116" transform="translate(144, 288) scale(2)" fill="rgba(197, 35, 201, 1)"></use><use xlink:href="#SvgjsG1118" transform="translate(144, 336) scale(2)" fill="rgba(197, 35, 201, 1)"></use><use xlink:href="#SvgjsG1116" transform="translate(144, 384) scale(2)" fill="rgba(197, 35, 201, 1)"></use><use xlink:href="#SvgjsG1118" transform="translate(144, 432) scale(2)" fill="rgba(197, 35, 201, 1)"></use><use xlink:href="#SvgjsG1116" transform="translate(192, 0) scale(2)" fill="rgba(197, 35, 201, 1)"></use><use xlink:href="#SvgjsG1117" transform="translate(192, 48) scale(2)" fill="rgba(197, 35, 201, 1)"></use><use xlink:href="#SvgjsG1118" transform="translate(192, 96) scale(2)" fill="rgba(197, 35, 201, 1)"></use><use xlink:href="#SvgjsG1117" transform="translate(192, 144) scale(2)" fill="rgba(197, 35, 201, 1)"></use><use xlink:href="#SvgjsG1117" transform="translate(192, 192) scale(2)" fill="rgba(197, 35, 201, 1)"></use><use xlink:href="#SvgjsG1118" transform="translate(192, 240) scale(2)" fill="rgba(197, 35, 201, 1)"></use><use xlink:href="#SvgjsG1116" transform="translate(192, 288) scale(2)" fill="rgba(197, 35, 201, 1)"></use><use xlink:href="#SvgjsG1116" transform="translate(192, 336) scale(2)" fill="rgba(197, 35, 201, 1)"></use><use xlink:href="#SvgjsG1117" transform="translate(192, 384) scale(2)" fill="rgba(197, 35, 201, 1)"></use><use xlink:href="#SvgjsG1117" transform="translate(192, 432) scale(2)" fill="rgba(197, 35, 201, 1)"></use><use xlink:href="#SvgjsG1118" transform="translate(240, 0) scale(2)" fill="rgba(197, 35, 201, 1)"></use><use xlink:href="#SvgjsG1118" transform="translate(240, 48) scale(2)" fill="rgba(197, 35, 201, 1)"></use><use xlink:href="#SvgjsG1118" transform="translate(240, 96) scale(2)" fill="rgba(197, 35, 201, 1)"></use><use xlink:href="#SvgjsG1117" transform="translate(240, 144) scale(2)" fill="rgba(197, 35, 201, 1)"></use><use xlink:href="#SvgjsG1118" transform="translate(240, 192) scale(2)" fill="rgba(197, 35, 201, 1)"></use><use xlink:href="#SvgjsG1117" transform="translate(240, 240) scale(2)" fill="rgba(197, 35, 201, 1)"></use><use xlink:href="#SvgjsG1118" transform="translate(240, 288) scale(2)" fill="rgba(197, 35, 201, 1)"></use><use xlink:href="#SvgjsG1117" transform="translate(240, 336) scale(2)" fill="rgba(197, 35, 201, 1)"></use><use xlink:href="#SvgjsG1116" transform="translate(240, 384) scale(2)" fill="rgba(197, 35, 201, 1)"></use><use xlink:href="#SvgjsG1118" transform="translate(240, 432) scale(2)" fill="rgba(197, 35, 201, 1)"></use><use xlink:href="#SvgjsG1117" transform="translate(288, 0) scale(2)" fill="rgba(197, 35, 201, 1)"></use><use xlink:href="#SvgjsG1117" transform="translate(288, 48) scale(2)" fill="rgba(197, 35, 201, 1)"></use><use xlink:href="#SvgjsG1117" transform="translate(288, 96) scale(2)" fill="rgba(197, 35, 201, 1)"></use><use xlink:href="#SvgjsG1117" transform="translate(288, 144) scale(2)" fill="rgba(197, 35, 201, 1)"></use><use xlink:href="#SvgjsG1117" transform="translate(288, 192) scale(2)" fill="rgba(197, 35, 201, 1)"></use><use xlink:href="#SvgjsG1117" transform="translate(288, 240) scale(2)" fill="rgba(197, 35, 201, 1)"></use><use xlink:href="#SvgjsG1116" transform="translate(288, 288) scale(2)" fill="rgba(197, 35, 201, 1)"></use><use xlink:href="#SvgjsG1116" transform="translate(288, 336) scale(2)" fill="rgba(197, 35, 201, 1)"></use><use xlink:href="#SvgjsG1116" transform="translate(288, 384) scale(2)" fill="rgba(197, 35, 201, 1)"></use><use xlink:href="#SvgjsG1116" transform="translate(288, 432) scale(2)" fill="rgba(197, 35, 201, 1)"></use><use xlink:href="#SvgjsG1116" transform="translate(336, 0) scale(2)" fill="rgba(197, 35, 201, 1)"></use><use xlink:href="#SvgjsG1117" transform="translate(336, 48) scale(2)" fill="rgba(197, 35, 201, 1)"></use><use xlink:href="#SvgjsG1117" transform="translate(336, 96) scale(2)" fill="rgba(197, 35, 201, 1)"></use><use xlink:href="#SvgjsG1118" transform="translate(336, 144) scale(2)" fill="rgba(197, 35, 201, 1)"></use><use xlink:href="#SvgjsG1118" transform="translate(336, 192) scale(2)" fill="rgba(197, 35, 201, 1)"></use><use xlink:href="#SvgjsG1118" transform="translate(336, 240) scale(2)" fill="rgba(197, 35, 201, 1)"></use><use xlink:href="#SvgjsG1118" transform="translate(336, 288) scale(2)" fill="rgba(197, 35, 201, 1)"></use><use xlink:href="#SvgjsG1118" transform="translate(336, 336) scale(2)" fill="rgba(197, 35, 201, 1)"></use><use xlink:href="#SvgjsG1116" transform="translate(336, 384) scale(2)" fill="rgba(197, 35, 201, 1)"></use><use xlink:href="#SvgjsG1118" transform="translate(336, 432) scale(2)" fill="rgba(197, 35, 201, 1)"></use><use xlink:href="#SvgjsG1117" transform="translate(384, 0) scale(2)" fill="rgba(197, 35, 201, 1)"></use><use xlink:href="#SvgjsG1116" transform="translate(384, 48) scale(2)" fill="rgba(197, 35, 201, 1)"></use><use xlink:href="#SvgjsG1117" transform="translate(384, 96) scale(2)" fill="rgba(197, 35, 201, 1)"></use><use xlink:href="#SvgjsG1118" transform="translate(384, 144) scale(2)" fill="rgba(197, 35, 201, 1)"></use><use xlink:href="#SvgjsG1118" transform="translate(384, 192) scale(2)" fill="rgba(197, 35, 201, 1)"></use><use xlink:href="#SvgjsG1116" transform="translate(384, 240) scale(2)" fill="rgba(197, 35, 201, 1)"></use><use xlink:href="#SvgjsG1118" transform="translate(384, 288) scale(2)" fill="rgba(197, 35, 201, 1)"></use><use xlink:href="#SvgjsG1117" transform="translate(384, 336) scale(2)" fill="rgba(197, 35, 201, 1)"></use><use xlink:href="#SvgjsG1117" transform="translate(384, 384) scale(2)" fill="rgba(197, 35, 201, 1)"></use><use xlink:href="#SvgjsG1118" transform="translate(384, 432) scale(2)" fill="rgba(197, 35, 201, 1)"></use><use xlink:href="#SvgjsG1118" transform="translate(432, 0) scale(2)" fill="rgba(197, 35, 201, 1)"></use><use xlink:href="#SvgjsG1117" transform="translate(432, 48) scale(2)" fill="rgba(197, 35, 201, 1)"></use><use xlink:href="#SvgjsG1118" transform="translate(432, 96) scale(2)" fill="rgba(197, 35, 201, 1)"></use><use xlink:href="#SvgjsG1117" transform="translate(432, 144) scale(2)" fill="rgba(197, 35, 201, 1)"></use><use xlink:href="#SvgjsG1117" transform="translate(432, 192) scale(2)" fill="rgba(197, 35, 201, 1)"></use><use xlink:href="#SvgjsG1118" transform="translate(432, 240) scale(2)" fill="rgba(197, 35, 201, 1)"></use><use xlink:href="#SvgjsG1118" transform="translate(432, 288) scale(2)" fill="rgba(197, 35, 201, 1)"></use><use xlink:href="#SvgjsG1116" transform="translate(432, 336) scale(2)" fill="rgba(197, 35, 201, 1)"></use><use xlink:href="#SvgjsG1116" transform="translate(432, 384) scale(2)" fill="rgba(197, 35, 201, 1)"></use><use xlink:href="#SvgjsG1117" transform="translate(432, 432) scale(2)" fill="rgba(197, 35, 201, 1)"></use></g></defs></svg>