<?xml version="1.0" encoding="utf-8"?>
<!-- Generator: Adobe Illustrator 24.2.0, SVG Export Plug-In . SVG Version: 6.00 Build 0)  -->
<svg version="1.1" id="Capa_1" xmlns="http://www.w3.org/2000/svg" xmlns:xlink="http://www.w3.org/1999/xlink" x="0px" y="0px"
	 viewBox="0 0 512 512" style="enable-background:new 0 0 512 512;" xml:space="preserve">
<style type="text/css">
	.st0{fill:#FFD767;}
</style>
<g>
	<path class="st0" d="M222.57,310.77c0.76,5.61,4.26,11.14,7.61,15.96c1.35,1.95,6.37,3.49,8.32,2.5c8.3-4.24,16.08-9.51,23.7-14.19
		c2.24,1.96,3.31,3.08,4.54,3.95c7.74,5.44,12.47,4.5,17.29-3.58c1.19-1.99,1.74-4.35,2.67-6.51c4.29-9.92,4.3-9.92,14.52-7.22
		c8.43,2.23,15.87-4.26,14.77-13.07c-0.53-4.25-2.01-8.42-2.12-12.65c-0.06-2.18,1.56-4.73,3.09-6.55
		c3.41-4.05,7.57-7.49,10.7-11.72c1-1.35,0.49-5.81-0.67-6.46c-13.32-7.46-15.65-18-9.63-31.26c0.08-0.18-0.04-0.45,0.04-0.65
		c1.93-5.24-0.82-7.46-5.45-8.58c-6.6-1.59-13.18-3.26-20.59-5.1c-0.09-1.76,0.17-4.03-0.4-6.06c-1.22-4.36-1.1-10.33-7.21-10.8
		c-4.69-0.36-10.1-0.18-14.14,1.85c-8.59,4.31-15.93,3.38-23.26-2.14c-6.83-5.14-9.03-5.08-14.55,1.42
		c-2.47,2.91-5.17,6.4-5.78,9.96c-1.7,10.02-10.19,11.17-17.09,13.31c-8.07,2.5-10.54,3.37-7.7,11.17
		c3.54,9.71-1.1,14.18-7.96,18.58c-2.18,1.4-4.51,2.77-6.21,4.66c-1.41,1.57-2.92,3.98-2.75,5.86c0.68,7.12,4.88,11.97,11,15.57
		c1.29,0.76,1.98,3.46,2,5.28c0.09,7.45-0.38,14.9-0.17,22.34c0.04,1.5,1.93,3.86,3.36,4.22c3.94,1,8.1,1.09,12.16,1.65
		C217.64,303.18,221.64,303.89,222.57,310.77z"/>
	<path class="st0" d="M364.83,424.98c-1.78-8.99-3.76-17.26-12.37-22.96c-13.45-8.91-26.09-19.04-39.38-28.2
		c-3.33-2.3-7.85-2.87-11.83-4.23c-10.15,1.1-13.28,3.31-16.62,12.24c-5.53,14.83-11.16,29.61-16.59,44.47
		c-0.69,1.88-0.99,4.27-0.47,6.15c4.96,17.92,9.75,35.91,15.59,53.55c1.09,3.31,6.25,6.46,10.11,7.43
		c8.49,2.14,17.32,2.94,26.04,4.09c4.6,0.6,8.45-0.22,12.29-3.9c6.97-6.69,14.28-13.5,22.59-18.23
		c12.09-6.88,18.37-17.33,15.55-31.13C368.4,437.78,366.11,431.48,364.83,424.98z"/>
	<path class="st0" d="M152.08,92.28c4.07,12.53,11.11,20.73,23.97,26.18c11.77,4.99,21.57,14.58,32.4,21.91
		c1.54,1.04,5.15,1.75,5.79,0.96c3.73-4.55,8.01-9.17,9.97-14.55c4.8-13.18,7.57-27.14,12.82-40.12
		c4.68-11.59,8.47-22.55,3.13-34.77c-0.84-1.92-0.96-4.15-1.44-6.24c-3.01-13.12-9.86-22.97-23.85-25.41
		c-5.9-1.03-12.13-0.17-18.21-0.17c0-0.14,0-0.28,0-0.42c-3.92,0-7.85,0.11-11.76-0.02c-11.65-0.4-20.37,4.28-25.87,14.68
		c-1.4,2.65-2.31,5.68-4.19,7.91c-2.02,2.41-4.64,5.11-7.49,5.88c-8.5,2.3-9.85,3.72-6.97,12.18
		C144.05,71.02,148.58,81.49,152.08,92.28z"/>
	<path class="st0" d="M365.86,132.13c-3.82,11.04-6.59,22.6-11.73,32.98c-3.59,7.26-2.82,13.32,0.3,19.43
		c1.13,2.21,5.33,4.13,8.06,4.03c11.84-0.44,23.65-1.8,35.49-2.58c9.64-0.63,19.41-1.93,28.92-0.95c6.12,0.63,10.09-0.71,14.43-4.41
		c6.39-5.44,13.2-10.38,19.89-15.45c7.15-5.41,14.18-14.53,10.45-23.18c-3.05-7.06-5.36-14.46-7.7-21.81
		c-2.31-7.25-6.18-13.05-13.06-16.72c-6.2-3.3-12.15-7.08-18.4-10.28c-5.17-2.64-10.61-4.74-16.25-7.21
		c-5.2,2.11-9.99,3.06-13.55,5.67c-13.4,9.82-25.8,20.78-34.63,35.16C367.09,128.44,366.49,130.32,365.86,132.13z"/>
	<path class="st0" d="M56.77,162.42c9.36,6.11,18.35,12.78,27.79,18.75c4.43,2.81,9.43,6.23,14.33,6.49
		c15.64,0.83,31.36,0.31,47.04,0.31c0.01,0.3,0.01,0.61,0.02,0.91c2.89-0.24,6.34,0.44,8.58-0.9c7.38-4.38,11.02-16.58,8.57-25.21
		c-1.69-5.97-3.4-12.03-4.11-18.16c-1.47-12.79-7.77-22.1-18.45-28.94c-3.42-2.19-6.18-5.38-9.41-7.92
		c-7.46-5.86-14.44-12.71-22.74-16.94c-4.82-2.46-12.33-2.14-17.74-0.35c-7.8,2.57-14.92,7.39-22.05,11.72
		c-2.63,1.6-5.3,4.17-6.5,6.93c-4.18,9.61-7.32,19.67-11.62,29.21C46.58,147.03,49.02,157.36,56.77,162.42z"/>
	<path class="st0" d="M461.12,352.3c-7.29-5.79-14.28-11.98-21.27-18.15c-6.28-5.54-12.94-10.43-21.83-9.22
		c-19.3,2.62-38.47,1.13-57.58-1.46c-10.34-1.4-14.94,2.8-11.59,12.57c2.37,6.93,7.35,13.02,9.39,20.01
		c4.63,15.81,13.99,29.75,16.93,46.27c2.4,13.46,19.46,25.91,33.69,26.82c3.8-1.32,7.74-2.34,11.37-4.03
		c12.5-5.83,22.31-14.51,27.91-27.44c5.27-12.17,10.66-24.28,15.85-36.48C465.5,357.61,464.34,354.86,461.12,352.3z"/>
	<path class="st0" d="M496.38,223.4c-3.8-7.39-8.74-11.43-17.11-11.18c-4.68,0.14-9.4,1.69-14.01,1.36
		c-8.98-0.64-17.89-2.14-26.84-3.29c-7.53-1.02-12.71,2.44-17.78,7.61c-3.53,3.6-8.39,5.96-12.83,8.59
		c-8.28,4.9-16.76,9.45-24.96,14.48c-1.75,1.07-3.62,3.47-3.77,5.38c-0.62,7.9,1.92,15.22,8.07,20.13
		c13.6,10.84,27.6,21.21,41.69,31.41c3.75,2.71,8.01,3.51,13.35,2.47c9.61-1.88,19.64-2.68,29.41-2.2
		c4.88,0.24,8.04-0.39,10.33-4.21c4.1-6.82,8-13.76,11.8-20.76C502.5,257.05,505.25,240.65,496.38,223.4z"/>
	<path class="st0" d="M80.44,300.26c17.1-10.84,33.93-22.11,51.01-32.98c11.9-7.58,12.38-17.69,0.62-24.94
		c-12.44-7.66-25.02-15.1-37.67-22.41c-3.66-2.12-7.62-4.45-11.67-4.99c-9.41-1.25-18.95-1.46-28.45-2.09
		c-0.01,0.2-0.02,0.4-0.04,0.6c-6.54,0-13.18,0.68-19.61-0.18c-7.32-0.98-9.2,2.62-10.67,8.66c-2.37,9.71-5.71,19.19-8.3,28.85
		c-0.69,2.58-0.88,5.76-0.02,8.21c4.23,12.11,8.58,24.2,13.64,35.97c1.18,2.73,5.19,5.68,8.14,5.96c11.42,1.09,22.93,1.3,34.42,1.47
		C74.73,302.44,78.06,301.77,80.44,300.26z"/>
	<path class="st0" d="M241.47,412.51c-1.19-12.32-4.22-24.01-10.58-34.8c-3.86-6.55-15.19-8.23-19.39-2.59
		c-9.9,13.31-22.85,22.45-38.79,26.78c-7.49,2.03-11.47,6.34-13.94,13.38c-3.7,10.5-8.34,20.67-12,31.18
		c-1.32,3.8-1.66,8.26-1.2,12.28c1.18,10.28,9.6,13.83,17.5,18.08c6.2,3.34,11.74,7.87,17.67,11.73c2.86,1.86,5.93,3.39,8.9,5.07
		c0.24-0.41,0.47-0.81,0.71-1.22c5.85-0.46,11.9-0.12,17.47-1.62c4.46-1.2,10.31,0.38,13.27-4.91c2.08-3.72,4.25-7.41,5.92-11.31
		c4.72-11.03,8.87-22.32,13.91-33.19c3.68-7.95,5.99-15.55,1.74-23.93C241.9,415.97,241.63,414.18,241.47,412.51z"/>
	<path class="st0" d="M149.21,323.59c-16.41-0.39-32.84-0.12-49.26-0.12c-7.5-2.6-13.92-0.25-20.06,3.96
		c-8.88,6.1-17.98,11.87-27.05,17.68c-7.16,4.59-8.09,6.77-5.71,15.04c1.41,4.92,3.75,9.7,4.33,14.7
		c2.61,22.42,8.99,41.93,33.03,50.41c7.32,2.58,11.32,2.49,16.97-2.97c7.49-7.24,14.63-14.99,22.86-21.3
		c8.96-6.87,14.55-15.21,18.06-25.83c4.49-13.58,9.88-26.89,15.4-40.1C160.96,327.42,157.13,323.77,149.21,323.59z"/>
	<path class="st0" d="M290.27,120.96c-0.87,0.34-1.73,0.68-2.6,1.01c1.22,5.84,2.11,11.78,3.75,17.5c1.55,5.37,6.9,6.35,10.47,2.31
		c8.94-10.12,18.09-19.65,30.35-26.33c7.75-4.22,15.89-10.59,19.95-18.11c7.2-13.32,11.91-28.09,16.61-42.6
		c1.34-4.15,0.34-11.11-5.32-12.34c-6.54-1.42-9.62-6.39-14.31-9.73c-5.51-3.93-11.49-7.65-17.83-9.81
		c-4.16-1.42-11.17-1.78-13.66,0.67c-6.15,6.06-12.57,2.66-18.44,2.15c-4.07-0.35-5.62,0.5-6.71,3.54
		c-4.03,11.21-7.86,22.49-11.84,33.71c-5.15,14.54-5.61,28.67,2.54,42.5C286.12,110.29,287.96,115.76,290.27,120.96z"/>
	<path class="st0" d="M388.16,217.74c2.2-2.56,4.27-8.02,3-10.1c-1.82-2.99-6.73-4.1-10.33-6.01c-0.25,0.41-0.49,0.81-0.74,1.22
		c-1.94,0.16-3.99-0.02-5.81,0.52c-9.82,2.93-19.72,5.68-29.36,9.16c-12.79,4.62-15.7,18.54-5.38,26.41
		c3.57,2.72,7.57,4.55,10.32,8.47c0.65,0.92,5.28,0.35,6.92-0.97c5.75-4.61,10.97-9.86,16.43-14.84
		C378.25,227.02,383.77,222.87,388.16,217.74z"/>
	<path class="st0" d="M265.45,338.12c-2.79-0.98-5.79-1.33-8.7-1.97c-5.65-0.03-10.41,1.42-13.68,6.25c-1.35,2-2.84,3.98-3.73,6.19
		c-0.81,2-1.54,4.42-1.18,6.45c1.34,7.38,3.14,14.67,4.79,21.99c1.17,5.18,1.83,10.57,3.75,15.47c2.17,5.55,5.54,5.8,8.9,0.93
		c2.26-3.27,4.01-7,5.42-10.74c3.7-9.81,6.93-19.8,10.67-29.59C274.57,345.61,272.83,340.72,265.45,338.12z"/>
	<path class="st0" d="M124.24,294.23c2.58,9.55,2.43,9.59,14.94,9.59c8.21-0.44,16.42-0.78,24.62-1.4c1.54-0.12,3.62-0.94,4.37-2.12
		c3.27-5.14,7.02-10.23,8.94-15.9c2.52-7.42-2.18-13.08-9.88-12.84c-3.63,0.11-7.18,1.71-10.83,2.07c-10.19,1-19.48,3.78-28.03,9.89
		C124,286.65,122.93,289.4,124.24,294.23z"/>
	<path class="st0" d="M306.97,344.58c5.12,6.81,12.23,12.15,18.72,17.85c1.08,0.95,4.32,1.35,4.87,0.66
		c3.73-4.7,7.01-9.76,10.44-14.7c-0.47-0.31-0.95-0.62-1.42-0.92c-0.86-4.61-1.31-9.35-2.67-13.81
		c-3.8-12.51-9.29-21.76-25.22-20.56c-1.89,0.14-4.53,1.25-5.34,2.72c-2.03,3.72-4.66,7.99-4.41,11.87
		C302.33,333.47,303.62,340.13,306.97,344.58z"/>
	<path class="st0" d="M310.76,192.24c4.5,6.22,7.16,1.65,10.03-1.27c2.09-2.13,4.02-4.5,5.68-6.98
		c6.39-9.58,13.14-19.01,15.07-32.61c-0.78-1.11-1.77-3.57-3.59-4.89c-3.74-2.7-12.11-1.17-15.45,2.06
		c-5.06,4.88-10.3,9.57-15.42,14.39c-2.22,2.09-4.49,4.15-6.43,6.48c-4.92,5.9-3.25,17.78,3.32,21.85
		C305.77,192.39,309.84,190.97,310.76,192.24z"/>
	<path class="st0" d="M186.31,364.46c7.58-4.73,14.81-10.04,22.08-15.26c6.48-4.66,9-12.37,6.64-19.68
		c-2.96-9.15-5.41-11.25-13.53-11.28c-5.92-0.72-9.81,2.38-12.41,7.74c-3.56,7.33-7.13,14.66-10.85,21.9
		c-2.8,5.46-1.01,10.53,1.64,15.12C180.66,364.35,184.91,365.33,186.31,364.46z"/>
	<path class="st0" d="M139.81,213.16c-6.37,3.59-7.94,7.56-2.91,11.34c8.21,6.18,16.99,11.69,25.94,16.76
		c2.16,1.22,7.48,0.77,8.64-0.85c4.38-6.08,7.64-12.97,11.68-20.21c-2.73-2.98-4.1-5.74-6.23-6.6
		C164.7,208.67,152.33,206.1,139.81,213.16z"/>
	<path class="st0" d="M360.86,301.68c8.02,2.45,13.12,0.16,17.39-6.7c3.45-5.55,2.84-9.34-2.99-12.6
		c-5.62-3.14-11.07-6.59-16.77-9.57c-2.93-1.53-6.24-2.35-10.12-3.76c-2.38,1.21-4.94,2.11-7.03,3.66
		c-8.51,6.28-6.47,15.87-2.13,23.26c1.44,2.45,4.94,4.54,7.83,5.11C351.52,301.96,356.6,300.38,360.86,301.68z"/>
	<path class="st0" d="M246.07,167.87c2.37,3.69,6.68,6.73,10.81,8.36c1.47,0.58,5.19-3.53,7.39-5.96c6.6-7.3,7.13-16.76,8.55-25.83
		c0.59-3.77,1.56-7.77,0.86-11.37c-0.89-4.55-16.9-7.44-19.49-3.28c-4.82,7.76-8.45,16.25-11.8,22.9
		C243.85,159.25,243.79,164.31,246.07,167.87z"/>
	<path class="st0" d="M189.24,193.72c1.77,4.15,5.82,5.35,10.21,2.66c8.65-5.3,13.64-20.38,9.23-29.56
		c-1.89-3.93-4.24-9.01-7.71-10.5c-6.6-2.84-14.15-3.48-23.3-5.47c1.44,7.88,2.08,13.81,3.66,19.48
		C183.55,178.25,186.01,186.17,189.24,193.72z"/>
</g>
</svg>
