<?xml version="1.0" encoding="utf-8"?>
<!-- Generator: Adobe Illustrator 24.2.0, SVG Export Plug-In . SVG Version: 6.00 Build 0)  -->
<svg version="1.1" id="Capa_1" xmlns="http://www.w3.org/2000/svg" xmlns:xlink="http://www.w3.org/1999/xlink" x="0px" y="0px"
	 viewBox="0 0 512 512" style="enable-background:new 0 0 512 512;" xml:space="preserve">
<style type="text/css">
	.st0{fill:#FFD767;}
</style>
<path d="M962,51c-5.53,0-11.22,0.56-17.03,1.42C922.97,13.57,881.74-13,834-13s-88.97,26.57-110.97,65.42
	C717.22,51.56,711.53,51,706,51c-70.58,0-128,57.41-128,128c0,46.13,24.27,87.56,64,110.47V451c0,26.47,21.53,48,48,48h288
	c26.47,0,48-21.53,48-48V289.47c39.73-22.91,64-64.34,64-110.47C1090,108.41,1032.58,51,962,51L962,51z M978,467H690
	c-8.83,0-16-7.19-16-16v-48h320v48C994,459.81,986.83,467,978,467z M1003.09,265.38c-5.55,2.66-9.09,8.28-9.09,14.44V371H674v-91.19
	c0-6.16-3.55-11.78-9.09-14.44C631.03,249.19,610,216.09,610,179c0-52.94,43.06-96,96-96c1.36,0,2.98,0.48,4.37,0.55
	C707.79,93.67,706,104.09,706,115c0,8.84,7.16,16,16,16c8.84,0,16-7.16,16-16c0-52.94,43.06-96,96-96s96,43.06,96,96
	c0,8.84,7.16,16,16,16c8.84,0,16-7.16,16-16c0-10.91-1.79-21.33-4.37-31.45c1.39-0.07,3.01-0.55,4.37-0.55c52.94,0,96,43.06,96,96
	C1058,216.09,1036.97,249.19,1003.09,265.38L1003.09,265.38z"/>
<g>
	<g>
		<g>
			<rect x="-182.95" y="231.7" width="16" height="16"/>
		</g>
	</g>
	<g>
		<g>
			<rect x="-214.95" y="231.7" width="16" height="16"/>
		</g>
	</g>
	<g>
		<g>
			<rect x="-246.95" y="231.7" width="16" height="16"/>
		</g>
	</g>
	<g>
		<g>
			<path d="M-47.79,444.12l-15.16-30.3V294.03l10-2.58c3.53-0.91,6-4.1,6-7.74s-2.47-6.83-6-7.74l-84.77-21.93
				c1.73-4.46,2.77-9.26,2.77-14.33v-80h40v-16h-40v-16h64v-16h-64v-16h88v-16h-96h-64v-16c0-30.87-25.13-56-56-56h-48
				c-30.87,0-56,25.13-56,56v16h-64c-4.42,0-8,3.58-8,8v152c0,5.06,1.04,9.87,2.77,14.34l-84.77,21.92c-3.53,0.91-6,4.1-6,7.74
				s2.47,6.83,6,7.74l106,27.41v40.85h-88v16h88v16h-64v16h64v16h-40v16h46.71l118.76,39.58c0.82,0.27,1.68,0.42,2.53,0.42
				s1.71-0.14,2.53-0.42l120-40c3.27-1.09,5.47-4.14,5.47-7.58V318.85l80-20.69v115.64l-15.16,30.31c-1.13,2.25-1.13,4.9,0,7.16
				l16,32c1.36,2.71,4.13,4.42,7.16,4.42s5.8-1.71,7.16-4.42l16-32C-46.66,449.03-46.66,446.37-47.79,444.12z M-350.95,63.7
				c0-22.06,17.94-40,40-40h48c22.06,0,40,17.94,40,40v16h-16v-16c0-13.23-10.77-24-24-24h-48c-13.23,0-24,10.77-24,24v16h-16V63.7z
				 M-254.95,63.7v16h-64v-16c0-4.42,3.58-8,8-8h48C-258.53,55.7-254.95,59.29-254.95,63.7z M-422.95,95.7h272v32
				c0,13.23-10.77,24-24,24h-16h-32h-32v-24c0-4.42-3.58-8-8-8h-48c-4.42,0-8,3.58-8,8v24h-32h-32h-16c-13.23,0-24-10.77-24-24V95.7
				z M-198.95,167.7v16h-16v-16H-198.95z M-270.95,135.7v16h-32v-16H-270.95z M-358.95,167.7v16h-16v-16H-358.95z M-422.95,159.49
				c6.7,5.08,14.96,8.21,24,8.21h8v24c0,4.42,3.58,8,8,8h32c4.42,0,8-3.58,8-8v-24h32h48h32v24c0,4.42,3.58,8,8,8h32
				c4.42,0,8-3.58,8-8v-24h8c9.04,0,17.3-3.13,24-8.21v80.21c0,5.44-1.89,10.4-4.94,14.43c-0.05,0.06-0.12,0.1-0.17,0.16
				c-1.13,1.46-2.4,2.76-3.78,3.9c-0.06,0.06-0.13,0.11-0.2,0.16c-1.25,1.02-2.59,1.86-4,2.6c-0.24,0.12-0.46,0.27-0.7,0.38
				c-1.29,0.62-2.64,1.08-4.02,1.46c-0.34,0.09-0.65,0.23-0.98,0.3c-1.69,0.38-3.42,0.6-5.2,0.6h-224c-1.78,0-3.51-0.22-5.21-0.61
				c-0.34-0.07-0.66-0.22-0.98-0.3c-1.38-0.38-2.74-0.83-4.02-1.46c-0.25-0.11-0.47-0.26-0.71-0.38c-1.4-0.74-2.75-1.58-3.99-2.59
				c-0.06-0.06-0.13-0.11-0.2-0.16c-1.38-1.14-2.65-2.44-3.78-3.9c-0.05-0.06-0.11-0.1-0.17-0.16c-3.06-4.03-4.94-8.99-4.94-14.43
				C-422.95,239.7-422.95,159.49-422.95,159.49z M-174.95,425.93l-112,37.34l-112-37.34V323l110,28.45c0.66,0.17,1.33,0.26,2,0.26
				s1.34-0.09,2-0.26l110-28.45V425.93z M-286.95,335.44l-200.06-51.74l60.03-15.53c3.66,3.6,7.98,6.49,12.79,8.48
				c0.89,0.37,1.84,0.55,2.74,0.86c1.52,0.5,3.01,1.07,4.6,1.39c2.57,0.52,5.21,0.8,7.89,0.8h224c2.68,0,5.32-0.28,7.89-0.8
				c1.59-0.32,3.08-0.9,4.6-1.39c0.91-0.3,1.86-0.49,2.74-0.86c4.81-1.99,9.14-4.88,12.79-8.48l60.03,15.53L-286.95,335.44z
				 M-70.95,461.81l-7.06-14.11l7.06-14.11l7.06,14.11L-70.95,461.81z"/>
		</g>
	</g>
	<g>
	</g>
	<g>
	</g>
	<g>
	</g>
	<g>
	</g>
	<g>
	</g>
	<g>
	</g>
	<g>
	</g>
	<g>
	</g>
	<g>
	</g>
	<g>
	</g>
	<g>
	</g>
	<g>
	</g>
	<g>
	</g>
	<g>
	</g>
	<g>
	</g>
</g>
<g>
	<g>
		<path class="st0" d="M256,97.95c5.52,0,10-4.48,10-10V37.01c0-5.52-4.48-10-10-10s-10,4.48-10,10v50.94
			C246,93.47,250.47,97.95,256,97.95z"/>
		<path class="st0" d="M180.81,114.37c1.9,3.02,5.15,4.67,8.47,4.67c1.82,0,3.67-0.5,5.32-1.54c4.67-2.94,6.07-9.12,3.13-13.79
			l-26.64-42.28c-2.95-4.67-9.12-6.07-13.79-3.13c-4.67,2.94-6.07,9.12-3.13,13.79L180.81,114.37z"/>
		<path class="st0" d="M317.42,117.5c1.65,1.04,3.5,1.54,5.32,1.54c3.32,0,6.57-1.65,8.47-4.67l26.62-42.28
			c2.94-4.67,1.54-10.85-3.14-13.79c-4.68-2.94-10.85-1.54-13.79,3.14l-26.62,42.28C311.34,108.39,312.75,114.56,317.42,117.5z"/>
		<path class="st0" d="M508.78,262.43l-17.38-30.69c-2.72-4.81-8.82-6.5-13.63-3.78c-4.81,2.72-6.5,8.82-3.78,13.63l17.37,30.68
			c0.87,1.54,0.64,3.03,0.43,3.78c-0.2,0.72-0.77,2.05-2.24,2.86l-26.78,14.83c-2.38,1.31-5.48,0.48-6.78-1.8l-6.8-12.03
			c-0.03-0.05-0.06-0.1-0.09-0.16l-70.33-124.39c-0.87-1.53-0.65-3-0.44-3.74c0.2-0.71,0.76-2.04,2.23-2.85l26.81-14.84
			c2.41-1.33,5.44-0.52,6.76,1.81l15.67,27.69c2.72,4.81,8.82,6.5,13.63,3.78c4.81-2.72,6.5-8.82,3.78-13.63l-15.67-27.68
			c-6.68-11.85-21.86-16.1-33.85-9.47l-26.81,14.84c-5.8,3.21-9.99,8.51-11.8,14.92c-1.71,6.05-1.1,12.37,1.7,17.92l-14.77,4.28
			c-6.29,1.82-10.11,2.81-12.23,2.81c-0.01,0-0.02,0-0.02,0c-1.46-0.01-3.05-0.56-7.59-2.28c-2.06-0.78-4.62-1.75-7.78-2.85
			l-26.17-9.15c-14.47-5.05-21-4.78-30.45-3.92l-44.62,3.99c-20.34,1.8-33.31,6.39-40.46,14.35l-25.43-7.37
			c2.74-5.52,3.32-11.78,1.63-17.77c-1.81-6.41-6-11.71-11.79-14.92l-26.79-14.84c-11.99-6.63-27.18-2.38-33.87,9.46L3.25,262.42
			c-3.31,5.82-4.12,12.59-2.3,19.06c1.81,6.43,6,11.73,11.79,14.93l26.79,14.84c3.83,2.12,7.99,3.12,12.1,3.12
			c8.72,0,17.21-4.54,21.77-12.59l2.83-5.01c7.73,3.4,14.21,8.34,18.63,14.19c-4.32,5.05-7.04,11.27-7.8,18.05
			c-1.01,8.96,1.52,17.74,7.12,24.75c5.55,6.95,13.5,11.33,22.38,12.36c-0.94,8.88,1.6,17.58,7.16,24.51
			c5.75,7.18,13.87,11.38,22.36,12.36c-0.94,8.87,1.6,17.56,7.14,24.49c5.55,6.96,13.49,11.35,22.38,12.38
			c-0.94,8.89,1.6,17.6,7.16,24.52c6.63,8.28,16.41,12.6,26.28,12.6c7.37,0,14.8-2.4,20.99-7.35l20.94-16.75
			c1.66-1.33,3.17-2.79,4.53-4.37l11.96,9.55c6.18,4.94,13.59,7.33,20.95,7.33c9.88,0,19.68-4.32,26.31-12.61
			c3.5-4.37,5.71-9.36,6.71-14.51c3.5,1.21,7.19,1.83,10.95,1.83c1.26,0,2.53-0.07,3.81-0.21c8.96-0.99,16.97-5.4,22.54-12.38
			c5.57-6.94,8.11-15.64,7.17-24.52c8.49-0.99,16.61-5.18,22.38-12.36c5.74-7.18,8.04-16.01,7.14-24.51
			c8.88-1.03,16.81-5.42,22.36-12.34c5.61-6.99,8.15-15.76,7.15-24.71c-0.75-6.79-3.48-13.04-7.8-18.1
			c4.41-5.85,10.88-10.8,18.61-14.19l2.84,5.02c4.56,8.05,13.03,12.58,21.76,12.58c4.11,0,8.27-1.01,12.11-3.13l26.78-14.83
			c5.79-3.2,9.98-8.5,11.79-14.91C512.87,275.04,512.07,268.27,508.78,262.43L508.78,262.43z M55.99,291.94
			c-1.3,2.3-4.41,3.12-6.78,1.81l-26.79-14.84c-1.46-0.81-2.02-2.14-2.23-2.86c-0.21-0.74-0.43-2.22,0.45-3.77l77.22-136.55
			c0.88-1.57,2.55-2.45,4.28-2.45c0.84,0,1.7,0.21,2.49,0.64l26.79,14.84c0,0,0.01,0,0.01,0.01c1.47,0.81,2.02,2.13,2.23,2.85
			c0.21,0.74,0.43,2.21-0.45,3.76L55.99,291.94z M128.97,343.4c-2.82,2.26-6.38,3.28-10.02,2.88c-3.64-0.4-6.89-2.18-9.14-5
			c-2.26-2.83-3.28-6.39-2.87-10.02c0.41-3.62,2.18-6.85,5.02-9.11l37.44-29.93c5.88-4.69,14.48-3.73,19.17,2.14
			c2.26,2.82,3.28,6.38,2.87,10c-0.41,3.61-2.18,6.84-5,9.08c-0.06,0.05-0.12,0.1-0.18,0.15L128.97,343.4
			C128.97,343.39,128.97,343.39,128.97,343.4z M139.33,378.13c-2.26-2.81-3.28-6.36-2.87-9.98c0.4-3.63,2.18-6.87,5-9.13l0,0
			c0,0,0,0,0.01,0c0,0,0,0,0,0l53.93-43.08c5.88-4.69,14.48-3.73,19.17,2.14c2.26,2.82,3.27,6.37,2.87,9.99
			c-0.4,3.63-2.19,6.87-5.01,9.13l-53.91,43.07C152.63,384.95,144.03,384.01,139.33,378.13L139.33,378.13z M177.99,420.02
			c-3.64-0.4-6.88-2.18-9.14-5.01c-2.26-2.82-3.27-6.37-2.87-9.99c0.4-3.63,2.18-6.87,5.01-9.13c0,0,0.01,0,0.01-0.01l37.32-29.81
			c0.04-0.03,0.09-0.06,0.14-0.1c5.86-4.69,14.46-3.74,19.16,2.12c2.26,2.82,3.28,6.38,2.87,10.02c-0.41,3.62-2.18,6.85-5.02,9.11
			l-37.44,29.92C185.2,419.41,181.63,420.42,177.99,420.02L177.99,420.02z M243.51,428.14c-0.4,3.63-2.18,6.86-5.01,9.12
			l-20.94,16.76c-5.88,4.7-14.48,3.75-19.18-2.13c-2.26-2.81-3.28-6.36-2.88-9.99s2.18-6.87,4.99-9.12c0,0,0.01-0.01,0.01-0.01
			l20.93-16.73c0.01-0.01,0.02-0.02,0.03-0.02c5.88-4.69,14.48-3.73,19.17,2.14C242.9,420.97,243.91,424.51,243.51,428.14z
			 M402.19,341.27c-2.25,2.82-5.5,4.59-9.14,5c-3.64,0.41-7.2-0.61-10.02-2.88c0,0,0,0-0.01,0c0,0,0,0,0,0l-26.76-21.38
			c-4.32-3.45-10.61-2.74-14.05,1.57c-3.45,4.31-2.74,10.61,1.57,14.05l26.75,21.37c5.87,4.7,6.83,13.28,2.17,19.12
			c-4.71,5.87-13.31,6.83-19.18,2.12l-29.02-23.16c-4.32-3.44-10.61-2.74-14.05,1.58c-3.44,4.32-2.74,10.61,1.58,14.05l29.01,23.15
			c2.83,2.26,4.61,5.51,5.01,9.14c0.4,3.62-0.62,7.17-2.89,10.01c-2.25,2.82-5.49,4.6-9.13,5c-3.64,0.4-7.21-0.62-10.03-2.86
			l-14.44-11.55c-0.02-0.02-0.05-0.04-0.07-0.06l-12.2-9.76l-2.28-1.82c-4.32-3.45-10.61-2.75-14.05,1.56
			c-0.43,0.54-0.8,1.11-1.1,1.7c-1.45,2.83-1.42,6.15-0.07,8.93c0.63,1.29,1.54,2.47,2.73,3.42l14.52,11.61
			c5.83,4.71,6.78,13.26,2.11,19.1c-4.7,5.87-13.3,6.83-19.17,2.14l-16.48-13.16c0.69-8.56-1.85-16.91-7.21-23.61
			c-3.33-4.17-7.47-7.32-12.01-9.44c3.33-4.62,5.44-10.04,6.1-15.87c1.01-8.96-1.52-17.74-7.13-24.76c-3.34-4.16-7.46-7.3-12-9.42
			c3.33-4.63,5.45-10.07,6.1-15.91c0.99-8.94-1.54-17.71-7.13-24.7c-9.62-12.03-25.89-15.69-39.44-9.94
			c-1.08-4.98-3.3-9.67-6.57-13.76c-11.58-14.47-32.78-16.83-47.27-5.27l-26.78,21.4c-6.06-7.73-14.29-14.14-24.02-18.7l55.08-97.42
			l29.33,8.5c0.13,1.57,0.39,3.22,0.81,4.97c7.1,29.19,33.97,42.79,70.14,35.5c30.47-6.13,43.01,3,68,21.2
			c2.59,1.89,5.29,3.85,8.1,5.87c17.97,12.89,37.17,28.04,50.04,38.31l32.46,25.94c2.82,2.25,4.6,5.49,5,9.12
			C405.47,334.9,404.45,338.45,402.19,341.27L402.19,341.27z M401.87,297.99l-21.78-17.41c-13.05-10.41-32.52-25.77-50.87-38.94
			c-2.78-1.99-5.43-3.92-7.98-5.78c-25.91-18.87-44.63-32.49-83.72-24.63c-11.96,2.41-40.47,5.23-46.76-20.62
			c-0.89-3.65,0.01-4.9,0.4-5.44c1.34-1.86,6.72-6.4,27.77-8.26l44.66-4c7.28-0.66,10.93-1,22.04,2.88l26.17,9.15
			c2.91,1.02,5.23,1.9,7.29,2.67c12.6,4.77,15.94,4.77,32.49-0.02l19.29-5.59l55.01,97.29
			C416.14,283.86,407.92,290.27,401.87,297.99z"/>
		<path class="st0" d="M460.57,207.6c5.52,0,10-4.49,10-10.01s-4.48-10-10-10s-10,4.48-10,10v0.03
			C450.57,203.14,455.05,207.6,460.57,207.6z"/>
	</g>
</g>
</svg>
