<?xml version="1.0"?>
<svg xmlns="http://www.w3.org/2000/svg" xmlns:xlink="http://www.w3.org/1999/xlink" xmlns:svgjs="http://svgjs.com/svgjs" version="1.1" width="512" height="512" x="0" y="0" viewBox="0 0 512 512" style="enable-background:new 0 0 512 512" xml:space="preserve" class=""><g><g xmlns="http://www.w3.org/2000/svg"><path d="m481.5 56.48h-90v-21.48c0-19.3-15.7-35-35-35-9.993 0-192.228 0-201 0-19.3 0-35 15.7-35 35v21.48h-90c-16.82 0-30.5 13.68-30.5 30.5v286.02c0 16.82 13.68 30.5 30.5 30.5h163.58l-14.47 78.5h-46.638c-8.284 0-15 6.716-15 15s6.716 15 15 15h246.056c8.284 0 15-6.716 15-15s-6.716-15-15-15h-46.638l-14.47-78.5h163.58c16.82 0 30.5-13.68 30.5-30.5 0-11.031 0-273.937 0-286.02 0-16.82-13.68-30.5-30.5-30.5zm-253.32-26.48h55.64v44.54c-15.264-9.353-19.038-12.74-27.81-12.74-8.649 0-12.313 3.229-27.83 12.74 0-14.861 0-29.689 0-44.54zm-77.68 5c0-2.76 2.24-5 5-5h42.68c0 58.291-.081 54.417.19 56.48 1.483 12.397 11.997 21.99 24.81 21.99 8.879 0 11.813-2.916 32.82-15.79l19.75 12.1c15.507 9.526 35.72-.235 37.88-18.3.271-2.065.19 1.79.19-56.48h42.68c2.76 0 5 2.24 5 5v201c0 2.76-2.24 5-5 5h-201c-2.76 0-5-2.24-5-5 0-7.984 0-193.634 0-201zm59.62 447 14.47-78.5h62.82l14.47 78.5zm271.88-109c0 .28-.22.5-.5.5-12.902 0-443.806 0-451 0-.28 0-.5-.22-.5-.5v-32.13h452zm0-62.13h-452c0-9.819 0-207.871 0-223.89 0-.27.22-.5.5-.5h90v149.52c0 19.3 15.7 35 35 35h201c19.3 0 35-15.7 35-35v-149.52h90c.28 0 .5.23.5.5z" fill="#ffd767" data-original="#000000" style=""/><path d="m220.667 189.747h70.667c8.284 0 15-6.716 15-15s-6.716-15-15-15h-70.667c-8.284 0-15 6.716-15 15s6.715 15 15 15z" fill="#ffd767" data-original="#000000" style=""/></g></g></svg>
