<?xml version="1.0" encoding="utf-8"?>
<!-- Generator: Adobe Illustrator 24.2.0, SVG Export Plug-In . SVG Version: 6.00 Build 0)  -->
<svg version="1.1" id="Capa_1" xmlns="http://www.w3.org/2000/svg" xmlns:xlink="http://www.w3.org/1999/xlink" x="0px" y="0px"
	 viewBox="0 0 443.73 443.73" style="enable-background:new 0 0 443.73 443.73;" xml:space="preserve">
<style type="text/css">
	.st0{fill:#FFD767;}
</style>
<g>
	<g>
		<path class="st0" d="M187.73,0H17.07C7.64,0,0,7.64,0,17.07v170.67c0,9.43,7.64,17.07,17.07,17.07h170.67
			c9.43,0,17.07-7.64,17.07-17.07V17.07C204.8,7.64,197.16,0,187.73,0z M170.67,170.67H34.13V34.13h136.53L170.67,170.67
			L170.67,170.67z"/>
	</g>
</g>
<g>
	<g>
		<path class="st0" d="M426.67,0H256c-9.43,0-17.07,7.64-17.07,17.07v170.67c0,9.43,7.64,17.07,17.07,17.07h170.67
			c9.43,0,17.07-7.64,17.07-17.07V17.07C443.73,7.64,436.09,0,426.67,0z M409.6,170.67H273.07V34.13H409.6V170.67z"/>
	</g>
</g>
<g>
	<g>
		<path class="st0" d="M187.73,238.93H17.07C7.64,238.93,0,246.57,0,256v170.67c0,9.43,7.64,17.07,17.07,17.07h170.67
			c9.43,0,17.07-7.64,17.07-17.07V256C204.8,246.57,197.16,238.93,187.73,238.93z M170.67,409.6H34.13V273.07h136.53L170.67,409.6
			L170.67,409.6z"/>
	</g>
</g>
<g>
	<g>
		<path class="st0" d="M426.67,324.27H358.4V256c0-9.43-7.64-17.07-17.07-17.07s-17.07,7.64-17.07,17.07v68.27H256
			c-9.43,0-17.07,7.64-17.07,17.07s7.64,17.07,17.07,17.07h68.27v68.27c0,9.43,7.64,17.07,17.07,17.07s17.07-7.64,17.07-17.07V358.4
			h68.27c9.43,0,17.07-7.64,17.07-17.07S436.09,324.27,426.67,324.27z"/>
	</g>
</g>
</svg>
