<?xml version="1.0" encoding="utf-8"?>
<!-- Generator: Adobe Illustrator 24.2.0, SVG Export Plug-In . SVG Version: 6.00 Build 0)  -->
<svg version="1.1" id="Capa_1" xmlns="http://www.w3.org/2000/svg" xmlns:xlink="http://www.w3.org/1999/xlink" x="0px" y="0px"
	 viewBox="0 0 512 512" style="enable-background:new 0 0 512 512;" xml:space="preserve">
<style type="text/css">
	.st0{fill:#FFD767;}
</style>
<g>
	<path class="st0" d="M220.06,290.16c17.47,0,31.68-14.21,31.68-31.68c0-4.14-3.36-7.5-7.5-7.5c-4.14,0-7.5,3.36-7.5,7.5
		c0,9.2-7.48,16.68-16.68,16.68s-16.68-7.48-16.68-16.68c0-4.14-3.36-7.5-7.5-7.5c-4.14,0-7.5,3.36-7.5,7.5
		C188.37,275.95,202.59,290.16,220.06,290.16z"/>
	<path class="st0" d="M275.64,220.2c4.14,0,7.5-3.36,7.5-7.5v-13.47h1.09c4.14,0,7.5-3.36,7.5-7.5s-3.36-7.5-7.5-7.5h-8.59
		c-4.14,0-7.5,3.36-7.5,7.5v20.97C268.14,216.84,271.5,220.2,275.64,220.2z"/>
	<path class="st0" d="M155.88,199.23h1.09v13.47c0,4.14,3.36,7.5,7.5,7.5s7.5-3.36,7.5-7.5v-20.97c0-4.14-3.36-7.5-7.5-7.5h-8.59
		c-4.14,0-7.5,3.36-7.5,7.5S151.74,199.23,155.88,199.23z"/>
	<path class="st0" d="M444.31,459.28c4.14,0,7.5-3.36,7.5-7.5v-53.99c0-8.55-6.95-15.5-15.5-15.5h-75.34
		c0.19-1.44,0.3-2.88,0.3-4.34v-11.78c0-10.13-4.63-19.19-11.88-25.19c7.25-6,11.88-15.06,11.88-25.19v-11.78
		c0-10.12-4.62-19.18-11.87-25.18c7.25-6,11.87-15.06,11.87-25.18v-14.62c12.47-8.91,19-23.38,19-37.31v-0.24
		c0-13.56-5.83-26.14-16.07-34.91c0-66.27,0.03-62.19-0.06-62.89c-1.74-14.18-6.02-27.82-12.73-40.52
		c-0.01-0.01-0.01-0.02-0.02-0.03C330.85,24.25,290.82,0.09,246.92,0.09c-56.78,0-71.08-0.75-82.86,1.96
		c-20.49,3.77-39.68,12.98-55.52,26.67c-3.13,2.71-3.48,7.44-0.77,10.58c2.71,3.13,7.44,3.48,10.58,0.77
		c15.78-13.63,30.62-19.27,49.03-23.38c12.48-2.24,16.54-1.6,79.54-1.6c38.33,0,73.29,21.11,91.23,55.08c0,0,0,0,0,0
		c5.78,10.95,9.5,22.69,11.05,34.89v58.23c-4.47,0-7.37,0-11.76,0c-3.58-4.74-9.28-7.67-15.51-7.67h-74.29
		c-5.46,0-10.55,2.31-14.07,6c-1.16-0.24-2.28-0.51-3.39-0.79c-29.63-7.68-52.19-33.02-56.29-63.59c-0.78-5.83-0.66-10.04-0.66-15.6
		c0-2.64-1.39-5.09-3.66-6.44c-2.27-1.35-5.09-1.41-7.41-0.15c-30.53,16.54-53.03,45.72-60.67,80.66
		c-4.34,0.44-8.89,1.55-13.21,3.38c-4.29-23.78-5.75-29.6-5.75-41.14c0-18.65,5.13-36.98,14.85-53.03c2.15-3.54,1.01-8.16-2.53-10.3
		c-3.54-2.15-8.16-1.01-10.3,2.53c-11.13,18.38-17.02,39.41-17.02,60.8c0,13.25,1.58,19.37,7.12,50.1
		c-8.89,8.4-14.46,20.28-14.46,33.45v0.24c0,23.78,18.12,43.4,41.28,45.79c7.92,36.52,32.29,66.52,64.08,82.38v16.61l-21.34,7.84
		c-2.29,0.84-4.31,2.19-5.99,3.88h-10.84c-25.99,0-47.14,21.15-47.14,47.14v99.14c0,4.14,3.36,7.5,7.5,7.5h356.57
		c4.14,0,7.5-3.36,7.5-7.5v-17.72c0-4.14-3.36-7.5-7.5-7.5c-4.14,0-7.5,3.36-7.5,7.5V497H331.92v-99.71h104.39
		c0.28,0,0.5,0.22,0.5,0.5v53.99C436.81,455.92,440.17,459.28,444.31,459.28z M149.38,368.43l21.81-8.01l36.86,36.07
		c-20.26,12.87-14.22,9.04-24.3,15.44c-0.56,0.36-1.46,0.3-1.97-0.32l-33.04-40.82C148.1,370,148.41,368.79,149.38,368.43
		L149.38,368.43z M256.37,411.93l-24.3-15.44l36.86-36.07c0.32,0.12,21.91,8.01,22.19,8.22c-0.01,0.69-0.02,1.85-0.02,2.46
		c-2.46,3.2-10.81,13.41-32.75,40.51C257.86,412.2,257.01,412.33,256.37,411.93L256.37,411.93z M293.67,353.53l-19.1-7.02v-16.63
		c5.89-2.96,11.5-6.38,16.79-10.22c1.01,8.55,5.33,16.1,11.65,21.32C298.96,344.33,295.73,348.62,293.67,353.53L293.67,353.53z
		 M338.67,247.5c2.42-0.23,4.96-0.63,7.6-1.33v7.49c0,8.97-6.72,16.41-15.39,17.53C334.35,263.46,336.95,255.39,338.67,247.5
		L338.67,247.5z M346.27,304.01v11.78c0,9.75-7.93,17.68-17.68,17.68h-4.8c-9.75,0-17.68-7.93-17.68-17.68v-8.68
		c6.27-6.29,11.83-13.24,16.58-20.75c0.86-0.05,1.25-0.04,5.89-0.04C338.34,286.34,346.27,294.27,346.27,304.01L346.27,304.01z
		 M354.95,178.42c6.59,5.89,10.32,14.17,10.32,23.08v0.24c0,12.87-8.43,26.44-24.25,30.08c0.6-8.02,0.42-17.3,0.42-53.51
		C341.45,178.3,341.92,178.42,354.95,178.42z M321.93,170.63c2.18,0,4.16,1.62,4.44,3.95c0.07,1.89,0.05,7.3,0.05,33.71
		c0,13.41-10.91,24.31-24.31,24.31h-34.66c-13.41,0-24.31-10.91-24.31-24.31v-33.16c0-2.41,2.01-4.5,4.5-4.5H321.93z M211.97,194.11
		c0-20.79,0.22-20.76-0.71-24.14c5.28,2.42,10.44,4.27,16.29,5.67c0.2,0.05,0.39,0.1,0.59,0.14v18.33L211.97,194.11L211.97,194.11z
		 M158.55,94.94c1.89,22.55,12.32,44.64,30.59,60.69c-77.11,0-70.77-0.03-72.23,0.07C123.21,130.66,138.46,109.2,158.55,94.94z
		 M113.72,181.48c0-2.35,0.1-5.15,0.32-7.98c0.65-1.68,2.28-2.88,4.18-2.88h74.26c2.48,0,4.5,2.02,4.5,4.5v33.16
		c0,13.41-10.91,24.31-24.31,24.31h-34.63c-13.41,0-24.31-10.91-24.31-24.31L113.72,181.48L113.72,181.48z M99.15,231.94
		c-13.71-3.21-23.96-15.54-23.96-30.21v-0.24c0-14.55,10.1-26.94,23.91-30.2c-0.49,2.44-0.38,3.49-0.38,10.18v26.8
		c0,13.96-0.11,17.16,0.43,23.58C99.14,231.89,99.14,231.92,99.15,231.94z M115.38,240.39c6.41,4.53,14.22,7.21,22.65,7.21h34.63
		c21.4,0,38.85-17.19,39.29-38.48h16.21c0.44,21.3,17.89,38.48,39.29,38.48h34.66c8.43,0,16.23-2.67,22.64-7.2
		c-8.98,50.45-54.24,89.88-110.12,87.12C164.81,324.84,123.96,288.09,115.38,240.39L115.38,240.39z M220.46,342.67
		c13.68,0,26.83-2.29,39.1-6.49v12.41l-31.43,30.75l-8.08,7.91l-39.51-38.66v-12.41C193.44,340.55,207.19,342.67,220.46,342.67
		L220.46,342.67z M95.24,405.36c0-17.72,14.42-32.14,32.13-32.14h6.38c0.26,1.26,0.67,2.48,1.22,3.65c0,0.01,0.01,0.01,0.01,0.02
		c1.45,3.07,1.5,2.6,35.13,44.15c4.35,5.37,11.68,7.5,18.26,5.2V497H95.24L95.24,405.36z M203.37,417.23l16.68-10.6l1.13,0.72
		l15.87,10.08V497h-33.68L203.37,417.23z M252.06,426.35c6.49,2.12,13.67-0.03,17.95-5.31c7.43-9.18,12.61-15.57,19.36-23.89
		c0.73-0.9,1.43-1.77,2.1-2.59c-0.26,1.2-0.34,2.34-0.34,3.22V497h-39.07L252.06,426.35L252.06,426.35z M316.92,497h-10.8v-99.21
		c0-0.27,0.26-0.5,0.5-0.5h10.3V497z M306.66,382.29c-0.33-1.44-0.48-3.07-0.54-5.09c0,0,0.01-4.79,0.01-11.02
		c0-9.75,7.93-17.68,17.68-17.68h4.8c9.75,0,17.68,7.93,17.68,17.68v11.78c0,1.49-0.18,2.94-0.53,4.34
		C330.05,382.29,318.94,382.29,306.66,382.29L306.66,382.29z"/>
	<path class="st0" d="M358.77,411.08c-6.89,0-12.5,5.61-12.5,12.5v17c0,6.89,5.61,12.5,12.5,12.5h51.19c6.89,0,12.5-5.61,12.5-12.5
		v-17c0-6.89-5.61-12.5-12.5-12.5H358.77z M407.46,438.08h-46.18v-12h46.18V438.08z"/>
</g>
</svg>
