<?xml version="1.0"?>
<svg xmlns="http://www.w3.org/2000/svg" xmlns:xlink="http://www.w3.org/1999/xlink" xmlns:svgjs="http://svgjs.com/svgjs" version="1.1" width="512" height="512" x="0" y="0" viewBox="0 0 511.996 511.996" style="enable-background:new 0 0 512 512" xml:space="preserve" class=""><g><g xmlns="http://www.w3.org/2000/svg"><path d="m40.369 511.996h274.021c4.143 0 7.5-3.358 7.5-7.5s-3.357-7.5-7.5-7.5h-110.018c-4.744 0-8.604-3.93-8.604-8.761v-8.057h281.367v8.057c0 4.831-3.859 8.761-8.604 8.761h-119.141c-4.143 0-7.5 3.358-7.5 7.5s3.357 7.5 7.5 7.5h119.143c13.015 0 23.604-10.659 23.604-23.761v-12.053c0-6.067-4.921-11.004-10.97-11.004h-9.36c1.882-3.799 2.945-8.029 2.945-12.427v-52.54c0-4.142-3.357-7.5-7.5-7.5s-7.5 3.358-7.5 7.5v52.54c0 5.502-3.5 10.48-8.623 12.427h-229.338c-5.154-1.959-8.636-6.971-8.636-12.427 0-6.234 0-148.642 0-156.499 0-7.325 5.959-13.285 13.284-13.285h220.027c7.325 0 13.285 5.959 13.285 13.285v68.959c0 4.142 3.357 7.5 7.5 7.5s7.5-3.358 7.5-7.5v-68.959c0-15.596-12.688-28.285-28.285-28.285h-96.482c3.632-20.431-3.151-42.61-16.445-49.465-5.556-2.864-9.363-5.625-11.982-8.687-4.201-4.912-7.589-13.925-8.871-23.253 7.37-6.574 11.59-15.778 11.59-25.385 0-7.438-2.506-14.644-7.111-20.598v-35.208c0-58.467-47.51-105.802-106.16-105.369-57.669.422-104.585 48.241-104.585 106.596v33.978c-4.607 5.955-7.115 13.163-7.115 20.602 0 9.605 4.219 18.809 11.587 25.382-1.097 8.318-4.071 18.03-8.933 23.713-2.617 3.061-6.425 5.821-11.979 8.686-10.888 5.613-17.908 21.573-17.47 39.714.38 15.736 6.259 29.407 16.263 38.802l-25.102 9.804c-.042.016-.084.033-.126.05-21.04 8.659-43.685 33.472-43.685 67.487v116.669c0 11.31 9.201 20.511 20.509 20.511zm186.069-244.029c-13.174 0-24.272 9.054-27.402 21.266l-19.762-19.762c.022-.341.059-.676.059-1.024v-11.4c20.197 8.85 44.255 9.387 64.861.054l.009 10.867h-17.765zm-28.284 41.597v14.394l-7.451 7.451c-.972.972-2.611.97-3.581 0l-40.444-40.444 23.643-9.234zm14.861-60.679c-37.924 0-64.708-29.047-64.708-62.464v-43.499c24.207 0 47.978.748 63.488-23.649 7.987 12.54 21.567 21.266 36.36 22.52 15.985 1.364 10.511 1.129 27.116 1.129v42.81c.001 33.783-27.457 63.003-62.256 63.153zm113.649-17.051c6.588 3.396 11.985 20.071 8.033 36.133h-75.493v-.181l-.006-19.655c16.136-12.289 27.489-30.637 30.396-52.183 3.16-.16 6.364-.731 9.246-1.612 1.896 8.882 5.498 18.424 11.318 25.229 3.923 4.587 9.168 8.486 16.506 12.269zm-17.389-70.656c0 10.323-8.507 18.461-19.003 19.663l.001-38.161c10.505.958 19.002 7.673 19.002 18.498zm-187.855-54.58c0-50.145 40.236-91.234 89.693-91.595 49.822-.426 91.051 39.815 91.051 90.369v24.752c-5.979-2.23-12.97-3.096-19.86-2.203-24.416 0-16.734.302-32.88-1.076-13.469-1.142-25.769-11.465-29.182-25.468-.95-3.921-4.425-6.659-8.45-6.659-4 0-7.455 2.707-8.427 6.58-.007.028-.017.054-.024.082-3.073 12.711-14.127 24.04-29.696 25.547-14.362 1.221-13.021.994-32.382.994-6.906-.869-13.839.127-19.843 2.433zm-2.205 42.082c4.491-3.495 9.364-5.411 14.093-5.929v38.09c-10.461-1.183-19.003-9.328-19.003-19.663 0-6.682 3.91-11.716 4.91-12.498zm-31.71 109.632c-.316-13.107 4.505-23.522 9.349-26.02 7.339-3.785 12.583-7.683 16.505-12.269 5.936-6.939 9.556-16.65 11.424-25.672 2.682.814 6.022 1.433 9.125 1.595 2.619 21.458 13.927 40.152 30.425 52.4l-.003 19.621c-33.005 12.89-26.033 10.167-59.172 23.11-15.365-8.682-17.48-25.609-17.653-32.765zm-52.645 116.505c0-28.912 20.51-47.873 34.334-53.592l62.228-24.303 45.093 45.094c5.77 5.769 14.732 6.77 21.639 2.483v108.252c0 4.117.983 8.506 2.923 12.427h-9.338c-6.049 0-10.971 4.937-10.971 11.004v12.053c0 3.074.614 6.108 1.662 8.761h-84.454c0-22.907 0-90.262 0-111.665 0-4.142-3.357-7.5-7.5-7.5s-7.5 3.358-7.5 7.5v18.416h-48.116zm0 43.93h48.115v18.667h-48.115zm0 33.667h48.115v44.583h-42.606c-3.037 0-5.509-2.472-5.509-5.509z" fill="#18113c" data-original="#000000" style="" class=""/><path d="m403.542 444.275h14.42c10.115 0 17.501-9.556 14.933-19.353l-3.204-12.226c-1.557-5.939-5.881-10.574-11.438-12.773v-50.748c0-4.943-2.745-9.389-7.164-11.603h-.001l-70.289-35.218c-5.578-2.795-12.238-2.794-17.816 0l-70.289 35.218c-4.42 2.214-7.165 6.661-7.165 11.604s2.745 9.39 7.165 11.604l17.314 8.675v41.11c0 6.947 3.741 13.281 9.764 16.528 32.483 17.514 71.824 17.477 104.238 0 1.959-1.056 3.672-2.444 5.098-4.069l-.498 1.899c-2.566 9.784 4.805 19.352 14.932 19.352zm7.21-30.754c2.487-.014 3.997 1.332 4.429 2.979l3.204 12.227v.001c.073.281-.13.548-.423.548h-14.42c-.288 0-.497-.261-.423-.548l3.205-12.228c.436-1.662 1.949-2.996 4.428-2.979zm-16.98-44.066 9.479-4.75v35.21c-3.979 1.576-7.328 4.409-9.479 8.084zm-15 41.11c0 1.403-.739 2.708-1.883 3.325-28.035 15.117-62.023 15.086-90 0-1.144-.617-1.883-1.922-1.883-3.325v-33.595l37.975 19.027c5.461 2.738 12.126 2.851 17.816 0l37.975-19.027zm4.141-52.446-48.834 24.468c-1.371.687-3.008.687-4.379 0l-48.834-24.468-17.848-8.942 66.682-33.411c1.371-.687 3.008-.687 4.379 0l51.712 25.91h-53.901c-4.143 0-7.5 3.358-7.5 7.5s3.357 7.5 7.5 7.5h53.903z" fill="#18113c" data-original="#000000" style="" class=""/></g></g></svg>
